<?xml version="1.0" encoding="UTF-8" standalone="no"?><svg xmlns="http://www.w3.org/2000/svg" xmlns:xlink="http://www.w3.org/1999/xlink" contentScriptType="application/ecmascript" contentStyleType="text/css" height="482px" preserveAspectRatio="none" style="width:1495px;height:482px;" version="1.1" viewBox="0 0 1495 482" width="1495px" zoomAndPan="magnify"><defs><filter height="300%" id="f1mopvtbgcajcc" width="300%" x="-1" y="-1"><feGaussianBlur result="blurOut" stdDeviation="2.0"/><feColorMatrix in="blurOut" result="blurOut2" type="matrix" values="0 0 0 0 0 0 0 0 0 0 0 0 0 0 0 0 0 0 .4 0"/><feOffset dx="4.0" dy="4.0" in="blurOut2" result="blurOut3"/><feBlend in="SourceGraphic" in2="blurOut3" mode="normal"/></filter></defs><g><!--cluster ##2010--><!--cluster ##2028--><!--cluster ##2037--><!--class Role--><a target="_top" xlink:actuate="onRequest" xlink:href="../Role.html" xlink:show="new" xlink:title="Role of a party in an activity." xlink:type="simple"><rect fill="#FEFEEE" filter="url(#f1mopvtbgcajcc)" height="44.7734" id="Role" style="stroke: #A80036; stroke-width: 1.5;" width="175" x="552.75" y="40.5"/><rect fill="#FEFEEE" height="23.9688" style="stroke: #A80036; stroke-width: 1.5;" width="175" x="552.75" y="40.5"/><text fill="#000000" font-family="sans-serif" font-size="12" lengthAdjust="spacingAndGlyphs" textLength="27" x="626.75" y="56.6387">Role</text><line style="stroke: #A80036; stroke-width: 1.5;" x1="553.75" x2="726.75" y1="64.4688" y2="64.4688"/><ellipse cx="563.75" cy="76.3711" fill="#84BE84" rx="3" ry="3" style="stroke: #038048; stroke-width: 1.0;"/><text fill="#000000" font-family="sans-serif" font-size="11" lengthAdjust="spacingAndGlyphs" textLength="53" x="572.75" y="78.6792">PartyRole</text><text fill="#000000" font-family="sans-serif" font-size="11" font-style="italic" lengthAdjust="spacingAndGlyphs" textLength="92" x="629.75" y="78.6792">(PartyRoleCode)</text></a><!--class AccountPartyRole--><a target="_top" xlink:actuate="onRequest" xlink:href="../AccountPartyRole.html" xlink:show="new" xlink:title="Role played by a party in the context of account operations." xlink:type="simple"><rect fill="#FEFECE" filter="url(#f1mopvtbgcajcc)" height="23.9688" id="AccountPartyRole" style="stroke: #A80036; stroke-width: 1.5;" width="116" x="478.5" y="166"/><rect fill="#FEFECE" height="23.9688" style="stroke: #A80036; stroke-width: 1.5;" width="116" x="478.5" y="166"/><text fill="#000000" font-family="sans-serif" font-size="12" lengthAdjust="spacingAndGlyphs" textLength="110" x="481.5" y="182.1387">AccountPartyRole</text></a><!--class AccountOwnerRole--><a target="_top" xlink:actuate="onRequest" xlink:href="../AccountOwnerRole.html" xlink:show="new" xlink:title="Party that legally owns the account." xlink:type="simple"><rect fill="#FEFEEE" filter="url(#f1mopvtbgcajcc)" height="23.9688" id="AccountOwnerRole" style="stroke: #A80036; stroke-width: 1.5;" width="123" x="38.75" y="272"/><rect fill="#FEFEEE" height="23.9688" style="stroke: #A80036; stroke-width: 1.5;" width="123" x="38.75" y="272"/><text fill="#000000" font-family="sans-serif" font-size="12" lengthAdjust="spacingAndGlyphs" textLength="117" x="41.75" y="288.1387">AccountOwnerRole</text></a><!--class InvestmentAccountPartyRole--><a target="_top" xlink:actuate="onRequest" xlink:href="../InvestmentAccountPartyRole.html" xlink:show="new" xlink:title="Specifies roles played by a party that are related to an investment account." xlink:type="simple"><rect fill="#FEFEEE" filter="url(#f1mopvtbgcajcc)" height="23.9688" id="InvestmentAccountPartyRole" style="stroke: #A80036; stroke-width: 1.5;" width="185" x="196.75" y="272"/><rect fill="#FEFEEE" height="23.9688" style="stroke: #A80036; stroke-width: 1.5;" width="185" x="196.75" y="272"/><text fill="#000000" font-family="sans-serif" font-size="12" lengthAdjust="spacingAndGlyphs" textLength="179" x="199.75" y="288.1387">InvestmentAccountPartyRole</text></a><!--class AccountServicerRole--><a target="_top" xlink:actuate="onRequest" xlink:href="../AccountServicerRole.html" xlink:show="new" xlink:title="Party that manages the account on behalf of the account owner, that is manages the registration and booking of entries on the account, calculates balances on the account and provides information about the account." xlink:type="simple"><rect fill="#FEFEEE" filter="url(#f1mopvtbgcajcc)" height="23.9688" id="AccountServicerRole" style="stroke: #A80036; stroke-width: 1.5;" width="134" x="417" y="272"/><rect fill="#FEFEEE" height="23.9688" style="stroke: #A80036; stroke-width: 1.5;" width="134" x="417" y="272"/><text fill="#000000" font-family="sans-serif" font-size="12" lengthAdjust="spacingAndGlyphs" textLength="128" x="420" y="288.1387">AccountServicerRole</text></a><!--class RepresentativeOfficer--><a target="_top" xlink:actuate="onRequest" xlink:href="../RepresentativeOfficer.html" xlink:show="new" xlink:title="Officer who has some rights to represent a given organisation. In account management, it is the person to be contacted by the account servicer." xlink:type="simple"><rect fill="#FEFEEE" filter="url(#f1mopvtbgcajcc)" height="23.9688" id="RepresentativeOfficer" style="stroke: #A80036; stroke-width: 1.5;" width="141" x="586.75" y="272"/><rect fill="#FEFEEE" height="23.9688" style="stroke: #A80036; stroke-width: 1.5;" width="141" x="586.75" y="272"/><text fill="#000000" font-family="sans-serif" font-size="12" lengthAdjust="spacingAndGlyphs" textLength="135" x="589.75" y="288.1387">RepresentativeOfficer</text></a><!--class RolePlayer--><a target="_top" xlink:actuate="onRequest" xlink:href="../RolePlayer.html" xlink:show="new" xlink:title="Type of entity that plays a specific role in a specific context." xlink:type="simple"><rect fill="#EEEEEE" filter="url(#f1mopvtbgcajcc)" height="23.9688" id="RolePlayer" style="stroke: #A80036; stroke-width: 1.5;" width="71" x="1070.75" y="448"/><rect fill="#EEEEEE" height="23.9688" style="stroke: #A80036; stroke-width: 1.5;" width="71" x="1070.75" y="448"/><text fill="#000000" font-family="sans-serif" font-size="12" lengthAdjust="spacingAndGlyphs" textLength="65" x="1073.75" y="464.1387">RolePlayer</text></a><!--class ContactPersonRole--><a target="_top" xlink:actuate="onRequest" xlink:href="../ContactPersonRole.html" xlink:show="new" xlink:title="Person to be contacted in a given organisation. In the corporate action domain (including meeting notifications) , it is the contact person at the party organising the meeting, at the issuer or at an intermediary." xlink:type="simple"><rect fill="#EEEEEE" filter="url(#f1mopvtbgcajcc)" height="23.9688" id="ContactPersonRole" style="stroke: #A80036; stroke-width: 1.5;" width="126" x="1023" y="362"/><rect fill="#EEEEEE" height="23.9688" style="stroke: #A80036; stroke-width: 1.5;" width="126" x="1023" y="362"/><text fill="#000000" font-family="sans-serif" font-size="12" lengthAdjust="spacingAndGlyphs" textLength="120" x="1026" y="378.1387">ContactPersonRole</text></a><!--class CounterpartyRisk--><a target="_top" xlink:actuate="onRequest" xlink:href="../CounterpartyRisk.html" xlink:show="new" xlink:title="Calculation of the exposure amount that one party has vis-a-vis one counterparty or a central system, based on its credit risk." xlink:type="simple"><rect fill="#EEEEEE" filter="url(#f1mopvtbgcajcc)" height="23.9688" id="CounterpartyRisk" style="stroke: #A80036; stroke-width: 1.5;" width="113" x="1029.75" y="272"/><rect fill="#EEEEEE" height="23.9688" style="stroke: #A80036; stroke-width: 1.5;" width="113" x="1029.75" y="272"/><text fill="#000000" font-family="sans-serif" font-size="12" lengthAdjust="spacingAndGlyphs" textLength="107" x="1032.75" y="288.1387">CounterpartyRisk</text></a><!--class Entry--><a target="_top" xlink:actuate="onRequest" xlink:href="../Entry.html" xlink:show="new" xlink:title="Posting to an account that results in an increase or decrease to a balance." xlink:type="simple"><rect fill="#EEEEEE" filter="url(#f1mopvtbgcajcc)" height="23.9688" id="Entry" style="stroke: #A80036; stroke-width: 1.5;" width="38" x="1023" y="166"/><rect fill="#EEEEEE" height="23.9688" style="stroke: #A80036; stroke-width: 1.5;" width="38" x="1023" y="166"/><text fill="#000000" font-family="sans-serif" font-size="12" lengthAdjust="spacingAndGlyphs" textLength="32" x="1026" y="182.1387">Entry</text></a><!--class Account--><a target="_top" xlink:actuate="onRequest" xlink:href="../Account.html" xlink:show="new" xlink:title="Record of transactions in specific types of assets, maintained by a servicing party on behalf of one or more owning parties. Business relationship between an account servicer and one or more account owners." xlink:type="simple"><rect fill="#EEEEEE" filter="url(#f1mopvtbgcajcc)" height="23.9688" id="Account" style="stroke: #A80036; stroke-width: 1.5;" width="57" x="784.75" y="272"/><rect fill="#EEEEEE" height="23.9688" style="stroke: #A80036; stroke-width: 1.5;" width="57" x="784.75" y="272"/><text fill="#000000" font-family="sans-serif" font-size="12" lengthAdjust="spacingAndGlyphs" textLength="51" x="787.75" y="288.1387">Account</text></a><!--link Role to AccountPartyRole--><path d="M606.351,100.561 C585.489,123.228 560.107,150.807 546.248,165.865 " fill="none" id="Role-AccountPartyRole" style="stroke: #A80036; stroke-width: 1.0;"/><polygon fill="none" points="601.499,95.496,620.194,85.52,611.8,104.977,601.499,95.496" style="stroke: #A80036; stroke-width: 1.0;"/><!--link AccountPartyRole to AccountOwnerRole--><path d="M458.278,187.833 C385.004,197.499 272.752,215.786 179,246 C158.098,252.736 135.53,263.712 119.888,271.963 " fill="none" id="AccountPartyRole-AccountOwnerRole" style="stroke: #A80036; stroke-width: 1.0;"/><polygon fill="none" points="457.597,180.863,478.323,185.276,459.369,194.751,457.597,180.863" style="stroke: #A80036; stroke-width: 1.0;"/><!--link AccountPartyRole to InvestmentAccountPartyRole--><path d="M490.885,197.996 C439.448,219.654 357.09,254.33 315.243,271.95 " fill="none" id="AccountPartyRole-InvestmentAccountPartyRole" style="stroke: #A80036; stroke-width: 1.0;"/><polygon fill="none" points="488.418,191.44,509.567,190.13,493.85,204.342,488.418,191.44" style="stroke: #A80036; stroke-width: 1.0;"/><!--link AccountPartyRole to AccountServicerRole--><path d="M521.389,208.222 C510.792,229.417 497.048,256.903 489.525,271.95 " fill="none" id="AccountPartyRole-AccountServicerRole" style="stroke: #A80036; stroke-width: 1.0;"/><polygon fill="none" points="515.23,204.888,530.435,190.13,527.752,211.149,515.23,204.888" style="stroke: #A80036; stroke-width: 1.0;"/><!--link AccountPartyRole to RepresentativeOfficer--><path d="M564.392,203.403 C589.6,225.069 625.277,255.734 644.144,271.95 " fill="none" id="AccountPartyRole-RepresentativeOfficer" style="stroke: #A80036; stroke-width: 1.0;"/><polygon fill="none" points="559.554,208.475,548.949,190.13,568.679,197.858,559.554,208.475" style="stroke: #A80036; stroke-width: 1.0;"/><!--link ContactPersonRole to RolePlayer--><!--link CounterpartyRisk to ContactPersonRole--><!--link Entry to CounterpartyRisk--><!--link Role to RolePlayer--><path d="M727.464,67.271 C935.584,76.218 1443,105.376 1443,177 C1443,177 1443,177 1443,375 C1443,435.4496 1236.27,452.737 1146.64,457.3913 " fill="none" id="Role-RolePlayer" style="stroke: #A80036; stroke-width: 1.0;"/><polygon fill="#A80036" points="1141.43,457.6547,1150.6238,461.1866,1146.4234,457.3976,1150.2124,453.1972,1141.43,457.6547" style="stroke: #A80036; stroke-width: 1.0;"/><text fill="#000000" font-family="sans-serif" font-size="13" lengthAdjust="spacingAndGlyphs" textLength="39" x="1444" y="288.0669">Player</text><text fill="#000000" font-family="sans-serif" font-size="13" lengthAdjust="spacingAndGlyphs" textLength="7" x="1149.8913" y="451.3671">*</text><!--link Role to ContactPersonRole--><path d="M727.506,69.37 C881.395,79.736 1187.2,104.809 1218,142 C1258.73,191.183 1194.31,279.28 1159,322 C1146.24,337.444 1127.69,350.321 1112.48,359.272 " fill="none" id="Role-ContactPersonRole" style="stroke: #A80036; stroke-width: 1.0;"/><polygon fill="#A80036" points="1107.88,361.923,1117.6745,360.8898,1112.2108,359.4242,1113.6764,353.9605,1107.88,361.923" style="stroke: #A80036; stroke-width: 1.0;"/><text fill="#000000" font-family="sans-serif" font-size="13" lengthAdjust="spacingAndGlyphs" textLength="121" x="1224" y="233.0669">ContactPersonRole</text><text fill="#000000" font-family="sans-serif" font-size="13" lengthAdjust="spacingAndGlyphs" textLength="8" x="1104.6825" y="350.9447">1</text><!--link Role to CounterpartyRisk--><path d="M727.408,67.134 C841.724,73.236 1032.8,90.981 1078,142 C1108.92,176.898 1098.32,237.753 1090.82,266.745 " fill="none" id="Role-CounterpartyRisk" style="stroke: #A80036; stroke-width: 1.0;"/><polygon fill="#A80036" points="1089.47,271.774,1095.6701,264.1216,1090.7685,266.9456,1087.9446,262.044,1089.47,271.774" style="stroke: #A80036; stroke-width: 1.0;"/><text fill="#000000" font-family="sans-serif" font-size="13" lengthAdjust="spacingAndGlyphs" textLength="109" x="1099" y="182.0669">CounterpartyRisk</text><text fill="#000000" font-family="sans-serif" font-size="13" lengthAdjust="spacingAndGlyphs" textLength="24" x="1061.2304" y="261.0026">0..1</text><!--link Role to Entry--><path d="M716.559,85.52 C808.992,111.503 959.31,153.756 1017.72,170.174 " fill="none" id="Role-Entry" style="stroke: #A80036; stroke-width: 1.0;"/><polygon fill="#A80036" points="1022.75,171.588,1015.1734,165.2955,1017.9377,170.231,1013.0022,172.9953,1022.75,171.588" style="stroke: #A80036; stroke-width: 1.0;"/><text fill="#000000" font-family="sans-serif" font-size="13" lengthAdjust="spacingAndGlyphs" textLength="33" x="890" y="129.0669">Entry</text><text fill="#000000" font-family="sans-serif" font-size="13" lengthAdjust="spacingAndGlyphs" textLength="8" x="1006.9297" y="163.484">1</text><!--link AccountPartyRole to Account--><path d="M577.846,190.071 C620.431,201.893 687.961,222.181 744,246 C759.709,252.677 776.61,261.707 789.753,269.174 " fill="none" id="AccountPartyRole-Account" style="stroke: #A80036; stroke-width: 1.0;"/><polygon fill="#A80036" points="794.416,271.847,788.5973,263.9007,790.0782,269.3603,784.6186,270.8412,794.416,271.847" style="stroke: #A80036; stroke-width: 1.0;"/><text fill="#000000" font-family="sans-serif" font-size="13" lengthAdjust="spacingAndGlyphs" textLength="52" x="724" y="233.0669">Account</text><text fill="#000000" font-family="sans-serif" font-size="13" lengthAdjust="spacingAndGlyphs" textLength="7" x="778.3949" y="260.8426">*</text><!--link Entry to Account--><path d="M1022.87,187.688 C982.754,205.907 889.622,248.202 842.07,269.798 " fill="none" id="Entry-Account" style="stroke: #A80036; stroke-width: 1.0;"/><polygon fill="#A80036" points="837.336,271.948,847.1845,271.8694,841.8887,269.8809,843.8772,264.5851,837.336,271.948" style="stroke: #A80036; stroke-width: 1.0;"/><text fill="#000000" font-family="sans-serif" font-size="13" lengthAdjust="spacingAndGlyphs" textLength="52" x="950" y="233.0669">Account</text><text fill="#000000" font-family="sans-serif" font-size="13" lengthAdjust="spacingAndGlyphs" textLength="7" x="836.0687" y="260.9783">*</text><!--link Account to Account--><path d="M841.508,275.984 C859.181,274.051 876,276.723 876,284 C876,290.538 862.424,293.359 846.85,292.463 " fill="none" id="Account-Account" style="stroke: #A80036; stroke-width: 1.0;"/><polygon fill="#A80036" points="841.508,292.016,850.1443,296.7504,846.4907,292.4317,850.8094,288.7781,841.508,292.016" style="stroke: #A80036; stroke-width: 1.0;"/><text fill="#000000" font-family="sans-serif" font-size="13" lengthAdjust="spacingAndGlyphs" textLength="94" x="882" y="288.0669">ParentAccount</text><text fill="#000000" font-family="sans-serif" font-size="13" lengthAdjust="spacingAndGlyphs" textLength="8" x="849.7741" y="287.9799">1</text></g></svg>