<?xml version="1.0" encoding="UTF-8" standalone="no"?><svg xmlns="http://www.w3.org/2000/svg" xmlns:xlink="http://www.w3.org/1999/xlink" contentScriptType="application/ecmascript" contentStyleType="text/css" height="855px" preserveAspectRatio="none" style="width:1673px;height:855px;" version="1.1" viewBox="0 0 1673 855" width="1673px" zoomAndPan="magnify"><defs><filter height="300%" id="f1kqsk45ukuevd" width="300%" x="-1" y="-1"><feGaussianBlur result="blurOut" stdDeviation="2.0"/><feColorMatrix in="blurOut" result="blurOut2" type="matrix" values="0 0 0 0 0 0 0 0 0 0 0 0 0 0 0 0 0 0 .4 0"/><feOffset dx="4.0" dy="4.0" in="blurOut2" result="blurOut3"/><feBlend in="SourceGraphic" in2="blurOut3" mode="normal"/></filter></defs><g><!--cluster ##3246--><!--cluster ##3261--><!--class Adjustment--><a target="_top" xlink:actuate="onRequest" xlink:href="../Adjustment.html" xlink:show="new" xlink:title="Modification on the value of goods and / or services. For example: rebate, discount." xlink:type="simple"><rect fill="#FEFECE" filter="url(#f1kqsk45ukuevd)" height="134.4063" id="Adjustment" style="stroke: #A80036; stroke-width: 1.5;" width="268" x="528" y="40"/><rect fill="#FEFECE" height="23.9688" style="stroke: #A80036; stroke-width: 1.5;" width="268" x="528" y="40"/><text fill="#000000" font-family="sans-serif" font-size="12" lengthAdjust="spacingAndGlyphs" textLength="71" x="626.5" y="56.1387">Adjustment</text><line style="stroke: #A80036; stroke-width: 1.5;" x1="529" x2="795" y1="63.9688" y2="63.9688"/><ellipse cx="539" cy="75.8711" fill="#84BE84" rx="3" ry="3" style="stroke: #038048; stroke-width: 1.0;"/><text fill="#000000" font-family="sans-serif" font-size="11" lengthAdjust="spacingAndGlyphs" textLength="43" x="548" y="78.1792">Amount</text><text fill="#000000" font-family="sans-serif" font-size="11" font-style="italic" lengthAdjust="spacingAndGlyphs" textLength="126" x="595" y="78.1792">(CurrencyAndAmount)</text><ellipse cx="539" cy="88.6758" fill="#84BE84" rx="3" ry="3" style="stroke: #038048; stroke-width: 1.0;"/><text fill="#000000" font-family="sans-serif" font-size="11" lengthAdjust="spacingAndGlyphs" textLength="66" x="548" y="90.9839">ChargeRate</text><text fill="#000000" font-family="sans-serif" font-size="11" font-style="italic" lengthAdjust="spacingAndGlyphs" textLength="98" x="618" y="90.9839">(PercentageRate)</text><ellipse cx="539" cy="101.4805" fill="#84BE84" rx="3" ry="3" style="stroke: #038048; stroke-width: 1.0;"/><text fill="#000000" font-family="sans-serif" font-size="11" lengthAdjust="spacingAndGlyphs" textLength="103" x="548" y="103.7886">CalculationMethod</text><text fill="#000000" font-family="sans-serif" font-size="11" font-style="italic" lengthAdjust="spacingAndGlyphs" textLength="116" x="655" y="103.7886">(TaxationBasisCode)</text><ellipse cx="539" cy="114.2852" fill="#84BE84" rx="3" ry="3" style="stroke: #038048; stroke-width: 1.0;"/><text fill="#000000" font-family="sans-serif" font-size="11" lengthAdjust="spacingAndGlyphs" textLength="50" x="548" y="116.5933">Direction</text><text fill="#000000" font-family="sans-serif" font-size="11" font-style="italic" lengthAdjust="spacingAndGlyphs" textLength="151" x="602" y="116.5933">(AdjustmentDirectionCode)</text><ellipse cx="539" cy="127.0898" fill="#84BE84" rx="3" ry="3" style="stroke: #038048; stroke-width: 1.0;"/><text fill="#000000" font-family="sans-serif" font-size="11" lengthAdjust="spacingAndGlyphs" textLength="42" x="548" y="129.3979">Reason</text><text fill="#000000" font-family="sans-serif" font-size="11" font-style="italic" lengthAdjust="spacingAndGlyphs" textLength="142" x="594" y="129.3979">(Max4AlphaNumericText)</text><ellipse cx="539" cy="139.8945" fill="#84BE84" rx="3" ry="3" style="stroke: #038048; stroke-width: 1.0;"/><text fill="#000000" font-family="sans-serif" font-size="11" lengthAdjust="spacingAndGlyphs" textLength="146" x="548" y="142.2026">AllowanceChargeIndicator</text><text fill="#000000" font-family="sans-serif" font-size="11" font-style="italic" lengthAdjust="spacingAndGlyphs" textLength="92" x="698" y="142.2026">(YesNoIndicator)</text><ellipse cx="539" cy="152.6992" fill="#84BE84" rx="3" ry="3" style="stroke: #038048; stroke-width: 1.0;"/><text fill="#000000" font-family="sans-serif" font-size="11" lengthAdjust="spacingAndGlyphs" textLength="90" x="548" y="155.0073">ChargeIndicator</text><text fill="#000000" font-family="sans-serif" font-size="11" font-style="italic" lengthAdjust="spacingAndGlyphs" textLength="92" x="642" y="155.0073">(YesNoIndicator)</text><ellipse cx="539" cy="165.5039" fill="#84BE84" rx="3" ry="3" style="stroke: #038048; stroke-width: 1.0;"/><text fill="#000000" font-family="sans-serif" font-size="11" lengthAdjust="spacingAndGlyphs" textLength="27" x="548" y="167.812">Type</text><text fill="#000000" font-family="sans-serif" font-size="11" font-style="italic" lengthAdjust="spacingAndGlyphs" textLength="129" x="579" y="167.812">(AdjustmentTypeCode)</text></a><!--class Commission--><a target="_top" xlink:actuate="onRequest" xlink:href="../Commission.html" xlink:show="new" xlink:title="Amount of money due to a party as compensation for a service." xlink:type="simple"><rect fill="#FEFEEE" filter="url(#f1kqsk45ukuevd)" height="23.9688" id="Commission" style="stroke: #A80036; stroke-width: 1.5;" width="80" x="423" y="252"/><rect fill="#FEFEEE" height="23.9688" style="stroke: #A80036; stroke-width: 1.5;" width="80" x="423" y="252"/><text fill="#000000" font-family="sans-serif" font-size="12" lengthAdjust="spacingAndGlyphs" textLength="74" x="426" y="268.1387">Commission</text></a><!--class Charges--><a target="_top" xlink:actuate="onRequest" xlink:href="../Charges.html" xlink:show="new" xlink:title="Amount of money associated with a service." xlink:type="simple"><rect fill="#FEFEEE" filter="url(#f1kqsk45ukuevd)" height="23.9688" id="Charges" style="stroke: #A80036; stroke-width: 1.5;" width="58" x="538.5" y="252"/><rect fill="#FEFEEE" height="23.9688" style="stroke: #A80036; stroke-width: 1.5;" width="58" x="538.5" y="252"/><text fill="#000000" font-family="sans-serif" font-size="12" lengthAdjust="spacingAndGlyphs" textLength="52" x="541.5" y="268.1387">Charges</text></a><!--class Discount--><a target="_top" xlink:actuate="onRequest" xlink:href="../Discount.html" xlink:show="new" xlink:title="Decrease of the value of goods and / or services by applying a discount rate to the original amount." xlink:type="simple"><rect fill="#FEFEEE" filter="url(#f1kqsk45ukuevd)" height="23.9688" id="Discount" style="stroke: #A80036; stroke-width: 1.5;" width="61" x="631.75" y="252"/><rect fill="#FEFEEE" height="23.9688" style="stroke: #A80036; stroke-width: 1.5;" width="61" x="631.75" y="252"/><text fill="#000000" font-family="sans-serif" font-size="12" lengthAdjust="spacingAndGlyphs" textLength="55" x="634.75" y="268.1387">Discount</text></a><!--class Allowance--><a target="_top" xlink:actuate="onRequest" xlink:href="../Allowance.html" xlink:show="new" xlink:title="Amount of money deducted from a price or an amount due." xlink:type="simple"><rect fill="#FEFEEE" filter="url(#f1kqsk45ukuevd)" height="23.9688" id="Allowance" style="stroke: #A80036; stroke-width: 1.5;" width="68" x="728" y="252"/><rect fill="#FEFEEE" height="23.9688" style="stroke: #A80036; stroke-width: 1.5;" width="68" x="728" y="252"/><text fill="#000000" font-family="sans-serif" font-size="12" lengthAdjust="spacingAndGlyphs" textLength="62" x="731" y="268.1387">Allowance</text></a><!--class Payment--><a target="_top" xlink:actuate="onRequest" xlink:href="../Payment.html" xlink:show="new" xlink:title="Payment information and processes required to transfer cash end to end from the debtor to the creditor." xlink:type="simple"><rect fill="#EEEEEE" filter="url(#f1kqsk45ukuevd)" height="23.9688" id="Payment" style="stroke: #A80036; stroke-width: 1.5;" width="60" x="80.5" y="95"/><rect fill="#EEEEEE" height="23.9688" style="stroke: #A80036; stroke-width: 1.5;" width="60" x="80.5" y="95"/><text fill="#000000" font-family="sans-serif" font-size="12" lengthAdjust="spacingAndGlyphs" textLength="54" x="83.5" y="111.1387">Payment</text></a><!--class LineItem--><a target="_top" xlink:actuate="onRequest" xlink:href="../LineItem.html" xlink:show="new" xlink:title="Unit of information  showing the related  provision of products and/or services and monetary summations reported as a discrete line item." xlink:type="simple"><rect fill="#EEEEEE" filter="url(#f1kqsk45ukuevd)" height="23.9688" id="LineItem" style="stroke: #A80036; stroke-width: 1.5;" width="58" x="309.5" y="818"/><rect fill="#EEEEEE" height="23.9688" style="stroke: #A80036; stroke-width: 1.5;" width="58" x="309.5" y="818"/><text fill="#000000" font-family="sans-serif" font-size="12" lengthAdjust="spacingAndGlyphs" textLength="52" x="312.5" y="834.1387">LineItem</text></a><!--class Price--><a target="_top" xlink:actuate="onRequest" xlink:href="../Price.html" xlink:show="new" xlink:title="Amount of money for which goods, services or assets are offered, sold, or bought." xlink:type="simple"><rect fill="#EEEEEE" filter="url(#f1kqsk45ukuevd)" height="23.9688" id="Price" style="stroke: #A80036; stroke-width: 1.5;" width="37" x="319.75" y="732"/><rect fill="#EEEEEE" height="23.9688" style="stroke: #A80036; stroke-width: 1.5;" width="37" x="319.75" y="732"/><text fill="#000000" font-family="sans-serif" font-size="12" lengthAdjust="spacingAndGlyphs" textLength="31" x="322.75" y="748.1387">Price</text></a><!--class CollateralManagement--><a target="_top" xlink:actuate="onRequest" xlink:href="../CollateralManagement.html" xlink:show="new" xlink:title="Set of operations relative to the management of collateral, variation margins, default fund participation and independent amount." xlink:type="simple"><rect fill="#EEEEEE" filter="url(#f1kqsk45ukuevd)" height="23.9688" id="CollateralManagement" style="stroke: #A80036; stroke-width: 1.5;" width="147" x="219.75" y="646"/><rect fill="#EEEEEE" height="23.9688" style="stroke: #A80036; stroke-width: 1.5;" width="147" x="219.75" y="646"/><text fill="#000000" font-family="sans-serif" font-size="12" lengthAdjust="spacingAndGlyphs" textLength="141" x="222.75" y="662.1387">CollateralManagement</text></a><!--class Balance--><a target="_top" xlink:actuate="onRequest" xlink:href="../Balance.html" xlink:show="new" xlink:title="Numerical representation of the net increases and decreases in an account at a specific point in time." xlink:type="simple"><rect fill="#EEEEEE" filter="url(#f1kqsk45ukuevd)" height="23.9688" id="Balance" style="stroke: #A80036; stroke-width: 1.5;" width="56" x="284.5" y="560"/><rect fill="#EEEEEE" height="23.9688" style="stroke: #A80036; stroke-width: 1.5;" width="56" x="284.5" y="560"/><text fill="#000000" font-family="sans-serif" font-size="12" lengthAdjust="spacingAndGlyphs" textLength="50" x="287.5" y="576.1387">Balance</text></a><!--class ChargePartyRole--><a target="_top" xlink:actuate="onRequest" xlink:href="../ChargePartyRole.html" xlink:show="new" xlink:title="Role played by a party in the context of a paymentof charges." xlink:type="simple"><rect fill="#EEEEEE" filter="url(#f1kqsk45ukuevd)" height="23.9688" id="ChargePartyRole" style="stroke: #A80036; stroke-width: 1.5;" width="110" x="257" y="458"/><rect fill="#EEEEEE" height="23.9688" style="stroke: #A80036; stroke-width: 1.5;" width="110" x="257" y="458"/><text fill="#000000" font-family="sans-serif" font-size="12" lengthAdjust="spacingAndGlyphs" textLength="104" x="260" y="474.1387">ChargePartyRole</text></a><!--class DateTimePeriod--><a target="_top" xlink:actuate="onRequest" xlink:href="../DateTimePeriod.html" xlink:show="new" xlink:title="Time span defined by a start date and time, and an end date and time." xlink:type="simple"><rect fill="#EEEEEE" filter="url(#f1kqsk45ukuevd)" height="23.9688" id="DateTimePeriod" style="stroke: #A80036; stroke-width: 1.5;" width="105" x="259.75" y="356"/><rect fill="#EEEEEE" height="23.9688" style="stroke: #A80036; stroke-width: 1.5;" width="105" x="259.75" y="356"/><text fill="#000000" font-family="sans-serif" font-size="12" lengthAdjust="spacingAndGlyphs" textLength="99" x="262.75" y="372.1387">DateTimePeriod</text></a><!--class CurrencyExchange--><a target="_top" xlink:actuate="onRequest" xlink:href="../CurrencyExchange.html" xlink:show="new" xlink:title="Information needed to process a currency exchange or conversion." xlink:type="simple"><rect fill="#EEEEEE" filter="url(#f1kqsk45ukuevd)" height="23.9688" id="CurrencyExchange" style="stroke: #A80036; stroke-width: 1.5;" width="122" x="245" y="252"/><rect fill="#EEEEEE" height="23.9688" style="stroke: #A80036; stroke-width: 1.5;" width="122" x="245" y="252"/><text fill="#000000" font-family="sans-serif" font-size="12" lengthAdjust="spacingAndGlyphs" textLength="116" x="248" y="268.1387">CurrencyExchange</text></a><!--class SecuritiesOrder--><a target="_top" xlink:actuate="onRequest" xlink:href="../SecuritiesOrder.html" xlink:show="new" xlink:title="Intention to transfer an ownership of a financial instrument." xlink:type="simple"><rect fill="#EEEEEE" filter="url(#f1kqsk45ukuevd)" height="23.9688" id="SecuritiesOrder" style="stroke: #A80036; stroke-width: 1.5;" width="103" x="118.75" y="458"/><rect fill="#EEEEEE" height="23.9688" style="stroke: #A80036; stroke-width: 1.5;" width="103" x="118.75" y="458"/><text fill="#000000" font-family="sans-serif" font-size="12" lengthAdjust="spacingAndGlyphs" textLength="97" x="121.75" y="474.1387">SecuritiesOrder</text></a><!--class Tax--><a target="_top" xlink:actuate="onRequest" xlink:href="../Tax.html" xlink:show="new" xlink:title="Amount of money due to the government or tax authority, according to various pre-defined parameters such as thresholds or income." xlink:type="simple"><rect fill="#EEEEEE" filter="url(#f1kqsk45ukuevd)" height="23.9688" id="Tax" style="stroke: #A80036; stroke-width: 1.5;" width="27" x="157.75" y="356"/><rect fill="#EEEEEE" height="23.9688" style="stroke: #A80036; stroke-width: 1.5;" width="27" x="157.75" y="356"/><text fill="#000000" font-family="sans-serif" font-size="12" lengthAdjust="spacingAndGlyphs" textLength="21" x="160.75" y="372.1387">Tax</text></a><!--link Adjustment to Commission--><path d="M560.877,186.764 C527.884,212.463 495.129,237.975 477.127,251.996 " fill="none" id="Adjustment-Commission" style="stroke: #A80036; stroke-width: 1.0;"/><polygon fill="none" points="556.949,180.951,577.029,174.184,565.552,191.996,556.949,180.951" style="stroke: #A80036; stroke-width: 1.0;"/><!--link Adjustment to Charges--><path d="M610.936,191.316 C596.151,215.438 581.83,238.804 573.744,251.996 " fill="none" id="Adjustment-Charges" style="stroke: #A80036; stroke-width: 1.0;"/><polygon fill="none" points="605.016,187.578,621.436,174.184,616.953,194.894,605.016,187.578" style="stroke: #A80036; stroke-width: 1.0;"/><!--link Adjustment to Discount--><path d="M662,194.457 C662,217.45 662,239.377 662,251.996 " fill="none" id="Adjustment-Discount" style="stroke: #A80036; stroke-width: 1.0;"/><polygon fill="none" points="655,194.184,662,174.184,669,194.184,655,194.184" style="stroke: #A80036; stroke-width: 1.0;"/><!--link Adjustment to Allowance--><path d="M715.752,191.316 C731.315,215.438 746.39,238.804 754.901,251.996 " fill="none" id="Adjustment-Allowance" style="stroke: #A80036; stroke-width: 1.0;"/><polygon fill="none" points="709.66,194.784,704.699,174.184,721.424,187.195,709.66,194.784" style="stroke: #A80036; stroke-width: 1.0;"/><!--link LineItem to Payment--><!--link Price to LineItem--><!--link CollateralManagement to Price--><!--link Balance to CollateralManagement--><!--link ChargePartyRole to Balance--><!--link DateTimePeriod to ChargePartyRole--><!--link CurrencyExchange to DateTimePeriod--><!--link SecuritiesOrder to CurrencyExchange--><!--link Tax to SecuritiesOrder--><!--link Adjustment to Payment--><path d="M527.875,107 C401.364,107 220.232,107 144.916,107 " fill="none" id="Adjustment-Payment" style="stroke: #A80036; stroke-width: 1.0;"/><polygon fill="#A80036" points="139.678,107,148.678,111,144.678,107,148.678,103,139.678,107" style="stroke: #A80036; stroke-width: 1.0;"/><text fill="#000000" font-family="sans-serif" font-size="13" lengthAdjust="spacingAndGlyphs" textLength="57" x="304.5" y="99.0669">Payment</text><text fill="#000000" font-family="sans-serif" font-size="13" lengthAdjust="spacingAndGlyphs" textLength="7" x="148.4602" y="100.8046">*</text><!--link Adjustment to LineItem--><path d="M796.475,117.602 C1046.33,137.26 1557,186.764 1557,263 C1557,263 1557,263 1557,745 C1557,806.1424 568.063,825.2889 371.669,828.4884 " fill="none" id="Adjustment-LineItem" style="stroke: #A80036; stroke-width: 1.0;"/><polygon fill="#A80036" points="366.633,828.5697,375.6969,832.4226,371.6323,828.4883,375.5667,824.4237,366.633,828.5697" style="stroke: #A80036; stroke-width: 1.0;"/><text fill="#000000" font-family="sans-serif" font-size="13" lengthAdjust="spacingAndGlyphs" textLength="103" x="1558" y="525.0669">RelatedLineItem</text><text fill="#000000" font-family="sans-serif" font-size="13" lengthAdjust="spacingAndGlyphs" textLength="24" x="375.4121" y="841.9823">0..1</text><!--link Adjustment to Price--><path d="M796.108,108.067 C1051.63,114.267 1573.29,159.327 1461,428 C1422.95,519.05 1387.63,533.253 1303,584 C1136.03,684.117 493.851,732.454 361.817,741.441 " fill="none" id="Adjustment-Price" style="stroke: #A80036; stroke-width: 1.0;"/><polygon fill="#A80036" points="356.623,741.792,365.8722,745.176,361.6116,741.4549,365.3328,737.1942,356.623,741.792" style="stroke: #A80036; stroke-width: 1.0;"/><text fill="#000000" font-family="sans-serif" font-size="13" lengthAdjust="spacingAndGlyphs" textLength="31" x="1447" y="474.0669">Price</text><text fill="#000000" font-family="sans-serif" font-size="13" lengthAdjust="spacingAndGlyphs" textLength="24" x="364.7857" y="735.0032">0..1</text><!--link Adjustment to CollateralManagement--><path d="M796.085,116.498 C944.202,128.238 1170.94,153.9 1240,204 C1308.57,253.741 1330.73,524.947 1270,584 C1206.14,646.097 592.632,655.448 371.749,656.796 " fill="none" id="Adjustment-CollateralManagement" style="stroke: #A80036; stroke-width: 1.0;"/><polygon fill="#A80036" points="366.605,656.826,375.6288,660.7719,371.6049,656.796,375.5808,652.7721,366.605,656.826" style="stroke: #A80036; stroke-width: 1.0;"/><text fill="#000000" font-family="sans-serif" font-size="13" lengthAdjust="spacingAndGlyphs" textLength="145" x="1306" y="423.0669">CollateralManagement</text><text fill="#000000" font-family="sans-serif" font-size="13" lengthAdjust="spacingAndGlyphs" textLength="8" x="374.5822" y="651.9037">1</text><!--link Adjustment to Balance--><path d="M796.051,112.902 C994.49,125.369 1331.7,169.534 1221,326 C1167.71,401.318 501.255,534.373 344.745,564.72 " fill="none" id="Adjustment-Balance" style="stroke: #A80036; stroke-width: 1.0;"/><polygon fill="#A80036" points="339.828,565.672,349.4241,567.889,344.7369,564.7219,347.904,560.0348,339.828,565.672" style="stroke: #A80036; stroke-width: 1.0;"/><text fill="#000000" font-family="sans-serif" font-size="13" lengthAdjust="spacingAndGlyphs" textLength="107" x="1174" y="372.0669">AdjustedBalance</text><text fill="#000000" font-family="sans-serif" font-size="13" lengthAdjust="spacingAndGlyphs" textLength="8" x="348.639" y="557.5916">1</text><!--link Adjustment to ChargePartyRole--><path d="M796.074,134.653 C908.134,163.385 1041.02,216.561 983,300 C912.639,401.192 523.986,448.741 372.486,463.629 " fill="none" id="Adjustment-ChargePartyRole" style="stroke: #A80036; stroke-width: 1.0;"/><polygon fill="#A80036" points="367.198,464.145,376.544,467.2519,372.1744,463.6594,375.7669,459.2898,367.198,464.145" style="stroke: #A80036; stroke-width: 1.0;"/><text fill="#000000" font-family="sans-serif" font-size="13" lengthAdjust="spacingAndGlyphs" textLength="113" x="977" y="321.0669">ChargesPartyRole</text><text fill="#000000" font-family="sans-serif" font-size="13" lengthAdjust="spacingAndGlyphs" textLength="7" x="375.0855" y="458.294">*</text><!--link Adjustment to DateTimePeriod--><path d="M765.982,174.177 C812.433,211.804 849.564,259.374 814,300 C785.046,333.075 494.998,355.361 369.439,363.53 " fill="none" id="Adjustment-DateTimePeriod" style="stroke: #A80036; stroke-width: 1.0;"/><polygon fill="#A80036" points="364.314,363.862,373.5535,367.2724,369.3036,363.5391,373.0369,359.2891,364.314,363.862" style="stroke: #A80036; stroke-width: 1.0;"/><text fill="#000000" font-family="sans-serif" font-size="13" lengthAdjust="spacingAndGlyphs" textLength="94" x="829" y="268.0669">EffectivePeriod</text><text fill="#000000" font-family="sans-serif" font-size="13" lengthAdjust="spacingAndGlyphs" textLength="8" x="372.8988" y="358.0063">1</text><!--link Adjustment to CurrencyExchange--><path d="M527.906,146.046 C481.999,161.339 431.119,180.88 387,204 C363.195,216.475 338.626,235.377 322.882,248.408 " fill="none" id="Adjustment-CurrencyExchange" style="stroke: #A80036; stroke-width: 1.0;"/><polygon fill="#A80036" points="318.683,251.918,328.1538,249.2154,322.5194,248.7115,323.0233,243.0771,318.683,251.918" style="stroke: #A80036; stroke-width: 1.0;"/><text fill="#000000" font-family="sans-serif" font-size="13" lengthAdjust="spacingAndGlyphs" textLength="119" x="388" y="217.0669">CurrencyExchange</text><text fill="#000000" font-family="sans-serif" font-size="13" lengthAdjust="spacingAndGlyphs" textLength="8" x="312.324" y="240.938">1</text><!--link Adjustment to SecuritiesOrder--><path d="M796.266,126.02 C957.959,153.099 1196.54,213.532 1100,326 C973.923,472.879 430.245,428.096 239,458 C234.951,458.633 230.77,459.291 226.561,459.955 " fill="none" id="Adjustment-SecuritiesOrder" style="stroke: #A80036; stroke-width: 1.0;"/><polygon fill="#A80036" points="221.613,460.737,231.1268,463.284,226.5518,459.957,229.8788,455.3819,221.613,460.737" style="stroke: #A80036; stroke-width: 1.0;"/><text fill="#000000" font-family="sans-serif" font-size="13" lengthAdjust="spacingAndGlyphs" textLength="99" x="1112" y="321.0669">SecuritiesOrder</text><text fill="#000000" font-family="sans-serif" font-size="13" lengthAdjust="spacingAndGlyphs" textLength="8" x="229.7444" y="454.207">1</text><!--link Adjustment to Tax--><path d="M796.413,148.012 C890.901,182.714 990.952,237.162 933,300 C880.778,356.625 318.5,346.986 242,356 C224.016,358.119 203.597,361.372 189.288,363.792 " fill="none" id="Adjustment-Tax" style="stroke: #A80036; stroke-width: 1.0;"/><polygon fill="#A80036" points="184.308,364.642,193.8528,367.0703,189.2367,363.8006,192.5065,359.1844,184.308,364.642" style="stroke: #A80036; stroke-width: 1.0;"/><text fill="#000000" font-family="sans-serif" font-size="13" lengthAdjust="spacingAndGlyphs" textLength="22" x="951" y="268.0669">Tax</text><text fill="#000000" font-family="sans-serif" font-size="13" lengthAdjust="spacingAndGlyphs" textLength="24" x="192.6085" y="356.8081">0..1</text><!--link Charges to LineItem--><path d="M552.32,276.225 C543.12,283.186 530.967,292.25 520,300 C476.31,330.875 420,313.502 420,367 C420,367 420,367 420,745 C420,777.0402 389.074,801.4074 365.207,815.4422 " fill="none" id="Charges-LineItem" style="stroke: #A80036; stroke-width: 1.0;"/><polygon fill="#A80036" points="360.842,817.942,370.6399,816.9415,365.1811,815.4576,366.6649,809.9989,360.842,817.942" style="stroke: #A80036; stroke-width: 1.0;"/><text fill="#000000" font-family="sans-serif" font-size="13" lengthAdjust="spacingAndGlyphs" textLength="156" x="421" y="576.0669">LogisticsChargeLineItem</text><text fill="#000000" font-family="sans-serif" font-size="13" lengthAdjust="spacingAndGlyphs" textLength="24" x="339.0533" y="806.9703">0..1</text><!--link Charges to LineItem--><path d="M579.099,276.172 C601.909,297.748 649,344.96 649,367 C649,367 649,367 649,745 C649,801.9153 452.418,821.4262 371.837,827.0332 " fill="none" id="Charges-LineItem" style="stroke: #A80036; stroke-width: 1.0;"/><polygon fill="#A80036" points="366.701,827.3826,375.9522,830.7613,371.6894,827.0426,375.4082,822.7799,366.701,827.3826" style="stroke: #A80036; stroke-width: 1.0;"/><text fill="#000000" font-family="sans-serif" font-size="13" lengthAdjust="spacingAndGlyphs" textLength="55" x="650" y="576.0669">LineItem</text><text fill="#000000" font-family="sans-serif" font-size="13" lengthAdjust="spacingAndGlyphs" textLength="8" x="375.355" y="820.4837">1</text><!--link Charges to LineItem--><path d="M579.291,276.259 C588.3,283.961 601.152,293.852 614,300 C626.835,306.142 633.586,299.503 645,308 C664.993,322.884 664.966,332.77 674,356 C738.438,521.689 773.994,608.334 675,756 C661.335,776.3845 652.801,778.924 630,788 C541.534,823.2136 427.475,828.901 371.714,829.3785 " fill="none" id="Charges-LineItem" style="stroke: #A80036; stroke-width: 1.0;"/><polygon fill="#A80036" points="366.503,829.4093,375.5268,833.3552,371.5029,829.3793,375.4788,825.3554,366.503,829.4093" style="stroke: #A80036; stroke-width: 1.0;"/><text fill="#000000" font-family="sans-serif" font-size="13" lengthAdjust="spacingAndGlyphs" textLength="155" x="738" y="576.0669">NetPriceChargeLineItem</text><text fill="#000000" font-family="sans-serif" font-size="13" lengthAdjust="spacingAndGlyphs" textLength="24" x="375.2537" y="823.5055">0..1</text><!--link Payment to Tax--><path d="M109.129,119.219 C107.174,149.42 104.246,234.574 127,300 C133.735,319.367 147.293,338.635 157.589,351.503 " fill="none" id="Payment-Tax" style="stroke: #A80036; stroke-width: 1.0;"/><polygon fill="#A80036" points="160.941,355.612,158.3501,346.11,157.7799,351.7381,152.1518,351.1678,160.941,355.612" style="stroke: #A80036; stroke-width: 1.0;"/><text fill="#000000" font-family="sans-serif" font-size="13" lengthAdjust="spacingAndGlyphs" textLength="97" x="128" y="268.0669">TaxOnPayment</text><text fill="#000000" font-family="sans-serif" font-size="13" lengthAdjust="spacingAndGlyphs" textLength="7" x="148.2206" y="345.047">*</text><!--link Payment to CurrencyExchange--><path d="M118.016,119.063 C134.451,141.109 174.056,191.057 217,222 C233.023,233.545 252.815,243.05 269.663,249.992 " fill="none" id="Payment-CurrencyExchange" style="stroke: #A80036; stroke-width: 1.0;"/><polygon fill="#A80036" points="274.332,251.881,267.4902,244.7966,269.6972,250.0051,264.4887,252.2122,274.332,251.881" style="stroke: #A80036; stroke-width: 1.0;"/><text fill="#000000" font-family="sans-serif" font-size="13" lengthAdjust="spacingAndGlyphs" textLength="119" x="218" y="217.0669">CurrencyExchange</text><text fill="#000000" font-family="sans-serif" font-size="13" lengthAdjust="spacingAndGlyphs" textLength="7" x="253.8993" y="240.8883">*</text><!--link Payment to Payment--><path d="M123.828,94.889 C145.833,81.432 174,85.469 174,107 C174,127.101 149.45,131.955 128.283,121.561 " fill="none" id="Payment-Payment" style="stroke: #A80036; stroke-width: 1.0;"/><polygon fill="#A80036" points="123.828,119.111,129.786,126.9534,128.209,121.5208,133.6416,119.9438,123.828,119.111" style="stroke: #A80036; stroke-width: 1.0;"/><text fill="#000000" font-family="sans-serif" font-size="13" lengthAdjust="spacingAndGlyphs" textLength="105" x="180" y="111.0669">OriginalPayment</text><text fill="#000000" font-family="sans-serif" font-size="13" lengthAdjust="spacingAndGlyphs" textLength="8" x="118.1072" y="138.932">1</text><!--link CurrencyExchange to Tax--><path d="M280.495,276.07 C263.084,283.397 239.385,292.923 218,300 C204.899,304.335 197.854,298.34 188,308 C176.677,319.1 172.773,337.22 171.489,350.455 " fill="none" id="CurrencyExchange-Tax" style="stroke: #A80036; stroke-width: 1.0;"/><polygon fill="#A80036" points="171.085,355.793,175.7525,347.1204,171.4621,350.8072,167.7753,346.5169,171.085,355.793" style="stroke: #A80036; stroke-width: 1.0;"/><text fill="#000000" font-family="sans-serif" font-size="13" lengthAdjust="spacingAndGlyphs" textLength="22" x="189" y="321.0669">Tax</text><text fill="#000000" font-family="sans-serif" font-size="13" lengthAdjust="spacingAndGlyphs" textLength="8" x="160.3741" y="345.0279">1</text></g></svg>