<?xml version="1.0" encoding="UTF-8" standalone="no"?><svg xmlns="http://www.w3.org/2000/svg" xmlns:xlink="http://www.w3.org/1999/xlink" contentScriptType="application/ecmascript" contentStyleType="text/css" height="498px" preserveAspectRatio="none" style="width:1097px;height:498px;" version="1.1" viewBox="0 0 1097 498" width="1097px" zoomAndPan="magnify"><defs><filter height="300%" id="f5r56jdg6fu6g" width="300%" x="-1" y="-1"><feGaussianBlur result="blurOut" stdDeviation="2.0"/><feColorMatrix in="blurOut" result="blurOut2" type="matrix" values="0 0 0 0 0 0 0 0 0 0 0 0 0 0 0 0 0 0 .4 0"/><feOffset dx="4.0" dy="4.0" in="blurOut2" result="blurOut3"/><feBlend in="SourceGraphic" in2="blurOut3" mode="normal"/></filter></defs><g><!--cluster ##3813--><!--cluster ##3831--><!--cluster ##3840--><!--class Role--><a target="_top" xlink:actuate="onRequest" xlink:href="../Role.html" xlink:show="new" xlink:title="Role of a party in an activity." xlink:type="simple"><rect fill="#FEFEEE" filter="url(#f5r56jdg6fu6g)" height="44.7734" id="Role" style="stroke: #A80036; stroke-width: 1.5;" width="175" x="372.75" y="40.5"/><rect fill="#FEFEEE" height="23.9688" style="stroke: #A80036; stroke-width: 1.5;" width="175" x="372.75" y="40.5"/><text fill="#000000" font-family="sans-serif" font-size="12" lengthAdjust="spacingAndGlyphs" textLength="27" x="446.75" y="56.6387">Role</text><line style="stroke: #A80036; stroke-width: 1.5;" x1="373.75" x2="546.75" y1="64.4688" y2="64.4688"/><ellipse cx="383.75" cy="76.3711" fill="#84BE84" rx="3" ry="3" style="stroke: #038048; stroke-width: 1.0;"/><text fill="#000000" font-family="sans-serif" font-size="11" lengthAdjust="spacingAndGlyphs" textLength="53" x="392.75" y="78.6792">PartyRole</text><text fill="#000000" font-family="sans-serif" font-size="11" font-style="italic" lengthAdjust="spacingAndGlyphs" textLength="92" x="449.75" y="78.6792">(PartyRoleCode)</text></a><!--class CardPaymentPartyRole--><a target="_top" xlink:actuate="onRequest" xlink:href="../CardPaymentPartyRole.html" xlink:show="new" xlink:title="Role played by a party in the context of a payment by card." xlink:type="simple"><rect fill="#FEFECE" filter="url(#f5r56jdg6fu6g)" height="44.7734" id="CardPaymentPartyRole" style="stroke: #A80036; stroke-width: 1.5;" width="181" x="314.75" y="164.5"/><rect fill="#FEFECE" height="23.9688" style="stroke: #A80036; stroke-width: 1.5;" width="181" x="314.75" y="164.5"/><text fill="#000000" font-family="sans-serif" font-size="12" lengthAdjust="spacingAndGlyphs" textLength="142" x="334.25" y="180.6387">CardPaymentPartyRole</text><line style="stroke: #A80036; stroke-width: 1.5;" x1="315.75" x2="494.75" y1="188.4688" y2="188.4688"/><ellipse cx="325.75" cy="200.3711" fill="#84BE84" rx="3" ry="3" style="stroke: #038048; stroke-width: 1.0;"/><text fill="#000000" font-family="sans-serif" font-size="11" lengthAdjust="spacingAndGlyphs" textLength="56" x="334.75" y="202.6792">PartyType</text><text fill="#000000" font-family="sans-serif" font-size="11" font-style="italic" lengthAdjust="spacingAndGlyphs" textLength="95" x="394.75" y="202.6792">(PartyTypeCode)</text></a><!--class CardholderRole--><a target="_top" xlink:actuate="onRequest" xlink:href="../CardholderRole.html" xlink:show="new" xlink:title="Party entitled by a card issuer to use a card." xlink:type="simple"><rect fill="#FEFEEE" filter="url(#f5r56jdg6fu6g)" height="23.9688" id="CardholderRole" style="stroke: #A80036; stroke-width: 1.5;" width="102" x="38.5" y="290"/><rect fill="#FEFEEE" height="23.9688" style="stroke: #A80036; stroke-width: 1.5;" width="102" x="38.5" y="290"/><text fill="#000000" font-family="sans-serif" font-size="12" lengthAdjust="spacingAndGlyphs" textLength="96" x="41.5" y="306.1387">CardholderRole</text></a><!--class MerchantRole--><a target="_top" xlink:actuate="onRequest" xlink:href="../MerchantRole.html" xlink:show="new" xlink:title="Party performing the card payment transaction." xlink:type="simple"><rect fill="#FEFEEE" filter="url(#f5r56jdg6fu6g)" height="23.9688" id="MerchantRole" style="stroke: #A80036; stroke-width: 1.5;" width="92" x="175" y="290"/><rect fill="#FEFEEE" height="23.9688" style="stroke: #A80036; stroke-width: 1.5;" width="92" x="175" y="290"/><text fill="#000000" font-family="sans-serif" font-size="12" lengthAdjust="spacingAndGlyphs" textLength="86" x="178" y="306.1387">MerchantRole</text></a><!--class AcquirerRole--><a target="_top" xlink:actuate="onRequest" xlink:href="../AcquirerRole.html" xlink:show="new" xlink:title="Entity acquiring card payment transactions." xlink:type="simple"><rect fill="#FEFEEE" filter="url(#f5r56jdg6fu6g)" height="23.9688" id="AcquirerRole" style="stroke: #A80036; stroke-width: 1.5;" width="85" x="302.75" y="290"/><rect fill="#FEFEEE" height="23.9688" style="stroke: #A80036; stroke-width: 1.5;" width="85" x="302.75" y="290"/><text fill="#000000" font-family="sans-serif" font-size="12" lengthAdjust="spacingAndGlyphs" textLength="79" x="305.75" y="306.1387">AcquirerRole</text></a><!--class AuthorisationEntity--><a target="_top" xlink:actuate="onRequest" xlink:href="../AuthorisationEntity.html" xlink:show="new" xlink:title="Party which has delivered or declined the authorisation." xlink:type="simple"><rect fill="#FEFEEE" filter="url(#f5r56jdg6fu6g)" height="23.9688" id="AuthorisationEntity" style="stroke: #A80036; stroke-width: 1.5;" width="125" x="422.75" y="290"/><rect fill="#FEFEEE" height="23.9688" style="stroke: #A80036; stroke-width: 1.5;" width="125" x="422.75" y="290"/><text fill="#000000" font-family="sans-serif" font-size="12" lengthAdjust="spacingAndGlyphs" textLength="119" x="425.75" y="306.1387">AuthorisationEntity</text></a><!--class RolePlayer--><a target="_top" xlink:actuate="onRequest" xlink:href="../RolePlayer.html" xlink:show="new" xlink:title="Type of entity that plays a specific role in a specific context." xlink:type="simple"><rect fill="#EEEEEE" filter="url(#f5r56jdg6fu6g)" height="23.9688" id="RolePlayer" style="stroke: #A80036; stroke-width: 1.5;" width="71" x="906.75" y="464"/><rect fill="#EEEEEE" height="23.9688" style="stroke: #A80036; stroke-width: 1.5;" width="71" x="906.75" y="464"/><text fill="#000000" font-family="sans-serif" font-size="12" lengthAdjust="spacingAndGlyphs" textLength="65" x="909.75" y="480.1387">RolePlayer</text></a><!--class ContactPersonRole--><a target="_top" xlink:actuate="onRequest" xlink:href="../ContactPersonRole.html" xlink:show="new" xlink:title="Person to be contacted in a given organisation. In the corporate action domain (including meeting notifications) , it is the contact person at the party organising the meeting, at the issuer or at an intermediary." xlink:type="simple"><rect fill="#EEEEEE" filter="url(#f5r56jdg6fu6g)" height="23.9688" id="ContactPersonRole" style="stroke: #A80036; stroke-width: 1.5;" width="126" x="899" y="378"/><rect fill="#EEEEEE" height="23.9688" style="stroke: #A80036; stroke-width: 1.5;" width="126" x="899" y="378"/><text fill="#000000" font-family="sans-serif" font-size="12" lengthAdjust="spacingAndGlyphs" textLength="120" x="902" y="394.1387">ContactPersonRole</text></a><!--class CounterpartyRisk--><a target="_top" xlink:actuate="onRequest" xlink:href="../CounterpartyRisk.html" xlink:show="new" xlink:title="Calculation of the exposure amount that one party has vis-a-vis one counterparty or a central system, based on its credit risk." xlink:type="simple"><rect fill="#EEEEEE" filter="url(#f5r56jdg6fu6g)" height="23.9688" id="CounterpartyRisk" style="stroke: #A80036; stroke-width: 1.5;" width="113" x="911.75" y="290"/><rect fill="#EEEEEE" height="23.9688" style="stroke: #A80036; stroke-width: 1.5;" width="113" x="911.75" y="290"/><text fill="#000000" font-family="sans-serif" font-size="12" lengthAdjust="spacingAndGlyphs" textLength="107" x="914.75" y="306.1387">CounterpartyRisk</text></a><!--class Entry--><a target="_top" xlink:actuate="onRequest" xlink:href="../Entry.html" xlink:show="new" xlink:title="Posting to an account that results in an increase or decrease to a balance." xlink:type="simple"><rect fill="#EEEEEE" filter="url(#f5r56jdg6fu6g)" height="23.9688" id="Entry" style="stroke: #A80036; stroke-width: 1.5;" width="38" x="899" y="175"/><rect fill="#EEEEEE" height="23.9688" style="stroke: #A80036; stroke-width: 1.5;" width="38" x="899" y="175"/><text fill="#000000" font-family="sans-serif" font-size="12" lengthAdjust="spacingAndGlyphs" textLength="32" x="902" y="191.1387">Entry</text></a><!--class CardPayment--><a target="_top" xlink:actuate="onRequest" xlink:href="../CardPayment.html" xlink:show="new" xlink:title="Payment through an electronic money product." xlink:type="simple"><rect fill="#EEEEEE" filter="url(#f5r56jdg6fu6g)" height="23.9688" id="CardPayment" style="stroke: #A80036; stroke-width: 1.5;" width="89" x="603.75" y="290"/><rect fill="#EEEEEE" height="23.9688" style="stroke: #A80036; stroke-width: 1.5;" width="89" x="603.75" y="290"/><text fill="#000000" font-family="sans-serif" font-size="12" lengthAdjust="spacingAndGlyphs" textLength="83" x="606.75" y="306.1387">CardPayment</text></a><!--link Role to CardPaymentPartyRole--><path d="M441.941,104.058 C432.901,124.11 422.312,147.599 414.794,164.275 " fill="none" id="Role-CardPaymentPartyRole" style="stroke: #A80036; stroke-width: 1.0;"/><polygon fill="none" points="435.692,100.886,450.294,85.53,448.455,106.64,435.692,100.886" style="stroke: #A80036; stroke-width: 1.0;"/><!--link CardPaymentPartyRole to CardholderRole--><path d="M305.108,215.184 C259.326,228.715 204.744,246.373 157,266 C140.053,272.967 121.617,282.593 108.222,289.987 " fill="none" id="CardPaymentPartyRole-CardholderRole" style="stroke: #A80036; stroke-width: 1.0;"/><polygon fill="none" points="303.314,208.416,324.473,209.549,307.225,221.858,303.314,208.416" style="stroke: #A80036; stroke-width: 1.0;"/><!--link CardPaymentPartyRole to MerchantRole--><path d="M352.838,220.034 C314.726,243.44 265.309,273.789 239.132,289.865 " fill="none" id="CardPaymentPartyRole-MerchantRole" style="stroke: #A80036; stroke-width: 1.0;"/><polygon fill="none" points="349.252,214.022,369.958,209.52,356.578,225.952,349.252,214.022" style="stroke: #A80036; stroke-width: 1.0;"/><!--link CardPaymentPartyRole to AcquirerRole--><path d="M384.181,227.21 C372.43,249.341 358.599,275.389 350.913,289.865 " fill="none" id="CardPaymentPartyRole-AcquirerRole" style="stroke: #A80036; stroke-width: 1.0;"/><polygon fill="none" points="378.011,223.902,393.573,209.52,390.376,230.468,378.011,223.902" style="stroke: #A80036; stroke-width: 1.0;"/><!--link CardPaymentPartyRole to AuthorisationEntity--><path d="M431.818,225.88 C447.683,248.289 466.662,275.098 477.117,289.865 " fill="none" id="CardPaymentPartyRole-AuthorisationEntity" style="stroke: #A80036; stroke-width: 1.0;"/><polygon fill="none" points="426.079,229.888,420.236,209.52,437.505,221.799,426.079,229.888" style="stroke: #A80036; stroke-width: 1.0;"/><!--link ContactPersonRole to RolePlayer--><!--link CounterpartyRisk to ContactPersonRole--><!--link Entry to CounterpartyRisk--><!--link Role to RolePlayer--><path d="M547.64,81.553 C637.128,102.058 763,139.216 763,186 C763,186 763,186 763,391 C763,451.8572 848.842,468.7099 901.634,473.3199 " fill="none" id="Role-RolePlayer" style="stroke: #A80036; stroke-width: 1.0;"/><polygon fill="#A80036" points="906.635,473.7288,897.9919,469.0068,901.6517,473.3202,897.3382,476.98,906.635,473.7288" style="stroke: #A80036; stroke-width: 1.0;"/><text fill="#000000" font-family="sans-serif" font-size="13" lengthAdjust="spacingAndGlyphs" textLength="39" x="764" y="306.0669">Player</text><text fill="#000000" font-family="sans-serif" font-size="13" lengthAdjust="spacingAndGlyphs" textLength="7" x="891.7402" y="467.9585">*</text><!--link Role to ContactPersonRole--><path d="M547.517,67.86 C632.326,73.321 753.232,86.207 789,116 C840.411,158.822 808.673,198.359 839,258 C858.557,296.461 864.125,306.868 894,338 C907.704,352.281 925.714,365.597 939.757,375.039 " fill="none" id="Role-ContactPersonRole" style="stroke: #A80036; stroke-width: 1.0;"/><polygon fill="#A80036" points="943.978,377.842,938.6906,369.5328,939.8118,375.0774,934.2672,376.1987,943.978,377.842" style="stroke: #A80036; stroke-width: 1.0;"/><text fill="#000000" font-family="sans-serif" font-size="13" lengthAdjust="spacingAndGlyphs" textLength="121" x="840" y="253.0669">ContactPersonRole</text><text fill="#000000" font-family="sans-serif" font-size="13" lengthAdjust="spacingAndGlyphs" textLength="8" x="927.0642" y="366.8359">1</text><!--link Role to CounterpartyRisk--><path d="M547.417,64.461 C666.46,66.611 871.875,76.196 934,116 C965.42,136.131 980.361,235.531 981,240 C983.201,255.382 978.85,272.686 974.6,284.924 " fill="none" id="Role-CounterpartyRisk" style="stroke: #A80036; stroke-width: 1.0;"/><polygon fill="#A80036" points="972.805,289.839,979.6508,282.7584,974.5209,285.1427,972.1366,280.0128,972.805,289.839" style="stroke: #A80036; stroke-width: 1.0;"/><text fill="#000000" font-family="sans-serif" font-size="13" lengthAdjust="spacingAndGlyphs" textLength="109" x="976" y="191.0669">CounterpartyRisk</text><text fill="#000000" font-family="sans-serif" font-size="13" lengthAdjust="spacingAndGlyphs" textLength="24" x="944.902" y="278.8319">0..1</text><!--link Role to Entry--><path d="M547.427,66.546 C651.976,71.035 819.462,83.245 872,116 C892.13,128.55 905.283,153.528 912.178,170.001 " fill="none" id="Role-Entry" style="stroke: #A80036; stroke-width: 1.0;"/><polygon fill="#A80036" points="914.118,174.816,914.468,164.9734,912.251,170.1777,907.0466,167.9606,914.118,174.816" style="stroke: #A80036; stroke-width: 1.0;"/><text fill="#000000" font-family="sans-serif" font-size="13" lengthAdjust="spacingAndGlyphs" textLength="33" x="891" y="129.0669">Entry</text><text fill="#000000" font-family="sans-serif" font-size="13" lengthAdjust="spacingAndGlyphs" textLength="8" x="902.1758" y="164.0585">1</text><!--link CardPaymentPartyRole to CardPayment--><path d="M451.278,209.52 C500.868,232.581 578.021,268.458 619.43,287.714 " fill="none" id="CardPaymentPartyRole-CardPayment" style="stroke: #A80036; stroke-width: 1.0;"/><polygon fill="#A80036" points="624.054,289.865,617.5789,282.4439,619.5199,287.7573,614.2066,289.6984,624.054,289.865" style="stroke: #A80036; stroke-width: 1.0;"/><text fill="#000000" font-family="sans-serif" font-size="13" lengthAdjust="spacingAndGlyphs" textLength="87" x="557" y="253.0669">CardPayment</text><text fill="#000000" font-family="sans-serif" font-size="13" lengthAdjust="spacingAndGlyphs" textLength="7" x="606.1898" y="278.8668">*</text></g></svg>