<?xml version="1.0" encoding="UTF-8" standalone="no"?><svg xmlns="http://www.w3.org/2000/svg" xmlns:xlink="http://www.w3.org/1999/xlink" contentScriptType="application/ecmascript" contentStyleType="text/css" height="842px" preserveAspectRatio="none" style="width:914px;height:842px;" version="1.1" viewBox="0 0 914 842" width="914px" zoomAndPan="magnify"><defs><filter height="300%" id="f1oj6gxa6ii59b" width="300%" x="-1" y="-1"><feGaussianBlur result="blurOut" stdDeviation="2.0"/><feColorMatrix in="blurOut" result="blurOut2" type="matrix" values="0 0 0 0 0 0 0 0 0 0 0 0 0 0 0 0 0 0 .4 0"/><feOffset dx="4.0" dy="4.0" in="blurOut2" result="blurOut3"/><feBlend in="SourceGraphic" in2="blurOut3" mode="normal"/></filter></defs><g><!--cluster ##27561--><!--cluster ##27564--><!--class CardPayment--><a target="_top" xlink:actuate="onRequest" xlink:href="../CardPayment.html" xlink:show="new" xlink:title="Payment through an electronic money product." xlink:type="simple"><rect fill="#FEFECE" filter="url(#f1oj6gxa6ii59b)" height="121.6016" id="CardPayment" style="stroke: #A80036; stroke-width: 1.5;" width="377" x="248.75" y="40"/><rect fill="#FEFECE" height="23.9688" style="stroke: #A80036; stroke-width: 1.5;" width="377" x="248.75" y="40"/><text fill="#000000" font-family="sans-serif" font-size="12" lengthAdjust="spacingAndGlyphs" textLength="83" x="395.75" y="56.1387">CardPayment</text><line style="stroke: #A80036; stroke-width: 1.5;" x1="249.75" x2="624.75" y1="63.9688" y2="63.9688"/><ellipse cx="259.75" cy="75.8711" fill="#84BE84" rx="3" ry="3" style="stroke: #038048; stroke-width: 1.0;"/><text fill="#000000" font-family="sans-serif" font-size="11" lengthAdjust="spacingAndGlyphs" textLength="89" x="268.75" y="78.1792">DetailedAmount</text><text fill="#000000" font-family="sans-serif" font-size="11" font-style="italic" lengthAdjust="spacingAndGlyphs" textLength="167" x="361.75" y="78.1792">(ImpliedCurrencyAndAmount)</text><ellipse cx="259.75" cy="88.6758" fill="#84BE84" rx="3" ry="3" style="stroke: #038048; stroke-width: 1.0;"/><text fill="#000000" font-family="sans-serif" font-size="11" lengthAdjust="spacingAndGlyphs" textLength="91" x="268.75" y="90.9839">AmountQualifier</text><text fill="#000000" font-family="sans-serif" font-size="11" font-style="italic" lengthAdjust="spacingAndGlyphs" textLength="122" x="363.75" y="90.9839">(TypeOfAmountCode)</text><ellipse cx="259.75" cy="101.4805" fill="#84BE84" rx="3" ry="3" style="stroke: #038048; stroke-width: 1.0;"/><text fill="#000000" font-family="sans-serif" font-size="11" lengthAdjust="spacingAndGlyphs" textLength="119" x="268.75" y="103.7886">DetailedAmountLabel</text><text fill="#000000" font-family="sans-serif" font-size="11" font-style="italic" lengthAdjust="spacingAndGlyphs" textLength="70" x="391.75" y="103.7886">(Max35Text)</text><ellipse cx="259.75" cy="114.2852" fill="#84BE84" rx="3" ry="3" style="stroke: #038048; stroke-width: 1.0;"/><text fill="#000000" font-family="sans-serif" font-size="11" lengthAdjust="spacingAndGlyphs" textLength="118" x="268.75" y="116.5933">TransactionCategory</text><text fill="#000000" font-family="sans-serif" font-size="11" font-style="italic" lengthAdjust="spacingAndGlyphs" textLength="229" x="390.75" y="116.5933">(ExternalCardTransactionCategoryCode)</text><ellipse cx="259.75" cy="127.0898" fill="#84BE84" rx="3" ry="3" style="stroke: #038048; stroke-width: 1.0;"/><text fill="#000000" font-family="sans-serif" font-size="11" lengthAdjust="spacingAndGlyphs" textLength="99" x="268.75" y="129.3979">CashBackAmount</text><text fill="#000000" font-family="sans-serif" font-size="11" font-style="italic" lengthAdjust="spacingAndGlyphs" textLength="126" x="371.75" y="129.3979">(CurrencyAndAmount)</text><ellipse cx="259.75" cy="139.8945" fill="#84BE84" rx="3" ry="3" style="stroke: #038048; stroke-width: 1.0;"/><text fill="#000000" font-family="sans-serif" font-size="11" lengthAdjust="spacingAndGlyphs" textLength="45" x="268.75" y="142.2026">Gratuity</text><text fill="#000000" font-family="sans-serif" font-size="11" font-style="italic" lengthAdjust="spacingAndGlyphs" textLength="126" x="317.75" y="142.2026">(CurrencyAndAmount)</text><ellipse cx="259.75" cy="152.6992" fill="#84BE84" rx="3" ry="3" style="stroke: #038048; stroke-width: 1.0;"/><text fill="#000000" font-family="sans-serif" font-size="11" lengthAdjust="spacingAndGlyphs" textLength="113" x="268.75" y="155.0073">DebitCreditDirection</text><text fill="#000000" font-family="sans-serif" font-size="11" font-style="italic" lengthAdjust="spacingAndGlyphs" textLength="100" x="385.75" y="155.0073">(DebitCreditCode)</text></a><!--class PaymentCard--><a target="_top" xlink:actuate="onRequest" xlink:href="../PaymentCard.html" xlink:show="new" xlink:title="Electronic money product that provides the cardholder with a portable and specialised computer device that typically contains a microprocessor." xlink:type="simple"><rect fill="#EEEEEE" filter="url(#f1oj6gxa6ii59b)" height="23.9688" id="PaymentCard" style="stroke: #A80036; stroke-width: 1.5;" width="89" x="315.75" y="808"/><rect fill="#EEEEEE" height="23.9688" style="stroke: #A80036; stroke-width: 1.5;" width="89" x="315.75" y="808"/><text fill="#000000" font-family="sans-serif" font-size="12" lengthAdjust="spacingAndGlyphs" textLength="83" x="318.75" y="824.1387">PaymentCard</text></a><!--class Product--><a target="_top" xlink:actuate="onRequest" xlink:href="../Product.html" xlink:show="new" xlink:title="Item that is offered for sale. Products can be services or goods." xlink:type="simple"><rect fill="#EEEEEE" filter="url(#f1oj6gxa6ii59b)" height="23.9688" id="Product" style="stroke: #A80036; stroke-width: 1.5;" width="55" x="367.75" y="722"/><rect fill="#EEEEEE" height="23.9688" style="stroke: #A80036; stroke-width: 1.5;" width="55" x="367.75" y="722"/><text fill="#000000" font-family="sans-serif" font-size="12" lengthAdjust="spacingAndGlyphs" textLength="49" x="370.75" y="738.1387">Product</text></a><!--class CardPaymentAcquiring--><a target="_top" xlink:actuate="onRequest" xlink:href="../CardPaymentAcquiring.html" xlink:show="new" xlink:title="Payment processes initiated by a payment card." xlink:type="simple"><rect fill="#EEEEEE" filter="url(#f1oj6gxa6ii59b)" height="23.9688" id="CardPaymentAcquiring" style="stroke: #A80036; stroke-width: 1.5;" width="147" x="321.75" y="636"/><rect fill="#EEEEEE" height="23.9688" style="stroke: #A80036; stroke-width: 1.5;" width="147" x="321.75" y="636"/><text fill="#000000" font-family="sans-serif" font-size="12" lengthAdjust="spacingAndGlyphs" textLength="141" x="324.75" y="652.1387">CardPaymentAcquiring</text></a><!--class CardPaymentPartyRole--><a target="_top" xlink:actuate="onRequest" xlink:href="../CardPaymentPartyRole.html" xlink:show="new" xlink:title="Role played by a party in the context of a payment by card." xlink:type="simple"><rect fill="#EEEEEE" filter="url(#f1oj6gxa6ii59b)" height="23.9688" id="CardPaymentPartyRole" style="stroke: #A80036; stroke-width: 1.5;" width="148" x="319" y="550"/><rect fill="#EEEEEE" height="23.9688" style="stroke: #A80036; stroke-width: 1.5;" width="148" x="319" y="550"/><text fill="#000000" font-family="sans-serif" font-size="12" lengthAdjust="spacingAndGlyphs" textLength="142" x="322" y="566.1387">CardPaymentPartyRole</text></a><!--class CardPaymentStatus--><a target="_top" xlink:actuate="onRequest" xlink:href="../CardPaymentStatus.html" xlink:show="new" xlink:title="Status of a payment by card." xlink:type="simple"><rect fill="#EEEEEE" filter="url(#f1oj6gxa6ii59b)" height="23.9688" id="CardPaymentStatus" style="stroke: #A80036; stroke-width: 1.5;" width="130" x="328" y="448"/><rect fill="#EEEEEE" height="23.9688" style="stroke: #A80036; stroke-width: 1.5;" width="130" x="328" y="448"/><text fill="#000000" font-family="sans-serif" font-size="12" lengthAdjust="spacingAndGlyphs" textLength="124" x="331" y="464.1387">CardPaymentStatus</text></a><!--class ReconciliationTransaction--><a target="_top" xlink:actuate="onRequest" xlink:href="../ReconciliationTransaction.html" xlink:show="new" xlink:title="Totals performed during the reconciliation period, for a certain type of transaction." xlink:type="simple"><rect fill="#EEEEEE" filter="url(#f1oj6gxa6ii59b)" height="23.9688" id="ReconciliationTransaction" style="stroke: #A80036; stroke-width: 1.5;" width="167" x="304.75" y="346"/><rect fill="#EEEEEE" height="23.9688" style="stroke: #A80036; stroke-width: 1.5;" width="167" x="304.75" y="346"/><text fill="#000000" font-family="sans-serif" font-size="12" lengthAdjust="spacingAndGlyphs" textLength="161" x="307.75" y="362.1387">ReconciliationTransaction</text></a><!--class ATMTotal--><a target="_top" xlink:actuate="onRequest" xlink:href="../ATMTotal.html" xlink:show="new" xlink:title="Current totals of the ATM." xlink:type="simple"><rect fill="#EEEEEE" filter="url(#f1oj6gxa6ii59b)" height="23.9688" id="ATMTotal" style="stroke: #A80036; stroke-width: 1.5;" width="62" x="305.5" y="244"/><rect fill="#EEEEEE" height="23.9688" style="stroke: #A80036; stroke-width: 1.5;" width="62" x="305.5" y="244"/><text fill="#000000" font-family="sans-serif" font-size="12" lengthAdjust="spacingAndGlyphs" textLength="56" x="308.5" y="260.1387">ATMTotal</text></a><!--link Product to PaymentCard--><!--link CardPaymentAcquiring to Product--><!--link CardPaymentPartyRole to CardPaymentAcquiring--><!--link CardPaymentStatus to CardPaymentPartyRole--><!--link ReconciliationTransaction to CardPaymentStatus--><!--link ATMTotal to ReconciliationTransaction--><!--link CardPayment to PaymentCard--><path d="M248.584,134.22 C132.609,159.597 6,199.915 6,255 C6,255 6,255 6,735 C6,796.8218 212.974,813.2134 310.401,817.5047 " fill="none" id="CardPayment-PaymentCard" style="stroke: #A80036; stroke-width: 1.0;"/><polygon fill="#A80036" points="315.524,817.7236,306.7024,813.3441,310.5285,817.5107,306.3619,821.3368,315.524,817.7236" style="stroke: #A80036; stroke-width: 1.0;"/><text fill="#000000" font-family="sans-serif" font-size="13" lengthAdjust="spacingAndGlyphs" textLength="87" x="7" y="515.0669">PaymentCard</text><text fill="#000000" font-family="sans-serif" font-size="13" lengthAdjust="spacingAndGlyphs" textLength="8" x="299.8421" y="812.3534">1</text><!--link CardPayment to Product--><path d="M625.375,136.989 C735.091,162.94 852,202.831 852,255 C852,255 852,255 852,649 C852,692.185 532.249,721.897 427.668,730.46 " fill="none" id="CardPayment-Product" style="stroke: #A80036; stroke-width: 1.0;"/><polygon fill="#A80036" points="422.558,730.876,431.8529,734.1326,427.5415,730.4703,431.2038,726.159,422.558,730.876" style="stroke: #A80036; stroke-width: 1.0;"/><text fill="#000000" font-family="sans-serif" font-size="13" lengthAdjust="spacingAndGlyphs" textLength="49" x="853" y="464.0669">Product</text><text fill="#000000" font-family="sans-serif" font-size="13" lengthAdjust="spacingAndGlyphs" textLength="7" x="430.8377" y="723.841">*</text><!--link CardPayment to CardPaymentAcquiring--><path d="M622.412,162.131 C655.673,184.474 680,214.619 680,255 C680,255 680,255 680,563 C680,606.243 557.757,628.874 473.39,639.343 " fill="none" id="CardPayment-CardPaymentAcquiring" style="stroke: #A80036; stroke-width: 1.0;"/><polygon fill="#A80036" points="468.395,639.955,477.8141,642.8325,473.358,639.3478,476.8427,634.8917,468.395,639.955" style="stroke: #A80036; stroke-width: 1.0;"/><text fill="#000000" font-family="sans-serif" font-size="13" lengthAdjust="spacingAndGlyphs" textLength="146" x="681" y="413.0669">CardPaymentAcquiring</text><text fill="#000000" font-family="sans-serif" font-size="13" lengthAdjust="spacingAndGlyphs" textLength="7" x="476.778" y="634.2213">*</text><!--link CardPayment to CardPaymentPartyRole--><path d="M248.343,127.636 C179.867,148.52 119,186.382 119,255 C119,255 119,255 119,461 C119,503.737 238.12,533.591 319.276,548.971 " fill="none" id="CardPayment-CardPaymentPartyRole" style="stroke: #A80036; stroke-width: 1.0;"/><polygon fill="#A80036" points="324.565,549.963,316.4563,544.3729,319.6506,549.0416,314.982,552.2359,324.565,549.963" style="stroke: #A80036; stroke-width: 1.0;"/><text fill="#000000" font-family="sans-serif" font-size="13" lengthAdjust="spacingAndGlyphs" textLength="147" x="120" y="362.0669">PaymentCardPartyRole</text><text fill="#000000" font-family="sans-serif" font-size="13" lengthAdjust="spacingAndGlyphs" textLength="7" x="304.0293" y="542.5142">*</text><!--link CardPayment to CardPaymentStatus--><path d="M485.01,162.094 C496.446,179.751 507.052,199.779 513,220 C519.02,240.466 515.558,246.821 513,268 C507.404,314.338 511.563,329.709 488,370 C469.389,401.824 435.923,429.228 414.09,444.923 " fill="none" id="CardPayment-CardPaymentStatus" style="stroke: #A80036; stroke-width: 1.0;"/><polygon fill="#A80036" points="409.886,447.904,419.5415,445.9621,413.965,445.0123,414.9148,439.4357,409.886,447.904" style="stroke: #A80036; stroke-width: 1.0;"/><text fill="#000000" font-family="sans-serif" font-size="13" lengthAdjust="spacingAndGlyphs" textLength="129" x="512" y="311.0669">CardPaymentStatus</text><text fill="#000000" font-family="sans-serif" font-size="13" lengthAdjust="spacingAndGlyphs" textLength="7" x="406.1437" y="436.9192">*</text><!--link CardPayment to ReconciliationTransaction--><path d="M425.45,162.109 C414.223,220.531 397.906,305.446 391.131,340.707 " fill="none" id="CardPayment-ReconciliationTransaction" style="stroke: #A80036; stroke-width: 1.0;"/><polygon fill="#A80036" points="390.127,345.928,395.7547,337.8454,391.0713,341.018,387.8987,336.3345,390.127,345.928" style="stroke: #A80036; stroke-width: 1.0;"/><text fill="#000000" font-family="sans-serif" font-size="13" lengthAdjust="spacingAndGlyphs" textLength="87" x="416" y="260.0669">Reconciliation</text><text fill="#000000" font-family="sans-serif" font-size="13" lengthAdjust="spacingAndGlyphs" textLength="24" x="361.3035" y="334.9515">0..1</text><!--link CardPayment to ATMTotal--><path d="M371.956,162.061 C363.641,172.077 355.966,182.856 350,194 C342.551,207.914 339.048,225.676 337.411,238.44 " fill="none" id="CardPayment-ATMTotal" style="stroke: #A80036; stroke-width: 1.0;"/><polygon fill="#A80036" points="336.818,243.579,341.8252,235.098,337.3923,238.6121,333.8781,234.1791,336.818,243.579" style="stroke: #A80036; stroke-width: 1.0;"/><text fill="#000000" font-family="sans-serif" font-size="13" lengthAdjust="spacingAndGlyphs" textLength="58" x="351" y="207.0669">ATMTotal</text><text fill="#000000" font-family="sans-serif" font-size="13" lengthAdjust="spacingAndGlyphs" textLength="7" x="327.485" y="233.0035">*</text></g></svg>