<?xml version="1.0" encoding="UTF-8" standalone="no"?><svg xmlns="http://www.w3.org/2000/svg" xmlns:xlink="http://www.w3.org/1999/xlink" contentScriptType="application/ecmascript" contentStyleType="text/css" height="530px" preserveAspectRatio="none" style="width:1331px;height:530px;" version="1.1" viewBox="0 0 1331 530" width="1331px" zoomAndPan="magnify"><defs><filter height="300%" id="fzn1csw8t87je" width="300%" x="-1" y="-1"><feGaussianBlur result="blurOut" stdDeviation="2.0"/><feColorMatrix in="blurOut" result="blurOut2" type="matrix" values="0 0 0 0 0 0 0 0 0 0 0 0 0 0 0 0 0 0 .4 0"/><feOffset dx="4.0" dy="4.0" in="blurOut2" result="blurOut3"/><feBlend in="SourceGraphic" in2="blurOut3" mode="normal"/></filter></defs><g><!--cluster ##12508--><!--cluster ##12523--><!--cluster ##12532--><!--cluster ##12537--><!--class Role--><a target="_top" xlink:actuate="onRequest" xlink:href="../Role.html" xlink:show="new" xlink:title="Role of a party in an activity." xlink:type="simple"><rect fill="#FEFEEE" filter="url(#fzn1csw8t87je)" height="44.7734" id="Role" style="stroke: #A80036; stroke-width: 1.5;" width="175" x="142.75" y="40.5"/><rect fill="#FEFEEE" height="23.9688" style="stroke: #A80036; stroke-width: 1.5;" width="175" x="142.75" y="40.5"/><text fill="#000000" font-family="sans-serif" font-size="12" lengthAdjust="spacingAndGlyphs" textLength="27" x="216.75" y="56.6387">Role</text><line style="stroke: #A80036; stroke-width: 1.5;" x1="143.75" x2="316.75" y1="64.4688" y2="64.4688"/><ellipse cx="153.75" cy="76.3711" fill="#84BE84" rx="3" ry="3" style="stroke: #038048; stroke-width: 1.0;"/><text fill="#000000" font-family="sans-serif" font-size="11" lengthAdjust="spacingAndGlyphs" textLength="53" x="162.75" y="78.6792">PartyRole</text><text fill="#000000" font-family="sans-serif" font-size="11" font-style="italic" lengthAdjust="spacingAndGlyphs" textLength="92" x="219.75" y="78.6792">(PartyRoleCode)</text></a><!--class TradePartyRole--><a target="_top" xlink:actuate="onRequest" xlink:href="../TradePartyRole.html" xlink:show="new" xlink:title="Trading party in a commercial, securities, treasury trade. This role may also represent parties which play different intermediary roles in a trade." xlink:type="simple"><rect fill="#FEFEEE" filter="url(#fzn1csw8t87je)" height="57.5781" id="TradePartyRole" style="stroke: #A80036; stroke-width: 1.5;" width="279" x="38.75" y="164"/><rect fill="#FEFEEE" height="23.9688" style="stroke: #A80036; stroke-width: 1.5;" width="279" x="38.75" y="164"/><text fill="#000000" font-family="sans-serif" font-size="12" lengthAdjust="spacingAndGlyphs" textLength="95" x="130.75" y="180.1387">TradePartyRole</text><line style="stroke: #A80036; stroke-width: 1.5;" x1="39.75" x2="316.75" y1="187.9688" y2="187.9688"/><ellipse cx="49.75" cy="199.8711" fill="#84BE84" rx="3" ry="3" style="stroke: #038048; stroke-width: 1.0;"/><text fill="#000000" font-family="sans-serif" font-size="11" lengthAdjust="spacingAndGlyphs" textLength="120" x="58.75" y="202.1792">TradingPartyCapacity</text><text fill="#000000" font-family="sans-serif" font-size="11" font-style="italic" lengthAdjust="spacingAndGlyphs" textLength="129" x="182.75" y="202.1792">(TradingCapacityCode)</text><ellipse cx="49.75" cy="212.6758" fill="#84BE84" rx="3" ry="3" style="stroke: #038048; stroke-width: 1.0;"/><text fill="#000000" font-family="sans-serif" font-size="11" lengthAdjust="spacingAndGlyphs" textLength="80" x="58.75" y="214.9839">BuyerOrSeller</text><text fill="#000000" font-family="sans-serif" font-size="11" font-style="italic" lengthAdjust="spacingAndGlyphs" textLength="104" x="142.75" y="214.9839">(OptionPartyCode)</text></a><!--class CommercialTradePartyRole--><a target="_top" xlink:actuate="onRequest" xlink:href="../CommercialTradePartyRole.html" xlink:show="new" xlink:title="Role played by a party in the context of a trade." xlink:type="simple"><rect fill="#FEFECE" filter="url(#fzn1csw8t87je)" height="23.9688" id="CommercialTradePartyRole" style="stroke: #A80036; stroke-width: 1.5;" width="173" x="130.75" y="302"/><rect fill="#FEFECE" height="23.9688" style="stroke: #A80036; stroke-width: 1.5;" width="173" x="130.75" y="302"/><text fill="#000000" font-family="sans-serif" font-size="12" lengthAdjust="spacingAndGlyphs" textLength="167" x="133.75" y="318.1387">CommercialTradePartyRole</text></a><!--class ShipFrom--><a target="_top" xlink:actuate="onRequest" xlink:href="../ShipFrom.html" xlink:show="new" xlink:title="Party from whom the goods are dispatched." xlink:type="simple"><rect fill="#FEFEEE" filter="url(#fzn1csw8t87je)" height="23.9688" id="ShipFrom" style="stroke: #A80036; stroke-width: 1.5;" width="64" x="151" y="406"/><rect fill="#FEFEEE" height="23.9688" style="stroke: #A80036; stroke-width: 1.5;" width="64" x="151" y="406"/><text fill="#000000" font-family="sans-serif" font-size="12" lengthAdjust="spacingAndGlyphs" textLength="58" x="154" y="422.1387">ShipFrom</text></a><!--class ShipTo--><a target="_top" xlink:actuate="onRequest" xlink:href="../ShipTo.html" xlink:show="new" xlink:title="Party to whom the goods must be delivered." xlink:type="simple"><rect fill="#FEFEEE" filter="url(#fzn1csw8t87je)" height="23.9688" id="ShipTo" style="stroke: #A80036; stroke-width: 1.5;" width="48" x="250" y="406"/><rect fill="#FEFEEE" height="23.9688" style="stroke: #A80036; stroke-width: 1.5;" width="48" x="250" y="406"/><text fill="#000000" font-family="sans-serif" font-size="12" lengthAdjust="spacingAndGlyphs" textLength="42" x="253" y="422.1387">ShipTo</text></a><!--class RolePlayer--><a target="_top" xlink:actuate="onRequest" xlink:href="../RolePlayer.html" xlink:show="new" xlink:title="Type of entity that plays a specific role in a specific context." xlink:type="simple"><rect fill="#EEEEEE" filter="url(#fzn1csw8t87je)" height="23.9688" id="RolePlayer" style="stroke: #A80036; stroke-width: 1.5;" width="71" x="906.75" y="496"/><rect fill="#EEEEEE" height="23.9688" style="stroke: #A80036; stroke-width: 1.5;" width="71" x="906.75" y="496"/><text fill="#000000" font-family="sans-serif" font-size="12" lengthAdjust="spacingAndGlyphs" textLength="65" x="909.75" y="512.1387">RolePlayer</text></a><!--class ContactPersonRole--><a target="_top" xlink:actuate="onRequest" xlink:href="../ContactPersonRole.html" xlink:show="new" xlink:title="Person to be contacted in a given organisation. In the corporate action domain (including meeting notifications) , it is the contact person at the party organising the meeting, at the issuer or at an intermediary." xlink:type="simple"><rect fill="#EEEEEE" filter="url(#fzn1csw8t87je)" height="23.9688" id="ContactPersonRole" style="stroke: #A80036; stroke-width: 1.5;" width="126" x="859" y="406"/><rect fill="#EEEEEE" height="23.9688" style="stroke: #A80036; stroke-width: 1.5;" width="126" x="859" y="406"/><text fill="#000000" font-family="sans-serif" font-size="12" lengthAdjust="spacingAndGlyphs" textLength="120" x="862" y="422.1387">ContactPersonRole</text></a><!--class CounterpartyRisk--><a target="_top" xlink:actuate="onRequest" xlink:href="../CounterpartyRisk.html" xlink:show="new" xlink:title="Calculation of the exposure amount that one party has vis-a-vis one counterparty or a central system, based on its credit risk." xlink:type="simple"><rect fill="#EEEEEE" filter="url(#fzn1csw8t87je)" height="23.9688" id="CounterpartyRisk" style="stroke: #A80036; stroke-width: 1.5;" width="113" x="871.75" y="302"/><rect fill="#EEEEEE" height="23.9688" style="stroke: #A80036; stroke-width: 1.5;" width="113" x="871.75" y="302"/><text fill="#000000" font-family="sans-serif" font-size="12" lengthAdjust="spacingAndGlyphs" textLength="107" x="874.75" y="318.1387">CounterpartyRisk</text></a><!--class Entry--><a target="_top" xlink:actuate="onRequest" xlink:href="../Entry.html" xlink:show="new" xlink:title="Posting to an account that results in an increase or decrease to a balance." xlink:type="simple"><rect fill="#EEEEEE" filter="url(#fzn1csw8t87je)" height="23.9688" id="Entry" style="stroke: #A80036; stroke-width: 1.5;" width="38" x="859" y="181"/><rect fill="#EEEEEE" height="23.9688" style="stroke: #A80036; stroke-width: 1.5;" width="38" x="859" y="181"/><text fill="#000000" font-family="sans-serif" font-size="12" lengthAdjust="spacingAndGlyphs" textLength="32" x="862" y="197.1387">Entry</text></a><!--class Account--><a target="_top" xlink:actuate="onRequest" xlink:href="../Account.html" xlink:show="new" xlink:title="Record of transactions in specific types of assets, maintained by a servicing party on behalf of one or more owning parties. Business relationship between an account servicer and one or more account owners." xlink:type="simple"><rect fill="#EEEEEE" filter="url(#fzn1csw8t87je)" height="23.9688" id="Account" style="stroke: #A80036; stroke-width: 1.5;" width="57" x="544.75" y="406"/><rect fill="#EEEEEE" height="23.9688" style="stroke: #A80036; stroke-width: 1.5;" width="57" x="544.75" y="406"/><text fill="#000000" font-family="sans-serif" font-size="12" lengthAdjust="spacingAndGlyphs" textLength="51" x="547.75" y="422.1387">Account</text></a><!--class Trade--><a target="_top" xlink:actuate="onRequest" xlink:href="../Trade.html" xlink:show="new" xlink:title="Result of an order between at least two parties. A trade relates to the delivery of goods and services, cash or securities." xlink:type="simple"><rect fill="#EEEEEE" filter="url(#fzn1csw8t87je)" height="23.9688" id="Trade" style="stroke: #A80036; stroke-width: 1.5;" width="42" x="544.5" y="302"/><rect fill="#EEEEEE" height="23.9688" style="stroke: #A80036; stroke-width: 1.5;" width="42" x="544.5" y="302"/><text fill="#000000" font-family="sans-serif" font-size="12" lengthAdjust="spacingAndGlyphs" textLength="36" x="547.5" y="318.1387">Trade</text></a><!--class CommercialTrade--><a target="_top" xlink:actuate="onRequest" xlink:href="../CommercialTrade.html" xlink:show="new" xlink:title="Commercial details of a trade transaction between a buyer and a seller." xlink:type="simple"><rect fill="#EEEEEE" filter="url(#fzn1csw8t87je)" height="23.9688" id="CommercialTrade" style="stroke: #A80036; stroke-width: 1.5;" width="114" x="374" y="406"/><rect fill="#EEEEEE" height="23.9688" style="stroke: #A80036; stroke-width: 1.5;" width="114" x="374" y="406"/><text fill="#000000" font-family="sans-serif" font-size="12" lengthAdjust="spacingAndGlyphs" textLength="108" x="377" y="422.1387">CommercialTrade</text></a><!--link Role to TradePartyRole--><path d="M213.621,104.318 C205.751,123.689 196.513,146.43 189.417,163.897 " fill="none" id="Role-TradePartyRole" style="stroke: #A80036; stroke-width: 1.0;"/><polygon fill="none" points="207.166,101.608,221.179,85.713,220.137,106.877,207.166,101.608" style="stroke: #A80036; stroke-width: 1.0;"/><!--link TradePartyRole to CommercialTradePartyRole--><path d="M193.557,241.47 C200.797,263.56 208.793,287.959 213.326,301.79 " fill="none" id="TradePartyRole-CommercialTradePartyRole" style="stroke: #A80036; stroke-width: 1.0;"/><polygon fill="none" points="186.819,243.387,187.242,222.201,200.123,239.027,186.819,243.387" style="stroke: #A80036; stroke-width: 1.0;"/><!--link CommercialTradePartyRole to ShipFrom--><path d="M206.904,345.289 C200.087,365.738 191.487,391.538 186.682,405.954 " fill="none" id="CommercialTradePartyRole-ShipFrom" style="stroke: #A80036; stroke-width: 1.0;"/><polygon fill="none" points="200.266,343.066,213.231,326.306,213.548,347.493,200.266,343.066" style="stroke: #A80036; stroke-width: 1.0;"/><!--link CommercialTradePartyRole to ShipTo--><path d="M233.205,343.999 C244.74,364.641 259.6,391.232 267.827,405.954 " fill="none" id="CommercialTradePartyRole-ShipTo" style="stroke: #A80036; stroke-width: 1.0;"/><polygon fill="none" points="226.964,347.179,223.318,326.306,239.185,340.35,226.964,347.179" style="stroke: #A80036; stroke-width: 1.0;"/><!--link ContactPersonRole to RolePlayer--><!--link CounterpartyRisk to ContactPersonRole--><!--link Entry to CounterpartyRisk--><!--link Trade to Account--><!--link Role to RolePlayer--><path d="M317.633,65.543 C569.749,71.136 1279,95.45 1279,192 C1279,192 1279,192 1279,419 C1279,479.6217 1072.27,499.2654 982.642,504.9332 " fill="none" id="Role-RolePlayer" style="stroke: #A80036; stroke-width: 1.0;"/><polygon fill="#A80036" points="977.428,505.2555,986.6577,508.6924,982.4185,504.9469,986.164,500.7077,977.428,505.2555" style="stroke: #A80036; stroke-width: 1.0;"/><text fill="#000000" font-family="sans-serif" font-size="13" lengthAdjust="spacingAndGlyphs" textLength="39" x="1280" y="318.0669">Player</text><text fill="#000000" font-family="sans-serif" font-size="13" lengthAdjust="spacingAndGlyphs" textLength="7" x="985.8888" y="498.8806">*</text><!--link Role to ContactPersonRole--><path d="M317.343,67.101 C520.697,75.247 1012.12,100.626 1059,157 C1127.38,239.23 991.938,361.107 940.604,402.58 " fill="none" id="Role-ContactPersonRole" style="stroke: #A80036; stroke-width: 1.0;"/><polygon fill="#A80036" points="936.48,405.885,946.0053,403.3811,940.3827,402.7594,941.0044,397.1368,936.48,405.885" style="stroke: #A80036; stroke-width: 1.0;"/><text fill="#000000" font-family="sans-serif" font-size="13" lengthAdjust="spacingAndGlyphs" textLength="121" x="1069" y="265.0669">ContactPersonRole</text><text fill="#000000" font-family="sans-serif" font-size="13" lengthAdjust="spacingAndGlyphs" textLength="8" x="930.7388" y="394.8937">1</text><!--link Role to CounterpartyRisk--><path d="M317.425,69.853 C492.609,82.436 873.41,114.408 914,157 C950.354,195.147 939.691,264.933 932.362,296.598 " fill="none" id="Role-CounterpartyRisk" style="stroke: #A80036; stroke-width: 1.0;"/><polygon fill="#A80036" points="931.133,301.698,937.13,293.8855,932.3043,296.8371,929.3526,292.0114,931.133,301.698" style="stroke: #A80036; stroke-width: 1.0;"/><text fill="#000000" font-family="sans-serif" font-size="13" lengthAdjust="spacingAndGlyphs" textLength="109" x="940" y="197.0669">CounterpartyRisk</text><text fill="#000000" font-family="sans-serif" font-size="13" lengthAdjust="spacingAndGlyphs" textLength="24" x="902.7817" y="290.9014">0..1</text><!--link Role to Entry--><path d="M317.392,81.263 C467.612,110.936 767.036,170.081 853.875,187.235 " fill="none" id="Role-Entry" style="stroke: #A80036; stroke-width: 1.0;"/><polygon fill="#A80036" points="858.808,188.209,850.7532,182.5415,853.9027,187.2405,849.2037,190.39,858.808,188.209" style="stroke: #A80036; stroke-width: 1.0;"/><text fill="#000000" font-family="sans-serif" font-size="13" lengthAdjust="spacingAndGlyphs" textLength="33" x="575" y="129.0669">Entry</text><text fill="#000000" font-family="sans-serif" font-size="13" lengthAdjust="spacingAndGlyphs" textLength="8" x="843.004" y="180.5609">1</text><!--link TradePartyRole to Account--><path d="M317.509,202.909 C426.85,213.144 566.279,234.508 602,278 C631.729,314.196 601.351,373.235 583.714,401.268 " fill="none" id="TradePartyRole-Account" style="stroke: #A80036; stroke-width: 1.0;"/><polygon fill="#A80036" points="580.795,405.811,589.0245,400.4003,583.4972,401.6041,582.2934,396.0768,580.795,405.811" style="stroke: #A80036; stroke-width: 1.0;"/><text fill="#000000" font-family="sans-serif" font-size="13" lengthAdjust="spacingAndGlyphs" textLength="52" x="616" y="318.0669">Account</text><text fill="#000000" font-family="sans-serif" font-size="13" lengthAdjust="spacingAndGlyphs" textLength="7" x="573.8037" y="395.0518">*</text><!--link TradePartyRole to Trade--><path d="M269.224,222.051 C357.332,249.143 485.142,288.444 539.256,305.084 " fill="none" id="TradePartyRole-Trade" style="stroke: #A80036; stroke-width: 1.0;"/><polygon fill="#A80036" points="544.259,306.622,536.8329,300.1526,539.48,305.1519,534.4807,307.799,544.259,306.622" style="stroke: #A80036; stroke-width: 1.0;"/><text fill="#000000" font-family="sans-serif" font-size="13" lengthAdjust="spacingAndGlyphs" textLength="36" x="419" y="265.0669">Trade</text><text fill="#000000" font-family="sans-serif" font-size="13" lengthAdjust="spacingAndGlyphs" textLength="7" x="529.3411" y="298.4437">*</text><!--link CommercialTradePartyRole to CommercialTrade--><path d="M240.309,326.11 C279.946,345.002 360.32,383.311 402.962,403.636 " fill="none" id="CommercialTradePartyRole-CommercialTrade" style="stroke: #A80036; stroke-width: 1.0;"/><polygon fill="#A80036" points="407.72,405.904,401.3173,398.4203,403.2066,403.7523,397.8746,405.6417,407.72,405.904" style="stroke: #A80036; stroke-width: 1.0;"/><text fill="#000000" font-family="sans-serif" font-size="13" lengthAdjust="spacingAndGlyphs" textLength="113" x="338" y="369.0669">CommercialTrade</text><text fill="#000000" font-family="sans-serif" font-size="13" lengthAdjust="spacingAndGlyphs" textLength="7" x="390.1706" y="394.9192">*</text><!--link Entry to Account--><path d="M866.798,205.32 C831.697,240.62 723.706,347.893 682,374 C658.435,388.752 628.966,400.008 606.613,407.296 " fill="none" id="Entry-Account" style="stroke: #A80036; stroke-width: 1.0;"/><polygon fill="#A80036" points="601.669,408.882,611.4603,409.9449,606.4305,407.3563,609.0191,402.3264,601.669,408.882" style="stroke: #A80036; stroke-width: 1.0;"/><text fill="#000000" font-family="sans-serif" font-size="13" lengthAdjust="spacingAndGlyphs" textLength="52" x="792" y="318.0669">Account</text><text fill="#000000" font-family="sans-serif" font-size="13" lengthAdjust="spacingAndGlyphs" textLength="7" x="609.8482" y="400.4553">*</text><!--link Account to Account--><path d="M601.508,409.984 C619.181,408.051 636,410.723 636,418 C636,424.538 622.424,427.359 606.85,426.463 " fill="none" id="Account-Account" style="stroke: #A80036; stroke-width: 1.0;"/><polygon fill="#A80036" points="601.508,426.016,610.1443,430.7504,606.4907,426.4317,610.8094,422.7781,601.508,426.016" style="stroke: #A80036; stroke-width: 1.0;"/><text fill="#000000" font-family="sans-serif" font-size="13" lengthAdjust="spacingAndGlyphs" textLength="94" x="642" y="422.0669">ParentAccount</text><text fill="#000000" font-family="sans-serif" font-size="13" lengthAdjust="spacingAndGlyphs" textLength="8" x="609.7741" y="421.9799">1</text></g></svg>