<?xml version="1.0" encoding="UTF-8" standalone="no"?><svg xmlns="http://www.w3.org/2000/svg" xmlns:xlink="http://www.w3.org/1999/xlink" contentScriptType="application/ecmascript" contentStyleType="text/css" height="1284px" preserveAspectRatio="none" style="width:3113px;height:1284px;" version="1.1" viewBox="0 0 3113 1284" width="3113px" zoomAndPan="magnify"><defs><filter height="300%" id="f1fletpcnt0270" width="300%" x="-1" y="-1"><feGaussianBlur result="blurOut" stdDeviation="2.0"/><feColorMatrix in="blurOut" result="blurOut2" type="matrix" values="0 0 0 0 0 0 0 0 0 0 0 0 0 0 0 0 0 0 .4 0"/><feOffset dx="4.0" dy="4.0" in="blurOut2" result="blurOut3"/><feBlend in="SourceGraphic" in2="blurOut3" mode="normal"/></filter></defs><g><!--cluster ##2869--><!--cluster ##2890--><!--class Document--><a target="_top" xlink:actuate="onRequest" xlink:href="../Document.html" xlink:show="new" xlink:title="General information that unambiguously identifies a document, such as identification number and issue date time." xlink:type="simple"><rect fill="#FEFECE" filter="url(#f1fletpcnt0270)" height="172.8203" id="Document" style="stroke: #A80036; stroke-width: 1.5;" width="249" x="1599.75" y="40.5"/><rect fill="#FEFECE" height="23.9688" style="stroke: #A80036; stroke-width: 1.5;" width="249" x="1599.75" y="40.5"/><text fill="#000000" font-family="sans-serif" font-size="12" lengthAdjust="spacingAndGlyphs" textLength="64" x="1692.25" y="56.6387">Document</text><line style="stroke: #A80036; stroke-width: 1.5;" x1="1600.75" x2="1847.75" y1="64.4688" y2="64.4688"/><ellipse cx="1610.75" cy="76.3711" fill="#84BE84" rx="3" ry="3" style="stroke: #038048; stroke-width: 1.0;"/><text fill="#000000" font-family="sans-serif" font-size="11" lengthAdjust="spacingAndGlyphs" textLength="57" x="1619.75" y="78.6792">IssueDate</text><text fill="#000000" font-family="sans-serif" font-size="11" font-style="italic" lengthAdjust="spacingAndGlyphs" textLength="81" x="1680.75" y="78.6792">(ISODateTime)</text><ellipse cx="1610.75" cy="89.1758" fill="#84BE84" rx="3" ry="3" style="stroke: #038048; stroke-width: 1.0;"/><text fill="#000000" font-family="sans-serif" font-size="11" lengthAdjust="spacingAndGlyphs" textLength="80" x="1619.75" y="91.4839">CopyDuplicate</text><text fill="#000000" font-family="sans-serif" font-size="11" font-style="italic" lengthAdjust="spacingAndGlyphs" textLength="118" x="1703.75" y="91.4839">(CopyDuplicateCode)</text><ellipse cx="1610.75" cy="101.9805" fill="#84BE84" rx="3" ry="3" style="stroke: #038048; stroke-width: 1.0;"/><text fill="#000000" font-family="sans-serif" font-size="11" lengthAdjust="spacingAndGlyphs" textLength="27" x="1619.75" y="104.2886">Type</text><text fill="#000000" font-family="sans-serif" font-size="11" font-style="italic" lengthAdjust="spacingAndGlyphs" textLength="122" x="1650.75" y="104.2886">(DocumentTypeCode)</text><ellipse cx="1610.75" cy="114.7852" fill="#84BE84" rx="3" ry="3" style="stroke: #038048; stroke-width: 1.0;"/><text fill="#000000" font-family="sans-serif" font-size="11" lengthAdjust="spacingAndGlyphs" textLength="43" x="1619.75" y="117.0933">Amount</text><text fill="#000000" font-family="sans-serif" font-size="11" font-style="italic" lengthAdjust="spacingAndGlyphs" textLength="161" x="1666.75" y="117.0933">(ActiveCurrencyAndAmount)</text><ellipse cx="1610.75" cy="127.5898" fill="#84BE84" rx="3" ry="3" style="stroke: #038048; stroke-width: 1.0;"/><text fill="#000000" font-family="sans-serif" font-size="11" lengthAdjust="spacingAndGlyphs" textLength="100" x="1619.75" y="129.8979">DocumentVersion</text><text fill="#000000" font-family="sans-serif" font-size="11" font-style="italic" lengthAdjust="spacingAndGlyphs" textLength="53" x="1723.75" y="129.8979">(Number)</text><ellipse cx="1610.75" cy="140.3945" fill="#84BE84" rx="3" ry="3" style="stroke: #038048; stroke-width: 1.0;"/><text fill="#000000" font-family="sans-serif" font-size="11" lengthAdjust="spacingAndGlyphs" textLength="37" x="1619.75" y="142.7026">Status</text><text fill="#000000" font-family="sans-serif" font-size="11" font-style="italic" lengthAdjust="spacingAndGlyphs" textLength="77" x="1660.75" y="142.7026">(Max140Text)</text><ellipse cx="1610.75" cy="153.1992" fill="#84BE84" rx="3" ry="3" style="stroke: #038048; stroke-width: 1.0;"/><text fill="#000000" font-family="sans-serif" font-size="11" lengthAdjust="spacingAndGlyphs" textLength="72" x="1619.75" y="155.5073">DataSetType</text><text fill="#000000" font-family="sans-serif" font-size="11" font-style="italic" lengthAdjust="spacingAndGlyphs" textLength="109" x="1695.75" y="155.5073">(DataSetTypeCode)</text><ellipse cx="1610.75" cy="166.0039" fill="#84BE84" rx="3" ry="3" style="stroke: #038048; stroke-width: 1.0;"/><text fill="#000000" font-family="sans-serif" font-size="11" lengthAdjust="spacingAndGlyphs" textLength="88" x="1619.75" y="168.312">SignedIndicator</text><text fill="#000000" font-family="sans-serif" font-size="11" font-style="italic" lengthAdjust="spacingAndGlyphs" textLength="92" x="1711.75" y="168.312">(YesNoIndicator)</text><ellipse cx="1610.75" cy="178.8086" fill="#84BE84" rx="3" ry="3" style="stroke: #038048; stroke-width: 1.0;"/><text fill="#000000" font-family="sans-serif" font-size="11" lengthAdjust="spacingAndGlyphs" textLength="93" x="1619.75" y="181.1167">RemittedAmount</text><text fill="#000000" font-family="sans-serif" font-size="11" font-style="italic" lengthAdjust="spacingAndGlyphs" textLength="126" x="1716.75" y="181.1167">(CurrencyAndAmount)</text><ellipse cx="1610.75" cy="191.6133" fill="#84BE84" rx="3" ry="3" style="stroke: #038048; stroke-width: 1.0;"/><text fill="#000000" font-family="sans-serif" font-size="11" lengthAdjust="spacingAndGlyphs" textLength="55" x="1619.75" y="193.9214">Language</text><text fill="#000000" font-family="sans-serif" font-size="11" font-style="italic" lengthAdjust="spacingAndGlyphs" textLength="92" x="1678.75" y="193.9214">(LanguageCode)</text><ellipse cx="1610.75" cy="204.418" fill="#84BE84" rx="3" ry="3" style="stroke: #038048; stroke-width: 1.0;"/><text fill="#000000" font-family="sans-serif" font-size="11" lengthAdjust="spacingAndGlyphs" textLength="47" x="1619.75" y="206.7261">Purpose</text><text fill="#000000" font-family="sans-serif" font-size="11" font-style="italic" lengthAdjust="spacingAndGlyphs" textLength="70" x="1670.75" y="206.7261">(Max35Text)</text></a><!--class PrivateCertificate--><a target="_top" xlink:actuate="onRequest" xlink:href="../PrivateCertificate.html" xlink:show="new" xlink:title="Specifies the parameters associated with the production of a certificate to identify the profile of a customer." xlink:type="simple"><rect fill="#FEFEEE" filter="url(#f1fletpcnt0270)" height="23.9688" id="PrivateCertificate" style="stroke: #A80036; stroke-width: 1.5;" width="113" x="1036.75" y="292"/><rect fill="#FEFEEE" height="23.9688" style="stroke: #A80036; stroke-width: 1.5;" width="113" x="1036.75" y="292"/><text fill="#000000" font-family="sans-serif" font-size="12" lengthAdjust="spacingAndGlyphs" textLength="107" x="1039.75" y="308.1387">PrivateCertificate</text></a><!--class InsuranceCertificate--><a target="_top" xlink:actuate="onRequest" xlink:href="../InsuranceCertificate.html" xlink:show="new" xlink:title="Formal document used to record a fact and used as proof of the fact that goods have been insured under an insurance policy." xlink:type="simple"><rect fill="#FEFEEE" filter="url(#f1fletpcnt0270)" height="23.9688" id="InsuranceCertificate" style="stroke: #A80036; stroke-width: 1.5;" width="132" x="1185" y="292"/><rect fill="#FEFEEE" height="23.9688" style="stroke: #A80036; stroke-width: 1.5;" width="132" x="1185" y="292"/><text fill="#000000" font-family="sans-serif" font-size="12" lengthAdjust="spacingAndGlyphs" textLength="126" x="1188" y="308.1387">InsuranceCertificate</text></a><!--class SecurityCertificate--><a target="_top" xlink:actuate="onRequest" xlink:href="../SecurityCertificate.html" xlink:show="new" xlink:title="Certificate linked to a digital signature." xlink:type="simple"><rect fill="#FEFEEE" filter="url(#f1fletpcnt0270)" height="23.9688" id="SecurityCertificate" style="stroke: #A80036; stroke-width: 1.5;" width="120" x="1352.5" y="292"/><rect fill="#FEFEEE" height="23.9688" style="stroke: #A80036; stroke-width: 1.5;" width="120" x="1352.5" y="292"/><text fill="#000000" font-family="sans-serif" font-size="12" lengthAdjust="spacingAndGlyphs" textLength="114" x="1355.5" y="308.1387">SecurityCertificate</text></a><!--class TradeCertificate--><a target="_top" xlink:actuate="onRequest" xlink:href="../TradeCertificate.html" xlink:show="new" xlink:title="Formal document used to record a fact and used as proof of the fact, in the context of a commercial trade transaction." xlink:type="simple"><rect fill="#FEFEEE" filter="url(#f1fletpcnt0270)" height="23.9688" id="TradeCertificate" style="stroke: #A80036; stroke-width: 1.5;" width="106" x="1507.5" y="292"/><rect fill="#FEFEEE" height="23.9688" style="stroke: #A80036; stroke-width: 1.5;" width="106" x="1507.5" y="292"/><text fill="#000000" font-family="sans-serif" font-size="12" lengthAdjust="spacingAndGlyphs" textLength="100" x="1510.5" y="308.1387">TradeCertificate</text></a><!--class Assessment--><a target="_top" xlink:actuate="onRequest" xlink:href="../Assessment.html" xlink:show="new" xlink:title="Assessment for the components of a system." xlink:type="simple"><rect fill="#FEFEEE" filter="url(#f1fletpcnt0270)" height="23.9688" id="Assessment" style="stroke: #A80036; stroke-width: 1.5;" width="82" x="1648" y="292"/><rect fill="#FEFEEE" height="23.9688" style="stroke: #A80036; stroke-width: 1.5;" width="82" x="1648" y="292"/><text fill="#000000" font-family="sans-serif" font-size="12" lengthAdjust="spacingAndGlyphs" textLength="76" x="1651" y="308.1387">Assessment</text></a><!--class DeliveryNote--><a target="_top" xlink:actuate="onRequest" xlink:href="../DeliveryNote.html" xlink:show="new" xlink:title="Document which is a proof of delivery of the product." xlink:type="simple"><rect fill="#FEFEEE" filter="url(#f1fletpcnt0270)" height="23.9688" id="DeliveryNote" style="stroke: #A80036; stroke-width: 1.5;" width="84" x="1765.5" y="292"/><rect fill="#FEFEEE" height="23.9688" style="stroke: #A80036; stroke-width: 1.5;" width="84" x="1765.5" y="292"/><text fill="#000000" font-family="sans-serif" font-size="12" lengthAdjust="spacingAndGlyphs" textLength="78" x="1768.5" y="308.1387">DeliveryNote</text></a><!--class ContactPoint--><a target="_top" xlink:actuate="onRequest" xlink:href="../ContactPoint.html" xlink:show="new" xlink:title="Number, physical or virtual address, used for communication." xlink:type="simple"><rect fill="#EEEEEE" filter="url(#f1fletpcnt0270)" height="23.9688" id="ContactPoint" style="stroke: #A80036; stroke-width: 1.5;" width="87" x="634.75" y="115"/><rect fill="#EEEEEE" height="23.9688" style="stroke: #A80036; stroke-width: 1.5;" width="87" x="634.75" y="115"/><text fill="#000000" font-family="sans-serif" font-size="12" lengthAdjust="spacingAndGlyphs" textLength="81" x="637.75" y="131.1387">ContactPoint</text></a><!--class PaymentObligation--><a target="_top" xlink:actuate="onRequest" xlink:href="../PaymentObligation.html" xlink:show="new" xlink:title="Obligation for the debtor to pay the creditor an amount of cash." xlink:type="simple"><rect fill="#EEEEEE" filter="url(#f1fletpcnt0270)" height="23.9688" id="PaymentObligation" style="stroke: #A80036; stroke-width: 1.5;" width="123" x="596.75" y="292"/><rect fill="#EEEEEE" height="23.9688" style="stroke: #A80036; stroke-width: 1.5;" width="123" x="596.75" y="292"/><text fill="#000000" font-family="sans-serif" font-size="12" lengthAdjust="spacingAndGlyphs" textLength="117" x="599.75" y="308.1387">PaymentObligation</text></a><!--class Agreement--><a target="_top" xlink:actuate="onRequest" xlink:href="../Agreement.html" xlink:show="new" xlink:title="Contractual details related to an agreement between parties." xlink:type="simple"><rect fill="#EEEEEE" filter="url(#f1fletpcnt0270)" height="23.9688" id="Agreement" style="stroke: #A80036; stroke-width: 1.5;" width="75" x="160.75" y="1250"/><rect fill="#EEEEEE" height="23.9688" style="stroke: #A80036; stroke-width: 1.5;" width="75" x="160.75" y="1250"/><text fill="#000000" font-family="sans-serif" font-size="12" lengthAdjust="spacingAndGlyphs" textLength="69" x="163.75" y="1266.1387">Agreement</text></a><!--class Location--><a target="_top" xlink:actuate="onRequest" xlink:href="../Location.html" xlink:show="new" xlink:title="Specifies a place." xlink:type="simple"><rect fill="#EEEEEE" filter="url(#f1fletpcnt0270)" height="23.9688" id="Location" style="stroke: #A80036; stroke-width: 1.5;" width="59" x="527.75" y="1164"/><rect fill="#EEEEEE" height="23.9688" style="stroke: #A80036; stroke-width: 1.5;" width="59" x="527.75" y="1164"/><text fill="#000000" font-family="sans-serif" font-size="12" lengthAdjust="spacingAndGlyphs" textLength="53" x="530.75" y="1180.1387">Location</text></a><!--class Reconciliation--><a target="_top" xlink:actuate="onRequest" xlink:href="../Reconciliation.html" xlink:show="new" xlink:title="Process of matching different documents submitted by parties to a trade." xlink:type="simple"><rect fill="#EEEEEE" filter="url(#f1fletpcnt0270)" height="23.9688" id="Reconciliation" style="stroke: #A80036; stroke-width: 1.5;" width="93" x="887.75" y="1078"/><rect fill="#EEEEEE" height="23.9688" style="stroke: #A80036; stroke-width: 1.5;" width="93" x="887.75" y="1078"/><text fill="#000000" font-family="sans-serif" font-size="12" lengthAdjust="spacingAndGlyphs" textLength="87" x="890.75" y="1094.1387">Reconciliation</text></a><!--class LetterOfCredit--><a target="_top" xlink:actuate="onRequest" xlink:href="../LetterOfCredit.html" xlink:show="new" xlink:title="Instrument issued by a bank substituting its name and credit standing for that of its customer. A letter of credit is a written undertaking of the bank, issued for the account of a customer (the applicant), to honour a demand for payment, upon the beneficiary's compliance with the terms and conditions set forth in the undertaking." xlink:type="simple"><rect fill="#EEEEEE" filter="url(#f1fletpcnt0270)" height="23.9688" id="LetterOfCredit" style="stroke: #A80036; stroke-width: 1.5;" width="93" x="887.75" y="992"/><rect fill="#EEEEEE" height="23.9688" style="stroke: #A80036; stroke-width: 1.5;" width="93" x="887.75" y="992"/><text fill="#000000" font-family="sans-serif" font-size="12" lengthAdjust="spacingAndGlyphs" textLength="87" x="890.75" y="1008.1387">LetterOfCredit</text></a><!--class DocumentPartyRole--><a target="_top" xlink:actuate="onRequest" xlink:href="../DocumentPartyRole.html" xlink:show="new" xlink:title="Role played by a party in the context of a document." xlink:type="simple"><rect fill="#EEEEEE" filter="url(#f1fletpcnt0270)" height="23.9688" id="DocumentPartyRole" style="stroke: #A80036; stroke-width: 1.5;" width="129" x="850.75" y="906"/><rect fill="#EEEEEE" height="23.9688" style="stroke: #A80036; stroke-width: 1.5;" width="129" x="850.75" y="906"/><text fill="#000000" font-family="sans-serif" font-size="12" lengthAdjust="spacingAndGlyphs" textLength="123" x="853.75" y="922.1387">DocumentPartyRole</text></a><!--class Transport--><a target="_top" xlink:actuate="onRequest" xlink:href="../Transport.html" xlink:show="new" xlink:title="Moving of goods or people from one place to another by vehicle." xlink:type="simple"><rect fill="#EEEEEE" filter="url(#f1fletpcnt0270)" height="23.9688" id="Transport" style="stroke: #A80036; stroke-width: 1.5;" width="67" x="881.75" y="804"/><rect fill="#EEEEEE" height="23.9688" style="stroke: #A80036; stroke-width: 1.5;" width="67" x="881.75" y="804"/><text fill="#000000" font-family="sans-serif" font-size="12" lengthAdjust="spacingAndGlyphs" textLength="61" x="884.75" y="820.1387">Transport</text></a><!--class Guarantee--><a target="_top" xlink:actuate="onRequest" xlink:href="../Guarantee.html" xlink:show="new" xlink:title="Partial or full coverage of amounts by a party other than the debtor." xlink:type="simple"><rect fill="#EEEEEE" filter="url(#f1fletpcnt0270)" height="23.9688" id="Guarantee" style="stroke: #A80036; stroke-width: 1.5;" width="73" x="905.75" y="702"/><rect fill="#EEEEEE" height="23.9688" style="stroke: #A80036; stroke-width: 1.5;" width="73" x="905.75" y="702"/><text fill="#000000" font-family="sans-serif" font-size="12" lengthAdjust="spacingAndGlyphs" textLength="67" x="908.75" y="718.1387">Guarantee</text></a><!--class GenericIdentification--><a target="_top" xlink:actuate="onRequest" xlink:href="../GenericIdentification.html" xlink:show="new" xlink:title="Information related to a non-standardised identification, such as a proprietary party identification or account identification." xlink:type="simple"><rect fill="#EEEEEE" filter="url(#f1fletpcnt0270)" height="23.9688" id="GenericIdentification" style="stroke: #A80036; stroke-width: 1.5;" width="135" x="829.75" y="600"/><rect fill="#EEEEEE" height="23.9688" style="stroke: #A80036; stroke-width: 1.5;" width="135" x="829.75" y="600"/><text fill="#000000" font-family="sans-serif" font-size="12" lengthAdjust="spacingAndGlyphs" textLength="129" x="832.75" y="616.1387">GenericIdentification</text></a><!--class Evidence--><a target="_top" xlink:actuate="onRequest" xlink:href="../Evidence.html" xlink:show="new" xlink:title="Element such as signature that can be used to prove a fact." xlink:type="simple"><rect fill="#EEEEEE" filter="url(#f1fletpcnt0270)" height="23.9688" id="Evidence" style="stroke: #A80036; stroke-width: 1.5;" width="62" x="901.5" y="498"/><rect fill="#EEEEEE" height="23.9688" style="stroke: #A80036; stroke-width: 1.5;" width="62" x="901.5" y="498"/><text fill="#000000" font-family="sans-serif" font-size="12" lengthAdjust="spacingAndGlyphs" textLength="56" x="904.5" y="514.1387">Evidence</text></a><!--class CommercialTrade--><a target="_top" xlink:actuate="onRequest" xlink:href="../CommercialTrade.html" xlink:show="new" xlink:title="Commercial details of a trade transaction between a buyer and a seller." xlink:type="simple"><rect fill="#EEEEEE" filter="url(#f1fletpcnt0270)" height="23.9688" id="CommercialTrade" style="stroke: #A80036; stroke-width: 1.5;" width="114" x="601" y="396"/><rect fill="#EEEEEE" height="23.9688" style="stroke: #A80036; stroke-width: 1.5;" width="114" x="601" y="396"/><text fill="#000000" font-family="sans-serif" font-size="12" lengthAdjust="spacingAndGlyphs" textLength="108" x="604" y="412.1387">CommercialTrade</text></a><!--class Presentation--><a target="_top" xlink:actuate="onRequest" xlink:href="../Presentation.html" xlink:show="new" xlink:title="Presentation of documents." xlink:type="simple"><rect fill="#EEEEEE" filter="url(#f1fletpcnt0270)" height="23.9688" id="Presentation" style="stroke: #A80036; stroke-width: 1.5;" width="87" x="759.75" y="804"/><rect fill="#EEEEEE" height="23.9688" style="stroke: #A80036; stroke-width: 1.5;" width="87" x="759.75" y="804"/><text fill="#000000" font-family="sans-serif" font-size="12" lengthAdjust="spacingAndGlyphs" textLength="81" x="762.75" y="820.1387">Presentation</text></a><!--class RegisteredContract--><a target="_top" xlink:actuate="onRequest" xlink:href="../RegisteredContract.html" xlink:show="new" xlink:title="Contract registered for regulatory purpose by a registration agent for the journaling of payments made against the contract." xlink:type="simple"><rect fill="#EEEEEE" filter="url(#f1fletpcnt0270)" height="23.9688" id="RegisteredContract" style="stroke: #A80036; stroke-width: 1.5;" width="128" x="742" y="702"/><rect fill="#EEEEEE" height="23.9688" style="stroke: #A80036; stroke-width: 1.5;" width="128" x="742" y="702"/><text fill="#000000" font-family="sans-serif" font-size="12" lengthAdjust="spacingAndGlyphs" textLength="122" x="745" y="718.1387">RegisteredContract</text></a><!--link Document to PrivateCertificate--><path d="M1580.18,167.89 C1435.21,208.09 1220.71,267.58 1132.79,291.97 " fill="none" id="Document-PrivateCertificate" style="stroke: #A80036; stroke-width: 1.0;"/><polygon fill="none" points="1578.57,161.07,1599.71,162.47,1582.31,174.56,1578.57,161.07" style="stroke: #A80036; stroke-width: 1.0;"/><!--link Document to InsuranceCertificate--><path d="M1580.7,181.02 C1475.07,220.1 1339.9,270.11 1280.85,291.96 " fill="none" id="Document-InsuranceCertificate" style="stroke: #A80036; stroke-width: 1.0;"/><polygon fill="none" points="1578.54,174.35,1599.72,173.98,1583.4,187.48,1578.54,174.35" style="stroke: #A80036; stroke-width: 1.0;"/><!--link Document to SecurityCertificate--><path d="M1581.71,207.81 C1523.2,240.63 1462.08,274.91 1431.66,291.97 " fill="none" id="Document-SecurityCertificate" style="stroke: #A80036; stroke-width: 1.0;"/><polygon fill="none" points="1578.48,201.6,1599.34,197.92,1585.33,213.81,1578.48,201.6" style="stroke: #A80036; stroke-width: 1.0;"/><!--link Document to TradeCertificate--><path d="M1629.84,228.48 C1605.81,254.12 1583.2,278.24 1570.53,291.77 " fill="none" id="Document-TradeCertificate" style="stroke: #A80036; stroke-width: 1.0;"/><polygon fill="none" points="1624.9,223.51,1643.68,213.71,1635.11,233.09,1624.9,223.51" style="stroke: #A80036; stroke-width: 1.0;"/><!--link Document to Assessment--><path d="M1702.91,233.47 C1698.16,257.22 1693.78,279.12 1691.25,291.77 " fill="none" id="Document-Assessment" style="stroke: #A80036; stroke-width: 1.0;"/><polygon fill="none" points="1696.07,231.94,1706.86,213.71,1709.8,234.69,1696.07,231.94" style="stroke: #A80036; stroke-width: 1.0;"/><!--link Document to DeliveryNote--><path d="M1773.35,232.05 C1784.87,256.34 1795.56,278.87 1801.67,291.77 " fill="none" id="Document-DeliveryNote" style="stroke: #A80036; stroke-width: 1.0;"/><polygon fill="none" points="1766.89,234.78,1764.65,213.71,1779.54,228.78,1766.89,234.78" style="stroke: #A80036; stroke-width: 1.0;"/><!--link PaymentObligation to ContactPoint--><!--link ContactPoint to PaymentObligation--><path d="M676.718,139.21 C673.298,169.15 663.937,251.05 659.898,286.4 " fill="none" id="ContactPoint-PaymentObligation" style="stroke: #A80036; stroke-width: 1.0;"/><polygon fill="#A80036" points="659.297,291.65,664.2753,283.152,659.8543,286.6812,656.3251,282.2602,659.297,291.65" style="stroke: #A80036; stroke-width: 1.0;"/><text fill="#000000" font-family="sans-serif" font-size="13" lengthAdjust="spacingAndGlyphs" textLength="178" x="666" y="257.0669">RemittanceRelatedPayment</text><text fill="#000000" font-family="sans-serif" font-size="13" lengthAdjust="spacingAndGlyphs" textLength="24" x="630.3376" y="280.8375">0..1</text><!--link Agreement to PaymentObligation--><!--link Location to Agreement--><!--link Reconciliation to Location--><!--link LetterOfCredit to Reconciliation--><!--link DocumentPartyRole to LetterOfCredit--><!--link Transport to DocumentPartyRole--><!--link Guarantee to Transport--><!--link GenericIdentification to Guarantee--><!--link Evidence to GenericIdentification--><!--link CommercialTrade to Evidence--><!--link Presentation to CommercialTrade--><!--link RegisteredContract to Presentation--><!--link Document to ContactPoint--><path d="M1599.66,127 C1368.47,127 881.871,127 726.664,127 " fill="none" id="Document-ContactPoint" style="stroke: #A80036; stroke-width: 1.0;"/><polygon fill="#A80036" points="721.283,127,730.283,131,726.283,127,730.283,123,721.283,127" style="stroke: #A80036; stroke-width: 1.0;"/><text fill="#000000" font-family="sans-serif" font-size="13" lengthAdjust="spacingAndGlyphs" textLength="99" x="1110.25" y="119.0669">PlaceOfStorage</text><text fill="#000000" font-family="sans-serif" font-size="13" lengthAdjust="spacingAndGlyphs" textLength="7" x="729.8625" y="121.5148">*</text><!--link Document to PaymentObligation--><path d="M1599.63,148.42 C1372.71,185.67 898.82,263.47 724.338,292.11 " fill="none" id="Document-PaymentObligation" style="stroke: #A80036; stroke-width: 1.0;"/><polygon fill="#A80036" points="719.264,292.94,728.7936,295.4275,724.1978,292.1291,727.4962,287.5334,719.264,292.94" style="stroke: #A80036; stroke-width: 1.0;"/><text fill="#000000" font-family="sans-serif" font-size="13" lengthAdjust="spacingAndGlyphs" textLength="121" x="1004" y="257.0669">PaymentObligation</text><text fill="#000000" font-family="sans-serif" font-size="13" lengthAdjust="spacingAndGlyphs" textLength="24" x="727.7062" y="286.7548">0..1</text><!--link Document to Agreement--><path d="M1848.44,131.77 C2174.38,143.28 3028,184.72 3028,303 C3028,303 3028,303 3028,1177 C3028,1249.95 593.068,1259.84 240.38,1260.8899 " fill="none" id="Document-Agreement" style="stroke: #A80036; stroke-width: 1.0;"/><polygon fill="#A80036" points="235.339,1260.9048,244.3515,1264.8765,240.339,1260.8891,244.3264,1256.8765,235.339,1260.9048" style="stroke: #A80036; stroke-width: 1.0;"/><text fill="#000000" font-family="sans-serif" font-size="13" lengthAdjust="spacingAndGlyphs" textLength="72" x="3029" y="769.0669">Agreement</text><text fill="#000000" font-family="sans-serif" font-size="13" lengthAdjust="spacingAndGlyphs" textLength="7" x="243.7105" y="1255.0096">*</text><!--link Document to Location--><path d="M1848.34,133.77 C2149.04,149.37 2891,198.45 2891,303 C2891,303 2891,303 2891,1091 C2891,1151.183 882.436,1171.994 591.868,1174.69 " fill="none" id="Document-Location" style="stroke: #A80036; stroke-width: 1.0;"/><polygon fill="#A80036" points="586.51,1174.739,595.5462,1178.6566,591.5098,1174.6933,595.4731,1170.6569,586.51,1174.739" style="stroke: #A80036; stroke-width: 1.0;"/><text fill="#000000" font-family="sans-serif" font-size="13" lengthAdjust="spacingAndGlyphs" textLength="81" x="2892" y="718.0669">PlaceOfIssue</text><text fill="#000000" font-family="sans-serif" font-size="13" lengthAdjust="spacingAndGlyphs" textLength="24" x="594.6331" y="1168.9003">0..1</text><!--link Document to Reconciliation--><path d="M1848.39,135 C2135.5,152.83 2820,205.54 2820,303 C2820,303 2820,303 2820,562 C2820,607.518 2788.35,610.485 2775,654 C2747.08,744.974 2745,770.839 2745,866 C2745,866 2745,866 2745,1005 C2745,1050.273 1281.35,1082.034 985.692,1087.988 " fill="none" id="Document-Reconciliation" style="stroke: #A80036; stroke-width: 1.0;"/><polygon fill="#A80036" points="980.586,1088.09,989.6653,1091.9066,985.585,1087.9886,989.503,1083.9083,980.586,1088.09" style="stroke: #A80036; stroke-width: 1.0;"/><text fill="#000000" font-family="sans-serif" font-size="13" lengthAdjust="spacingAndGlyphs" textLength="87" x="2776" y="667.0669">Reconciliation</text><text fill="#000000" font-family="sans-serif" font-size="13" lengthAdjust="spacingAndGlyphs" textLength="7" x="988.8401" y="1082.4463">*</text><!--link Document to LetterOfCredit--><path d="M1848.49,137.43 C2112.17,159.08 2703,217.16 2703,303 C2703,303 2703,303 2703,460 C2703,550.698 2674,571.302 2674,662 C2674,662 2674,662 2674,919 C2674,1005.774 1275.18,1004.471 985.947,1003.275 " fill="none" id="Document-LetterOfCredit" style="stroke: #A80036; stroke-width: 1.0;"/><polygon fill="#A80036" points="980.541,1003.252,989.5238,1007.2905,985.541,1003.2734,989.5581,999.2906,980.541,1003.252" style="stroke: #A80036; stroke-width: 1.0;"/><text fill="#000000" font-family="sans-serif" font-size="13" lengthAdjust="spacingAndGlyphs" textLength="90" x="2680" y="616.0669">LetterOfCredit</text><text fill="#000000" font-family="sans-serif" font-size="13" lengthAdjust="spacingAndGlyphs" textLength="8" x="988.8704" y="997.8008">1</text><!--link Document to DocumentPartyRole--><path d="M1848.35,139.19 C2097.03,163.23 2632,224.13 2632,303 C2632,303 2632,303 2632,460 C2632,503.292 2609.9,509.855 2600,552 C2588.73,599.978 2586,612.717 2586,662 C2586,662 2586,662 2586,817 C2586,898.57 1300.49,913.98 984.515,916.536 " fill="none" id="Document-DocumentPartyRole" style="stroke: #A80036; stroke-width: 1.0;"/><polygon fill="#A80036" points="979.481,916.576,988.5127,920.5039,984.4808,916.536,988.4487,912.5041,979.481,916.576" style="stroke: #A80036; stroke-width: 1.0;"/><text fill="#000000" font-family="sans-serif" font-size="13" lengthAdjust="spacingAndGlyphs" textLength="60" x="2601" y="565.0669">PartyRole</text><text fill="#000000" font-family="sans-serif" font-size="13" lengthAdjust="spacingAndGlyphs" textLength="7" x="987.7357" y="911.4434">*</text><!--link Document to Transport--><path d="M1848.46,130.05 C2071.22,137.13 2515,168.15 2515,303 C2515,303 2515,303 2515,664 C2515,713.018 2557.22,738.9 2523,774 C2494.72,803.015 1195.25,813.124 953.495,814.754 " fill="none" id="Document-Transport" style="stroke: #A80036; stroke-width: 1.0;"/><polygon fill="#A80036" points="948.318,814.789,957.3452,818.7272,953.3179,814.7547,957.2904,810.7274,948.318,814.789" style="stroke: #A80036; stroke-width: 1.0;"/><text fill="#000000" font-family="sans-serif" font-size="13" lengthAdjust="spacingAndGlyphs" textLength="61" x="2516" y="514.0669">Transport</text><text fill="#000000" font-family="sans-serif" font-size="13" lengthAdjust="spacingAndGlyphs" textLength="8" x="956.89" y="808.6292">1</text><!--link Document to Guarantee--><path d="M1848.27,137.44 C1989.14,151.03 2205.78,181.65 2256,244 C2305.07,304.92 2269.25,342.908 2256,420 C2242.59,498.018 2220.06,627.818 2157,672 C2107.96,706.361 1190.77,712.022 983.422,712.863 " fill="none" id="Document-Guarantee" style="stroke: #A80036; stroke-width: 1.0;"/><polygon fill="#A80036" points="978.366,712.884,987.3819,716.848,983.366,712.864,987.3499,708.848,978.366,712.884" style="stroke: #A80036; stroke-width: 1.0;"/><text fill="#000000" font-family="sans-serif" font-size="13" lengthAdjust="spacingAndGlyphs" textLength="68" x="2251" y="463.0669">Guarantee</text><text fill="#000000" font-family="sans-serif" font-size="13" lengthAdjust="spacingAndGlyphs" textLength="7" x="986.5368" y="706.9845">*</text><!--link Document to GenericIdentification--><path d="M1848.3,159.59 C1972.08,197.39 2134.53,268.05 2066,366 C1938.56,548.155 1204.52,597.048 969.42,608.126 " fill="none" id="Document-GenericIdentification" style="stroke: #A80036; stroke-width: 1.0;"/><polygon fill="#A80036" points="964.299,608.365,973.4765,611.939,969.2935,608.1308,973.1017,603.9478,964.299,608.365" style="stroke: #A80036; stroke-width: 1.0;"/><text fill="#000000" font-family="sans-serif" font-size="13" lengthAdjust="spacingAndGlyphs" textLength="148" x="2035" y="412.0669">DocumentIdentification</text><text fill="#000000" font-family="sans-serif" font-size="13" lengthAdjust="spacingAndGlyphs" textLength="8" x="972.9581" y="602.9629">1</text><!--link Document to Evidence--><path d="M1848.39,166.71 C1950.17,204.74 2067.99,267.49 2006,340 C1867.6,501.875 1138.67,509.685 967.844,509.262 " fill="none" id="Document-Evidence" style="stroke: #A80036; stroke-width: 1.0;"/><polygon fill="#A80036" points="962.716,509.247,971.7034,513.2753,967.716,509.2627,971.7285,505.2753,962.716,509.247" style="stroke: #A80036; stroke-width: 1.0;"/><text fill="#000000" font-family="sans-serif" font-size="13" lengthAdjust="spacingAndGlyphs" textLength="57" x="1999" y="361.0669">Evidence</text><text fill="#000000" font-family="sans-serif" font-size="13" lengthAdjust="spacingAndGlyphs" textLength="7" x="971.3557" y="502.9638">*</text><!--link Document to CommercialTrade--><path d="M1834.9,213.58 C1874.71,254.26 1901.88,302.14 1866,340 C1826.04,382.157 879.978,392.501 822,396 C788.476,398.023 751.115,400.511 720.529,402.609 " fill="none" id="Document-CommercialTrade" style="stroke: #A80036; stroke-width: 1.0;"/><polygon fill="#A80036" points="715.291,402.969,724.5441,406.3425,720.2792,402.6262,723.9956,398.3613,715.291,402.969" style="stroke: #A80036; stroke-width: 1.0;"/><text fill="#000000" font-family="sans-serif" font-size="13" lengthAdjust="spacingAndGlyphs" textLength="113" x="1883" y="308.0669">CommercialTrade</text><text fill="#000000" font-family="sans-serif" font-size="13" lengthAdjust="spacingAndGlyphs" textLength="7" x="723.0798" y="397.3127">*</text><!--link Document to Presentation--><path d="M1848.42,139.14 C1994.24,154.61 2224.13,187.3 2288,244 C2363.69,311.187 2349.15,368.818 2329,468 C2324.58,489.761 2290,537.794 2290,560 C2290,560 2290,560 2290,715 C2290,794.376 942.802,794.468 864,804 C859.93,804.492 855.721,805.082 851.504,805.728 " fill="none" id="Document-Presentation" style="stroke: #A80036; stroke-width: 1.0;"/><polygon fill="#A80036" points="846.558,806.511,856.0725,809.0553,851.4966,805.7296,854.8223,801.1536,846.558,806.511" style="stroke: #A80036; stroke-width: 1.0;"/><text fill="#000000" font-family="sans-serif" font-size="13" lengthAdjust="spacingAndGlyphs" textLength="81" x="2316" y="514.0669">Presentation</text><text fill="#000000" font-family="sans-serif" font-size="13" lengthAdjust="spacingAndGlyphs" textLength="24" x="854.6814" y="799.9478">0..1</text><!--link Document to RegisteredContract--><path d="M1848.29,153.15 C2020.67,193.66 2299.75,282.94 2193,420 C2151.23,473.629 1148.24,652.967 874.481,701.051 " fill="none" id="Document-RegisteredContract" style="stroke: #A80036; stroke-width: 1.0;"/><polygon fill="#A80036" points="869.325,701.957,878.8809,704.3414,874.2498,701.0929,877.4983,696.4618,869.325,701.957" style="stroke: #A80036; stroke-width: 1.0;"/><text fill="#000000" font-family="sans-serif" font-size="13" lengthAdjust="spacingAndGlyphs" textLength="103" x="2121" y="463.0669">RelatedContract</text><text fill="#000000" font-family="sans-serif" font-size="13" lengthAdjust="spacingAndGlyphs" textLength="8" x="878.187" y="691.7577">1</text><!--link InsuranceCertificate to Location--><path d="M1271.09,316.087 C1287.47,324.475 1311.49,335.32 1334,340 C1413.64,356.557 1985.9,333.873 2066,348 C2200.55,371.73 2240,377.813 2356,450 C2453.65,510.769 2411.23,587.26 2489,672 C2546.13,734.25 2816,781.507 2816,866 C2816,866 2816,866 2816,1091 C2816,1149.19 876.044,1171.668 591.635,1174.65 " fill="none" id="InsuranceCertificate-Location" style="stroke: #A80036; stroke-width: 1.0;"/><polygon fill="#A80036" points="586.388,1174.705,595.4287,1178.6122,591.3877,1174.6536,595.3464,1170.6126,586.388,1174.705" style="stroke: #A80036; stroke-width: 1.0;"/><text fill="#000000" font-family="sans-serif" font-size="13" lengthAdjust="spacingAndGlyphs" textLength="107" x="2705" y="769.0669">ClaimsPayableAt</text><text fill="#000000" font-family="sans-serif" font-size="13" lengthAdjust="spacingAndGlyphs" textLength="8" x="594.8796" y="1188.3829">1</text><!--link ContactPoint to GenericIdentification--><path d="M708.04,139.05 C748.147,155.44 818.269,190.19 854,244 C868.756,266.22 865,276.33 865,303 C865,303 865,303 865,511 C865,542.088 879.202,576.136 888.684,595.403 " fill="none" id="ContactPoint-GenericIdentification" style="stroke: #A80036; stroke-width: 1.0;"/><polygon fill="#A80036" points="890.981,599.973,890.5124,590.1353,888.7352,595.5057,883.3648,593.7285,890.981,599.973" style="stroke: #A80036; stroke-width: 1.0;"/><text fill="#000000" font-family="sans-serif" font-size="13" lengthAdjust="spacingAndGlyphs" textLength="81" x="866" y="412.0669">Identification</text><text fill="#000000" font-family="sans-serif" font-size="13" lengthAdjust="spacingAndGlyphs" textLength="8" x="878.1073" y="589.0119">1</text><!--link ContactPoint to ContactPoint--><path d="M691.417,114.8 C718.637,96.23 756,100.3 756,127 C756,152.24 722.612,157.26 695.966,142.05 " fill="none" id="ContactPoint-ContactPoint" style="stroke: #A80036; stroke-width: 1.0;"/><polygon fill="#A80036" points="691.417,139.2,696.9315,147.3603,695.6578,141.8487,701.1694,140.575,691.417,139.2" style="stroke: #A80036; stroke-width: 1.0;"/><text fill="#000000" font-family="sans-serif" font-size="13" lengthAdjust="spacingAndGlyphs" textLength="80" x="762" y="131.0669">MainContact</text><text fill="#000000" font-family="sans-serif" font-size="13" lengthAdjust="spacingAndGlyphs" textLength="8" x="685.6328" y="159.0561">1</text><!--link PaymentObligation to CommercialTrade--><path d="M658,316.306 C658,334.399 658,369.936 658,390.75 " fill="none" id="PaymentObligation-CommercialTrade" style="stroke: #A80036; stroke-width: 1.0;"/><polygon fill="#A80036" points="658,395.954,662,386.954,658,390.954,654,386.954,658,395.954" style="stroke: #A80036; stroke-width: 1.0;"/><text fill="#000000" font-family="sans-serif" font-size="13" lengthAdjust="spacingAndGlyphs" textLength="113" x="659" y="361.0669">CommercialTrade</text><text fill="#000000" font-family="sans-serif" font-size="13" lengthAdjust="spacingAndGlyphs" textLength="8" x="647.2813" y="384.9864">1</text><!--link Agreement to CommercialTrade--><path d="M160.733,1252.1911 C124.855,1241.2314 76,1218.6592 76,1177 C76,960 76,960 76,960 C76,896.42 80,880.58 80,817 C80,509 80,509 80,509 C80,449.569 142.772,466.031 200,450 C272.739,429.624 488.222,416.968 595.654,411.753 " fill="none" id="Agreement-CommercialTrade" style="stroke: #A80036; stroke-width: 1.0;"/><polygon fill="#A80036" points="600.687,411.51,591.5054,407.9466,595.6928,411.75,591.8894,415.9374,600.687,411.51" style="stroke: #A80036; stroke-width: 1.0;"/><text fill="#000000" font-family="sans-serif" font-size="13" lengthAdjust="spacingAndGlyphs" textLength="36" x="81" y="871.0669">Trade</text><text fill="#000000" font-family="sans-serif" font-size="13" lengthAdjust="spacingAndGlyphs" textLength="8" x="584.8715" y="407.0401">1</text><!--link Location to Transport--><path d="M583.811,1163.913 C610.654,1150.817 648,1126.261 648,1091 C648,917 648,917 648,917 C648,892.891 802.638,847.561 876.546,827.272 " fill="none" id="Location-Transport" style="stroke: #A80036; stroke-width: 1.0;"/><polygon fill="#A80036" points="881.724,825.855,871.9877,824.3701,876.901,827.1736,874.0975,832.0869,881.724,825.855" style="stroke: #A80036; stroke-width: 1.0;"/><text fill="#000000" font-family="sans-serif" font-size="13" lengthAdjust="spacingAndGlyphs" textLength="201" x="649" y="1008.0669">DepartureTransportParameters</text><text fill="#000000" font-family="sans-serif" font-size="13" lengthAdjust="spacingAndGlyphs" textLength="24" x="854.7467" y="842.1391">0..1</text><!--link Location to Transport--><path d="M527.476,1172.087 C431.147,1161.311 136.385,1117.611 211,992 C274.584,884.959 337.565,893.156 457,858 C630.573,806.908 683.862,853.448 863,828 C867.428,827.371 872.043,826.586 876.616,825.726 " fill="none" id="Location-Transport" style="stroke: #A80036; stroke-width: 1.0;"/><polygon fill="#A80036" points="881.551,824.768,871.9537,822.5564,876.6426,825.7208,873.4782,830.4098,881.551,824.768" style="stroke: #A80036; stroke-width: 1.0;"/><text fill="#000000" font-family="sans-serif" font-size="13" lengthAdjust="spacingAndGlyphs" textLength="209" x="212" y="1008.0669">DestinationTransportParameters</text><text fill="#000000" font-family="sans-serif" font-size="13" lengthAdjust="spacingAndGlyphs" textLength="24" x="854.7145" y="820.9208">0..1</text><!--link Location to Transport--><path d="M530.189,1163.913 C503.346,1150.817 466,1126.261 466,1091 C466,917 466,917 466,917 C466,826.588 774.517,846.576 863,828 C867.443,827.067 872.1,826.087 876.723,825.111 " fill="none" id="Location-Transport" style="stroke: #A80036; stroke-width: 1.0;"/><polygon fill="#A80036" points="881.715,824.057,872.0828,822.0027,876.8229,825.09,873.7356,829.8301,881.715,824.057" style="stroke: #A80036; stroke-width: 1.0;"/><text fill="#000000" font-family="sans-serif" font-size="13" lengthAdjust="spacingAndGlyphs" textLength="109" x="467" y="1008.0669">RelatedTransport</text><text fill="#000000" font-family="sans-serif" font-size="13" lengthAdjust="spacingAndGlyphs" textLength="8" x="865.8399" y="844.5299">1</text><!--link Location to GenericIdentification--><path d="M527.658,1172.558 C453.4,1165.802 260.678,1144.486 215,1102 C149.555,1041.129 120.036,980.107 170,906 C320.362,682.982 671.923,629.68 824.359,616.968 " fill="none" id="Location-GenericIdentification" style="stroke: #A80036; stroke-width: 1.0;"/><polygon fill="#A80036" points="829.697,616.533,820.4021,613.2766,824.7135,616.9388,821.0513,621.2502,829.697,616.533" style="stroke: #A80036; stroke-width: 1.0;"/><text fill="#000000" font-family="sans-serif" font-size="13" lengthAdjust="spacingAndGlyphs" textLength="81" x="171" y="922.0669">Identification</text><text fill="#000000" font-family="sans-serif" font-size="13" lengthAdjust="spacingAndGlyphs" textLength="7" x="814.8294" y="612.2296">*</text><!--link GenericIdentification to RegisteredContract--><path d="M846.808,624.091 C831.03,630.196 815.311,639.592 806,654 C797.925,666.496 799.013,683.805 801.466,696.443 " fill="none" id="GenericIdentification-RegisteredContract" style="stroke: #A80036; stroke-width: 1.0;"/><polygon fill="#A80036" points="802.578,701.546,804.5707,691.9008,801.5138,696.6606,796.7541,693.6036,802.578,701.546" style="stroke: #A80036; stroke-width: 1.0;"/><text fill="#000000" font-family="sans-serif" font-size="13" lengthAdjust="spacingAndGlyphs" textLength="113" x="807" y="667.0669">RelatedCertificate</text><text fill="#000000" font-family="sans-serif" font-size="13" lengthAdjust="spacingAndGlyphs" textLength="8" x="790.8935" y="690.96">1</text></g></svg>