<?xml version="1.0" encoding="UTF-8" standalone="no"?><svg xmlns="http://www.w3.org/2000/svg" xmlns:xlink="http://www.w3.org/1999/xlink" contentScriptType="application/ecmascript" contentStyleType="text/css" height="482px" preserveAspectRatio="none" style="width:846px;height:482px;" version="1.1" viewBox="0 0 846 482" width="846px" zoomAndPan="magnify"><defs><filter height="300%" id="f1gwmo8r6oxg3v" width="300%" x="-1" y="-1"><feGaussianBlur result="blurOut" stdDeviation="2.0"/><feColorMatrix in="blurOut" result="blurOut2" type="matrix" values="0 0 0 0 0 0 0 0 0 0 0 0 0 0 0 0 0 0 .4 0"/><feOffset dx="4.0" dy="4.0" in="blurOut2" result="blurOut3"/><feBlend in="SourceGraphic" in2="blurOut3" mode="normal"/></filter></defs><g><!--cluster ##9963--><!--cluster ##9972--><!--cluster ##9981--><!--class Role--><a target="_top" xlink:actuate="onRequest" xlink:href="../Role.html" xlink:show="new" xlink:title="Role of a party in an activity." xlink:type="simple"><rect fill="#FEFEEE" filter="url(#f1gwmo8r6oxg3v)" height="44.7734" id="Role" style="stroke: #A80036; stroke-width: 1.5;" width="175" x="38.75" y="40.5"/><rect fill="#FEFEEE" height="23.9688" style="stroke: #A80036; stroke-width: 1.5;" width="175" x="38.75" y="40.5"/><text fill="#000000" font-family="sans-serif" font-size="12" lengthAdjust="spacingAndGlyphs" textLength="27" x="112.75" y="56.6387">Role</text><line style="stroke: #A80036; stroke-width: 1.5;" x1="39.75" x2="212.75" y1="64.4688" y2="64.4688"/><ellipse cx="49.75" cy="76.3711" fill="#84BE84" rx="3" ry="3" style="stroke: #038048; stroke-width: 1.0;"/><text fill="#000000" font-family="sans-serif" font-size="11" lengthAdjust="spacingAndGlyphs" textLength="53" x="58.75" y="78.6792">PartyRole</text><text fill="#000000" font-family="sans-serif" font-size="11" font-style="italic" lengthAdjust="spacingAndGlyphs" textLength="92" x="115.75" y="78.6792">(PartyRoleCode)</text></a><!--class InvoicePartyRole--><a target="_top" xlink:actuate="onRequest" xlink:href="../InvoicePartyRole.html" xlink:show="new" xlink:title="Role played by a party in the context of an invoice." xlink:type="simple"><rect fill="#FEFECE" filter="url(#f1gwmo8r6oxg3v)" height="23.9688" id="InvoicePartyRole" style="stroke: #A80036; stroke-width: 1.5;" width="108" x="75" y="166"/><rect fill="#FEFECE" height="23.9688" style="stroke: #A80036; stroke-width: 1.5;" width="108" x="75" y="166"/><text fill="#000000" font-family="sans-serif" font-size="12" lengthAdjust="spacingAndGlyphs" textLength="102" x="78" y="182.1387">InvoicePartyRole</text></a><!--class InvoiceFinancingPartyRole--><a target="_top" xlink:actuate="onRequest" xlink:href="../InvoiceFinancingPartyRole.html" xlink:show="new" xlink:title="Role played by a party in the context of financing an invoice." xlink:type="simple"><rect fill="#FEFEEE" filter="url(#f1gwmo8r6oxg3v)" height="23.9688" id="InvoiceFinancingPartyRole" style="stroke: #A80036; stroke-width: 1.5;" width="168" x="45.5" y="272"/><rect fill="#FEFEEE" height="23.9688" style="stroke: #A80036; stroke-width: 1.5;" width="168" x="45.5" y="272"/><text fill="#000000" font-family="sans-serif" font-size="12" lengthAdjust="spacingAndGlyphs" textLength="162" x="48.5" y="288.1387">InvoiceFinancingPartyRole</text></a><!--class RolePlayer--><a target="_top" xlink:actuate="onRequest" xlink:href="../RolePlayer.html" xlink:show="new" xlink:title="Type of entity that plays a specific role in a specific context." xlink:type="simple"><rect fill="#EEEEEE" filter="url(#f1gwmo8r6oxg3v)" height="23.9688" id="RolePlayer" style="stroke: #A80036; stroke-width: 1.5;" width="71" x="656.75" y="448"/><rect fill="#EEEEEE" height="23.9688" style="stroke: #A80036; stroke-width: 1.5;" width="71" x="656.75" y="448"/><text fill="#000000" font-family="sans-serif" font-size="12" lengthAdjust="spacingAndGlyphs" textLength="65" x="659.75" y="464.1387">RolePlayer</text></a><!--class ContactPersonRole--><a target="_top" xlink:actuate="onRequest" xlink:href="../ContactPersonRole.html" xlink:show="new" xlink:title="Person to be contacted in a given organisation. In the corporate action domain (including meeting notifications) , it is the contact person at the party organising the meeting, at the issuer or at an intermediary." xlink:type="simple"><rect fill="#EEEEEE" filter="url(#f1gwmo8r6oxg3v)" height="23.9688" id="ContactPersonRole" style="stroke: #A80036; stroke-width: 1.5;" width="126" x="649" y="362"/><rect fill="#EEEEEE" height="23.9688" style="stroke: #A80036; stroke-width: 1.5;" width="126" x="649" y="362"/><text fill="#000000" font-family="sans-serif" font-size="12" lengthAdjust="spacingAndGlyphs" textLength="120" x="652" y="378.1387">ContactPersonRole</text></a><!--class CounterpartyRisk--><a target="_top" xlink:actuate="onRequest" xlink:href="../CounterpartyRisk.html" xlink:show="new" xlink:title="Calculation of the exposure amount that one party has vis-a-vis one counterparty or a central system, based on its credit risk." xlink:type="simple"><rect fill="#EEEEEE" filter="url(#f1gwmo8r6oxg3v)" height="23.9688" id="CounterpartyRisk" style="stroke: #A80036; stroke-width: 1.5;" width="113" x="661.75" y="272"/><rect fill="#EEEEEE" height="23.9688" style="stroke: #A80036; stroke-width: 1.5;" width="113" x="661.75" y="272"/><text fill="#000000" font-family="sans-serif" font-size="12" lengthAdjust="spacingAndGlyphs" textLength="107" x="664.75" y="288.1387">CounterpartyRisk</text></a><!--class Entry--><a target="_top" xlink:actuate="onRequest" xlink:href="../Entry.html" xlink:show="new" xlink:title="Posting to an account that results in an increase or decrease to a balance." xlink:type="simple"><rect fill="#EEEEEE" filter="url(#f1gwmo8r6oxg3v)" height="23.9688" id="Entry" style="stroke: #A80036; stroke-width: 1.5;" width="38" x="649" y="166"/><rect fill="#EEEEEE" height="23.9688" style="stroke: #A80036; stroke-width: 1.5;" width="38" x="649" y="166"/><text fill="#000000" font-family="sans-serif" font-size="12" lengthAdjust="spacingAndGlyphs" textLength="32" x="652" y="182.1387">Entry</text></a><!--class Invoice--><a target="_top" xlink:actuate="onRequest" xlink:href="../Invoice.html" xlink:show="new" xlink:title="General information about an invoice, such as number, issue date date and monetary amounts." xlink:type="simple"><rect fill="#EEEEEE" filter="url(#f1gwmo8r6oxg3v)" height="23.9688" id="Invoice" style="stroke: #A80036; stroke-width: 1.5;" width="49" x="270.75" y="272"/><rect fill="#EEEEEE" height="23.9688" style="stroke: #A80036; stroke-width: 1.5;" width="49" x="270.75" y="272"/><text fill="#000000" font-family="sans-serif" font-size="12" lengthAdjust="spacingAndGlyphs" textLength="43" x="273.75" y="288.1387">Invoice</text></a><!--link Role to InvoicePartyRole--><path d="M127.103,105.559 C127.677,127.159 128.334,151.898 128.704,165.865 " fill="none" id="Role-InvoicePartyRole" style="stroke: #A80036; stroke-width: 1.0;"/><polygon fill="none" points="120.105,105.699,126.571,85.52,134.1,105.328,120.105,105.699" style="stroke: #A80036; stroke-width: 1.0;"/><!--link InvoicePartyRole to InvoiceFinancingPartyRole--><path d="M129,210.217 C129,231.114 129,257.371 129,271.95 " fill="none" id="InvoicePartyRole-InvoiceFinancingPartyRole" style="stroke: #A80036; stroke-width: 1.0;"/><polygon fill="none" points="122,210.13,129,190.13,136,210.13,122,210.13" style="stroke: #A80036; stroke-width: 1.0;"/><!--link ContactPersonRole to RolePlayer--><!--link CounterpartyRisk to ContactPersonRole--><!--link Entry to CounterpartyRisk--><!--link Role to RolePlayer--><path d="M213.333,71.891 C327.475,84.665 513,114.969 513,177 C513,177 513,177 513,375 C513,435.8572 598.842,452.7099 651.634,457.3199 " fill="none" id="Role-RolePlayer" style="stroke: #A80036; stroke-width: 1.0;"/><polygon fill="#A80036" points="656.635,457.7288,647.9919,453.0068,651.6517,457.3202,647.3382,460.98,656.635,457.7288" style="stroke: #A80036; stroke-width: 1.0;"/><text fill="#000000" font-family="sans-serif" font-size="13" lengthAdjust="spacingAndGlyphs" textLength="39" x="514" y="288.0669">Player</text><text fill="#000000" font-family="sans-serif" font-size="13" lengthAdjust="spacingAndGlyphs" textLength="7" x="641.7402" y="451.9585">*</text><!--link Role to ContactPersonRole--><path d="M213.358,64.892 C319.198,67.668 489.514,78.103 539,116 C585.524,151.629 561.715,186.141 589,238 C609.778,277.492 613.468,289.456 644,322 C657.542,336.435 675.56,349.743 689.646,359.144 " fill="none" id="Role-ContactPersonRole" style="stroke: #A80036; stroke-width: 1.0;"/><polygon fill="#A80036" points="693.883,361.932,688.5653,353.6421,689.7068,359.1826,684.1663,360.3241,693.883,361.932" style="stroke: #A80036; stroke-width: 1.0;"/><text fill="#000000" font-family="sans-serif" font-size="13" lengthAdjust="spacingAndGlyphs" textLength="121" x="590" y="233.0669">ContactPersonRole</text><text fill="#000000" font-family="sans-serif" font-size="13" lengthAdjust="spacingAndGlyphs" textLength="8" x="676.9365" y="350.9568">1</text><!--link Role to CounterpartyRisk--><path d="M213.483,63.496 C350.327,64.129 607.502,71.455 686,116 C716.961,133.569 731.627,217.782 732,220 C734.723,236.192 729.741,254.491 724.983,267.178 " fill="none" id="Role-CounterpartyRisk" style="stroke: #A80036; stroke-width: 1.0;"/><polygon fill="#A80036" points="723.118,271.916,730.1346,265.0046,724.9481,267.263,722.6897,262.0765,723.118,271.916" style="stroke: #A80036; stroke-width: 1.0;"/><text fill="#000000" font-family="sans-serif" font-size="13" lengthAdjust="spacingAndGlyphs" textLength="109" x="725" y="182.0669">CounterpartyRisk</text><text fill="#000000" font-family="sans-serif" font-size="13" lengthAdjust="spacingAndGlyphs" textLength="24" x="695.3226" y="260.9353">0..1</text><!--link Role to Entry--><path d="M213.253,64.888 C336.509,67.521 554.166,77.649 622,116 C640.05,126.205 653.209,146.694 660.719,161.101 " fill="none" id="Role-Entry" style="stroke: #A80036; stroke-width: 1.0;"/><polygon fill="#A80036" points="663.049,165.73,662.5766,155.8925,660.8015,161.2636,655.4304,159.4885,663.049,165.73" style="stroke: #A80036; stroke-width: 1.0;"/><text fill="#000000" font-family="sans-serif" font-size="13" lengthAdjust="spacingAndGlyphs" textLength="33" x="643" y="129.0669">Entry</text><text fill="#000000" font-family="sans-serif" font-size="13" lengthAdjust="spacingAndGlyphs" textLength="8" x="650.7527" y="154.944">1</text><!--link InvoicePartyRole to Invoice--><path d="M146.765,190.13 C177.342,209.287 239.83,248.436 273.068,269.26 " fill="none" id="InvoicePartyRole-Invoice" style="stroke: #A80036; stroke-width: 1.0;"/><polygon fill="#A80036" points="277.363,271.95,271.8594,263.7823,273.1257,269.2956,267.6124,270.562,277.363,271.95" style="stroke: #A80036; stroke-width: 1.0;"/><text fill="#000000" font-family="sans-serif" font-size="13" lengthAdjust="spacingAndGlyphs" textLength="44" x="223" y="233.0669">Invoice</text><text fill="#000000" font-family="sans-serif" font-size="13" lengthAdjust="spacingAndGlyphs" textLength="7" x="261.6675" y="260.981">*</text><!--link Invoice to Invoice--><path d="M319.549,276.26 C336.858,273.828 354,276.408 354,284 C354,290.821 340.163,293.596 324.8,292.326 " fill="none" id="Invoice-Invoice" style="stroke: #A80036; stroke-width: 1.0;"/><polygon fill="#A80036" points="319.549,291.74,328.0502,296.7129,324.5182,292.2942,328.9369,288.7622,319.549,291.74" style="stroke: #A80036; stroke-width: 1.0;"/><text fill="#000000" font-family="sans-serif" font-size="13" lengthAdjust="spacingAndGlyphs" textLength="92" x="360" y="288.0669">OriginalInvoice</text><text fill="#000000" font-family="sans-serif" font-size="13" lengthAdjust="spacingAndGlyphs" textLength="8" x="327.8618" y="287.6077">1</text></g></svg>