<?xml version="1.0" encoding="UTF-8" standalone="no"?><svg xmlns="http://www.w3.org/2000/svg" xmlns:xlink="http://www.w3.org/1999/xlink" contentScriptType="application/ecmascript" contentStyleType="text/css" height="484px" preserveAspectRatio="none" style="width:660px;height:484px;" version="1.1" viewBox="0 0 660 484" width="660px" zoomAndPan="magnify"><defs><filter height="300%" id="f1o4n5v93saew1" width="300%" x="-1" y="-1"><feGaussianBlur result="blurOut" stdDeviation="2.0"/><feColorMatrix in="blurOut" result="blurOut2" type="matrix" values="0 0 0 0 0 0 0 0 0 0 0 0 0 0 0 0 0 0 .4 0"/><feOffset dx="4.0" dy="4.0" in="blurOut2" result="blurOut3"/><feBlend in="SourceGraphic" in2="blurOut3" mode="normal"/></filter></defs><g><!--cluster ##29238--><!--cluster ##29244--><!--cluster ##29253--><!--class Role--><a target="_top" xlink:actuate="onRequest" xlink:href="../Role.html" xlink:show="new" xlink:title="Role of a party in an activity." xlink:type="simple"><rect fill="#FEFEEE" filter="url(#f1o4n5v93saew1)" height="44.7734" id="Role" style="stroke: #A80036; stroke-width: 1.5;" width="175" x="132.75" y="40.5"/><rect fill="#FEFEEE" height="23.9688" style="stroke: #A80036; stroke-width: 1.5;" width="175" x="132.75" y="40.5"/><text fill="#000000" font-family="sans-serif" font-size="12" lengthAdjust="spacingAndGlyphs" textLength="27" x="206.75" y="56.6387">Role</text><line style="stroke: #A80036; stroke-width: 1.5;" x1="133.75" x2="306.75" y1="64.4688" y2="64.4688"/><ellipse cx="143.75" cy="76.3711" fill="#84BE84" rx="3" ry="3" style="stroke: #038048; stroke-width: 1.0;"/><text fill="#000000" font-family="sans-serif" font-size="11" lengthAdjust="spacingAndGlyphs" textLength="53" x="152.75" y="78.6792">PartyRole</text><text fill="#000000" font-family="sans-serif" font-size="11" font-style="italic" lengthAdjust="spacingAndGlyphs" textLength="92" x="209.75" y="78.6792">(PartyRoleCode)</text></a><!--class MandatePartyRole--><a target="_top" xlink:actuate="onRequest" xlink:href="../MandatePartyRole.html" xlink:show="new" xlink:title="Role played by a party in the context of a mandate." xlink:type="simple"><rect fill="#FEFECE" filter="url(#f1o4n5v93saew1)" height="23.9688" id="MandatePartyRole" style="stroke: #A80036; stroke-width: 1.5;" width="120" x="132.5" y="166"/><rect fill="#FEFECE" height="23.9688" style="stroke: #A80036; stroke-width: 1.5;" width="120" x="132.5" y="166"/><text fill="#000000" font-family="sans-serif" font-size="12" lengthAdjust="spacingAndGlyphs" textLength="114" x="135.5" y="182.1387">MandatePartyRole</text></a><!--class RolePlayer--><a target="_top" xlink:actuate="onRequest" xlink:href="../RolePlayer.html" xlink:show="new" xlink:title="Type of entity that plays a specific role in a specific context." xlink:type="simple"><rect fill="#EEEEEE" filter="url(#f1o4n5v93saew1)" height="23.9688" id="RolePlayer" style="stroke: #A80036; stroke-width: 1.5;" width="71" x="530.75" y="450"/><rect fill="#EEEEEE" height="23.9688" style="stroke: #A80036; stroke-width: 1.5;" width="71" x="530.75" y="450"/><text fill="#000000" font-family="sans-serif" font-size="12" lengthAdjust="spacingAndGlyphs" textLength="65" x="533.75" y="466.1387">RolePlayer</text></a><!--class ContactPersonRole--><a target="_top" xlink:actuate="onRequest" xlink:href="../ContactPersonRole.html" xlink:show="new" xlink:title="Person to be contacted in a given organisation. In the corporate action domain (including meeting notifications) , it is the contact person at the party organising the meeting, at the issuer or at an intermediary." xlink:type="simple"><rect fill="#EEEEEE" filter="url(#f1o4n5v93saew1)" height="23.9688" id="ContactPersonRole" style="stroke: #A80036; stroke-width: 1.5;" width="126" x="523" y="364"/><rect fill="#EEEEEE" height="23.9688" style="stroke: #A80036; stroke-width: 1.5;" width="126" x="523" y="364"/><text fill="#000000" font-family="sans-serif" font-size="12" lengthAdjust="spacingAndGlyphs" textLength="120" x="526" y="380.1387">ContactPersonRole</text></a><!--class CounterpartyRisk--><a target="_top" xlink:actuate="onRequest" xlink:href="../CounterpartyRisk.html" xlink:show="new" xlink:title="Calculation of the exposure amount that one party has vis-a-vis one counterparty or a central system, based on its credit risk." xlink:type="simple"><rect fill="#EEEEEE" filter="url(#f1o4n5v93saew1)" height="23.9688" id="CounterpartyRisk" style="stroke: #A80036; stroke-width: 1.5;" width="113" x="529.75" y="274"/><rect fill="#EEEEEE" height="23.9688" style="stroke: #A80036; stroke-width: 1.5;" width="113" x="529.75" y="274"/><text fill="#000000" font-family="sans-serif" font-size="12" lengthAdjust="spacingAndGlyphs" textLength="107" x="532.75" y="290.1387">CounterpartyRisk</text></a><!--class Entry--><a target="_top" xlink:actuate="onRequest" xlink:href="../Entry.html" xlink:show="new" xlink:title="Posting to an account that results in an increase or decrease to a balance." xlink:type="simple"><rect fill="#EEEEEE" filter="url(#f1o4n5v93saew1)" height="23.9688" id="Entry" style="stroke: #A80036; stroke-width: 1.5;" width="38" x="611" y="166"/><rect fill="#EEEEEE" height="23.9688" style="stroke: #A80036; stroke-width: 1.5;" width="38" x="611" y="166"/><text fill="#000000" font-family="sans-serif" font-size="12" lengthAdjust="spacingAndGlyphs" textLength="32" x="614" y="182.1387">Entry</text></a><!--class Mandate--><a target="_top" xlink:actuate="onRequest" xlink:href="../Mandate.html" xlink:show="new" xlink:title="Authorisation given by an issuing party to a holder party to act on the issuer's behalf." xlink:type="simple"><rect fill="#EEEEEE" filter="url(#f1o4n5v93saew1)" height="23.9688" id="Mandate" style="stroke: #A80036; stroke-width: 1.5;" width="61" x="38.75" y="274"/><rect fill="#EEEEEE" height="23.9688" style="stroke: #A80036; stroke-width: 1.5;" width="61" x="38.75" y="274"/><text fill="#000000" font-family="sans-serif" font-size="12" lengthAdjust="spacingAndGlyphs" textLength="55" x="41.75" y="290.1387">Mandate</text></a><!--link Role to MandatePartyRole--><path d="M209.786,105.222 C204.414,126.901 198.238,151.825 194.759,165.865 " fill="none" id="Role-MandatePartyRole" style="stroke: #A80036; stroke-width: 1.0;"/><polygon fill="none" points="203.063,103.25,214.668,85.52,216.652,106.617,203.063,103.25" style="stroke: #A80036; stroke-width: 1.0;"/><!--link ContactPersonRole to RolePlayer--><!--link CounterpartyRisk to ContactPersonRole--><!--link Entry to CounterpartyRisk--><!--link Role to RolePlayer--><path d="M249.729,85.517 C274.24,105.982 305,139.195 305,177 C305,177 305,177 305,377 C305,422.7304 452.025,447.1339 525.378,456.4635 " fill="none" id="Role-RolePlayer" style="stroke: #A80036; stroke-width: 1.0;"/><polygon fill="#A80036" points="530.529,457.1092,522.0959,452.0216,525.5678,456.4878,521.1016,459.9596,530.529,457.1092" style="stroke: #A80036; stroke-width: 1.0;"/><text fill="#000000" font-family="sans-serif" font-size="13" lengthAdjust="spacingAndGlyphs" textLength="39" x="306" y="290.0669">Player</text><text fill="#000000" font-family="sans-serif" font-size="13" lengthAdjust="spacingAndGlyphs" textLength="7" x="515.8674" y="450.9718">*</text><!--link Role to ContactPersonRole--><path d="M289.14,85.571 C304.625,93.123 319.768,103.065 331,116 C368.792,159.523 333.85,194.317 369,240 C416.739,302.045 501.753,342.693 549.983,361.965 " fill="none" id="Role-ContactPersonRole" style="stroke: #A80036; stroke-width: 1.0;"/><polygon fill="#A80036" points="554.819,363.876,547.9184,356.8488,550.1688,362.0388,544.9788,364.2892,554.819,363.876" style="stroke: #A80036; stroke-width: 1.0;"/><text fill="#000000" font-family="sans-serif" font-size="13" lengthAdjust="spacingAndGlyphs" textLength="121" x="370" y="235.0669">ContactPersonRole</text><text fill="#000000" font-family="sans-serif" font-size="13" lengthAdjust="spacingAndGlyphs" textLength="8" x="533.3818" y="352.8816">1</text><!--link Role to CounterpartyRisk--><path d="M307.489,77.689 C339.085,85.452 373.867,97.478 402,116 C448.961,146.918 436.981,180.317 482,214 C489.336,219.489 493.04,217.462 501,222 C526.155,236.342 552.561,256.91 569.139,270.597 " fill="none" id="Role-CounterpartyRisk" style="stroke: #A80036; stroke-width: 1.0;"/><polygon fill="#A80036" points="573.135,273.921,568.773,265.0908,569.2907,270.7239,563.6576,271.2416,573.135,273.921" style="stroke: #A80036; stroke-width: 1.0;"/><text fill="#000000" font-family="sans-serif" font-size="13" lengthAdjust="spacingAndGlyphs" textLength="109" x="483" y="182.0669">CounterpartyRisk</text><text fill="#000000" font-family="sans-serif" font-size="13" lengthAdjust="spacingAndGlyphs" textLength="24" x="539.158" y="262.9421">0..1</text><!--link Role to Entry--><path d="M307.456,70.519 C383.793,78.994 495.836,98.305 584,142 C594.818,147.361 605.627,155.414 614.047,162.444 " fill="none" id="Role-Entry" style="stroke: #A80036; stroke-width: 1.0;"/><polygon fill="#A80036" points="617.979,165.797,613.7265,156.9135,614.1746,162.5526,608.5355,163.0006,617.979,165.797" style="stroke: #A80036; stroke-width: 1.0;"/><text fill="#000000" font-family="sans-serif" font-size="13" lengthAdjust="spacingAndGlyphs" textLength="33" x="566" y="129.0669">Entry</text><text fill="#000000" font-family="sans-serif" font-size="13" lengthAdjust="spacingAndGlyphs" textLength="8" x="603.3408" y="155.0332">1</text><!--link MandatePartyRole to Mandate--><path d="M178.837,190.344 C156.365,209.71 110.633,249.121 85.8581,270.472 " fill="none" id="MandatePartyRole-Mandate" style="stroke: #A80036; stroke-width: 1.0;"/><polygon fill="#A80036" points="82.0685,273.738,91.4972,270.8921,85.8559,270.4737,86.2743,264.8323,82.0685,273.738" style="stroke: #A80036; stroke-width: 1.0;"/><text fill="#000000" font-family="sans-serif" font-size="13" lengthAdjust="spacingAndGlyphs" textLength="56" x="143" y="235.0669">Mandate</text><text fill="#000000" font-family="sans-serif" font-size="13" lengthAdjust="spacingAndGlyphs" textLength="7" x="76.824" y="262.9547">*</text><!--link Mandate to Mandate--><path d="M99.425,277.881 C117.284,276.151 134,278.857 134,286 C134,292.417 120.507,295.253 104.8147,294.509 " fill="none" id="Mandate-Mandate" style="stroke: #A80036; stroke-width: 1.0;"/><polygon fill="#A80036" points="99.425,294.119,108.113,298.7578,104.412,294.4797,108.6901,290.7787,99.425,294.119" style="stroke: #A80036; stroke-width: 1.0;"/><text fill="#000000" font-family="sans-serif" font-size="13" lengthAdjust="spacingAndGlyphs" textLength="104" x="140" y="290.0669">OriginalMandate</text><text fill="#000000" font-family="sans-serif" font-size="13" lengthAdjust="spacingAndGlyphs" textLength="8" x="107.7552" y="290.113">1</text></g></svg>