<?xml version="1.0" encoding="UTF-8" standalone="no"?><svg xmlns="http://www.w3.org/2000/svg" xmlns:xlink="http://www.w3.org/1999/xlink" contentScriptType="application/ecmascript" contentStyleType="text/css" height="1612px" preserveAspectRatio="none" style="width:2120px;height:1612px;" version="1.1" viewBox="0 0 2120 1612" width="2120px" zoomAndPan="magnify"><defs><filter height="300%" id="f5en0yvvk3u0r" width="300%" x="-1" y="-1"><feGaussianBlur result="blurOut" stdDeviation="2.0"/><feColorMatrix in="blurOut" result="blurOut2" type="matrix" values="0 0 0 0 0 0 0 0 0 0 0 0 0 0 0 0 0 0 .4 0"/><feOffset dx="4.0" dy="4.0" in="blurOut2" result="blurOut3"/><feBlend in="SourceGraphic" in2="blurOut3" mode="normal"/></filter></defs><g><!--cluster ##3681--><!--cluster ##3687--><!--cluster ##3690--><!--class ObligationFulfilment--><a target="_top" xlink:actuate="onRequest" xlink:href="../ObligationFulfilment.html" xlink:show="new" xlink:title="Processes by which an obligation is extinguished fully or partially." xlink:type="simple"><rect fill="#FEFEEE" filter="url(#f5en0yvvk3u0r)" height="44.7734" id="ObligationFulfilment" style="stroke: #A80036; stroke-width: 1.5;" width="129" x="1345.75" y="40.5"/><rect fill="#FEFEEE" height="23.9688" style="stroke: #A80036; stroke-width: 1.5;" width="129" x="1345.75" y="40.5"/><text fill="#000000" font-family="sans-serif" font-size="12" lengthAdjust="spacingAndGlyphs" textLength="123" x="1348.75" y="56.6387">ObligationFulfilment</text><line style="stroke: #A80036; stroke-width: 1.5;" x1="1346.75" x2="1473.75" y1="64.4688" y2="64.4688"/><ellipse cx="1356.75" cy="76.3711" fill="#84BE84" rx="3" ry="3" style="stroke: #038048; stroke-width: 1.0;"/><text fill="#000000" font-family="sans-serif" font-size="11" lengthAdjust="spacingAndGlyphs" textLength="26" x="1365.75" y="78.6792">Date</text><text fill="#000000" font-family="sans-serif" font-size="11" font-style="italic" lengthAdjust="spacingAndGlyphs" textLength="53" x="1395.75" y="78.6792">(ISODate)</text></a><!--class Payment--><a target="_top" xlink:actuate="onRequest" xlink:href="../Payment.html" xlink:show="new" xlink:title="Payment information and processes required to transfer cash end to end from the debtor to the creditor." xlink:type="simple"><rect fill="#FEFECE" filter="url(#f5en0yvvk3u0r)" height="185.625" id="Payment" style="stroke: #A80036; stroke-width: 1.5;" width="298" x="1041.5" y="164"/><rect fill="#FEFECE" height="23.9688" style="stroke: #A80036; stroke-width: 1.5;" width="298" x="1041.5" y="164"/><text fill="#000000" font-family="sans-serif" font-size="12" lengthAdjust="spacingAndGlyphs" textLength="54" x="1163.5" y="180.1387">Payment</text><line style="stroke: #A80036; stroke-width: 1.5;" x1="1042.5" x2="1338.5" y1="187.9688" y2="187.9688"/><ellipse cx="1052.5" cy="199.8711" fill="#84BE84" rx="3" ry="3" style="stroke: #038048; stroke-width: 1.0;"/><text fill="#000000" font-family="sans-serif" font-size="11" lengthAdjust="spacingAndGlyphs" textLength="113" x="1061.5" y="202.1792">CurrencyOfTransfer</text><text fill="#000000" font-family="sans-serif" font-size="11" font-style="italic" lengthAdjust="spacingAndGlyphs" textLength="89" x="1178.5" y="202.1792">(CurrencyCode)</text><ellipse cx="1052.5" cy="212.6758" fill="#84BE84" rx="3" ry="3" style="stroke: #038048; stroke-width: 1.0;"/><text fill="#000000" font-family="sans-serif" font-size="11" lengthAdjust="spacingAndGlyphs" textLength="27" x="1061.5" y="214.9839">Type</text><text fill="#000000" font-family="sans-serif" font-size="11" font-style="italic" lengthAdjust="spacingAndGlyphs" textLength="115" x="1092.5" y="214.9839">(PaymentTypeCode)</text><ellipse cx="1052.5" cy="225.4805" fill="#84BE84" rx="3" ry="3" style="stroke: #038048; stroke-width: 1.0;"/><text fill="#000000" font-family="sans-serif" font-size="11" lengthAdjust="spacingAndGlyphs" textLength="100" x="1061.5" y="227.7886">InstructedAmount</text><text fill="#000000" font-family="sans-serif" font-size="11" font-style="italic" lengthAdjust="spacingAndGlyphs" textLength="126" x="1165.5" y="227.7886">(CurrencyAndAmount)</text><ellipse cx="1052.5" cy="238.2852" fill="#84BE84" rx="3" ry="3" style="stroke: #038048; stroke-width: 1.0;"/><text fill="#000000" font-family="sans-serif" font-size="11" lengthAdjust="spacingAndGlyphs" textLength="40" x="1061.5" y="240.5933">Priority</text><text fill="#000000" font-family="sans-serif" font-size="11" font-style="italic" lengthAdjust="spacingAndGlyphs" textLength="78" x="1105.5" y="240.5933">(PriorityCode)</text><ellipse cx="1052.5" cy="251.0898" fill="#84BE84" rx="3" ry="3" style="stroke: #038048; stroke-width: 1.0;"/><text fill="#000000" font-family="sans-serif" font-size="11" lengthAdjust="spacingAndGlyphs" textLength="57" x="1061.5" y="253.3979">ValueDate</text><text fill="#000000" font-family="sans-serif" font-size="11" font-style="italic" lengthAdjust="spacingAndGlyphs" textLength="53" x="1122.5" y="253.3979">(ISODate)</text><ellipse cx="1052.5" cy="263.8945" fill="#84BE84" rx="3" ry="3" style="stroke: #038048; stroke-width: 1.0;"/><text fill="#000000" font-family="sans-serif" font-size="11" lengthAdjust="spacingAndGlyphs" textLength="131" x="1061.5" y="266.2026">PoolingAdjustmentDate</text><text fill="#000000" font-family="sans-serif" font-size="11" font-style="italic" lengthAdjust="spacingAndGlyphs" textLength="53" x="1196.5" y="266.2026">(ISODate)</text><ellipse cx="1052.5" cy="276.6992" fill="#84BE84" rx="3" ry="3" style="stroke: #038048; stroke-width: 1.0;"/><text fill="#000000" font-family="sans-serif" font-size="11" lengthAdjust="spacingAndGlyphs" textLength="101" x="1061.5" y="279.0073">EquivalentAmount</text><text fill="#000000" font-family="sans-serif" font-size="11" font-style="italic" lengthAdjust="spacingAndGlyphs" textLength="167" x="1166.5" y="279.0073">(ImpliedCurrencyAndAmount)</text><ellipse cx="1052.5" cy="289.5039" fill="#84BE84" rx="3" ry="3" style="stroke: #038048; stroke-width: 1.0;"/><text fill="#000000" font-family="sans-serif" font-size="11" lengthAdjust="spacingAndGlyphs" textLength="156" x="1061.5" y="291.812">InstructionForCreditorAgent</text><text fill="#000000" font-family="sans-serif" font-size="11" font-style="italic" lengthAdjust="spacingAndGlyphs" textLength="96" x="1221.5" y="291.812">(InstructionCode)</text><ellipse cx="1052.5" cy="302.3086" fill="#84BE84" rx="3" ry="3" style="stroke: #038048; stroke-width: 1.0;"/><text fill="#000000" font-family="sans-serif" font-size="11" lengthAdjust="spacingAndGlyphs" textLength="148" x="1061.5" y="304.6167">InstructionForDebtorAgent</text><text fill="#000000" font-family="sans-serif" font-size="11" font-style="italic" lengthAdjust="spacingAndGlyphs" textLength="96" x="1213.5" y="304.6167">(InstructionCode)</text><ellipse cx="1052.5" cy="315.1133" fill="#84BE84" rx="3" ry="3" style="stroke: #038048; stroke-width: 1.0;"/><text fill="#000000" font-family="sans-serif" font-size="11" lengthAdjust="spacingAndGlyphs" textLength="43" x="1061.5" y="317.4214">Amount</text><text fill="#000000" font-family="sans-serif" font-size="11" font-style="italic" lengthAdjust="spacingAndGlyphs" textLength="126" x="1108.5" y="317.4214">(CurrencyAndAmount)</text><ellipse cx="1052.5" cy="327.918" fill="#84BE84" rx="3" ry="3" style="stroke: #038048; stroke-width: 1.0;"/><text fill="#000000" font-family="sans-serif" font-size="11" lengthAdjust="spacingAndGlyphs" textLength="181" x="1061.5" y="330.2261">StandardSettlementInstructions</text><text fill="#000000" font-family="sans-serif" font-size="11" font-style="italic" lengthAdjust="spacingAndGlyphs" textLength="77" x="1246.5" y="330.2261">(Max140Text)</text><ellipse cx="1052.5" cy="340.7227" fill="#84BE84" rx="3" ry="3" style="stroke: #038048; stroke-width: 1.0;"/><text fill="#000000" font-family="sans-serif" font-size="11" lengthAdjust="spacingAndGlyphs" textLength="111" x="1061.5" y="343.0308">PaymentInstrument</text><text fill="#000000" font-family="sans-serif" font-size="11" font-style="italic" lengthAdjust="spacingAndGlyphs" textLength="148" x="1176.5" y="343.0308">(PaymentInstrumentCode)</text></a><!--class Obligation--><a target="_top" xlink:actuate="onRequest" xlink:href="../Obligation.html" xlink:show="new" xlink:title="Specifies the assets (quantity of securities, goods, services, and cash amounts) that have to be delivered." xlink:type="simple"><rect fill="#EEEEEE" filter="url(#f5en0yvvk3u0r)" height="23.9688" id="Obligation" style="stroke: #A80036; stroke-width: 1.5;" width="69" x="1531.75" y="245"/><rect fill="#EEEEEE" height="23.9688" style="stroke: #A80036; stroke-width: 1.5;" width="69" x="1531.75" y="245"/><text fill="#000000" font-family="sans-serif" font-size="12" lengthAdjust="spacingAndGlyphs" textLength="63" x="1534.75" y="261.1387">Obligation</text></a><!--class PaymentObligation--><a target="_top" xlink:actuate="onRequest" xlink:href="../PaymentObligation.html" xlink:show="new" xlink:title="Obligation for the debtor to pay the creditor an amount of cash." xlink:type="simple"><rect fill="#EEEEEE" filter="url(#f5en0yvvk3u0r)" height="23.9688" id="PaymentObligation" style="stroke: #A80036; stroke-width: 1.5;" width="123" x="404.75" y="532"/><rect fill="#EEEEEE" height="23.9688" style="stroke: #A80036; stroke-width: 1.5;" width="123" x="404.75" y="532"/><text fill="#000000" font-family="sans-serif" font-size="12" lengthAdjust="spacingAndGlyphs" textLength="117" x="407.75" y="548.1387">PaymentObligation</text></a><!--class CreditInstrument--><a target="_top" xlink:actuate="onRequest" xlink:href="../CreditInstrument.html" xlink:show="new" xlink:title="Specifies the instrument to be used for the credit of a payment." xlink:type="simple"><rect fill="#EEEEEE" filter="url(#f5en0yvvk3u0r)" height="23.9688" id="CreditInstrument" style="stroke: #A80036; stroke-width: 1.5;" width="111" x="281.75" y="430"/><rect fill="#EEEEEE" height="23.9688" style="stroke: #A80036; stroke-width: 1.5;" width="111" x="281.75" y="430"/><text fill="#000000" font-family="sans-serif" font-size="12" lengthAdjust="spacingAndGlyphs" textLength="105" x="284.75" y="446.1387">CreditInstrument</text></a><!--class PaymentStatus--><a target="_top" xlink:actuate="onRequest" xlink:href="../PaymentStatus.html" xlink:show="new" xlink:title="Specifies the status of a payment at a specified time." xlink:type="simple"><rect fill="#EEEEEE" filter="url(#f5en0yvvk3u0r)" height="23.9688" id="PaymentStatus" style="stroke: #A80036; stroke-width: 1.5;" width="101" x="38.75" y="245"/><rect fill="#EEEEEE" height="23.9688" style="stroke: #A80036; stroke-width: 1.5;" width="101" x="38.75" y="245"/><text fill="#000000" font-family="sans-serif" font-size="12" lengthAdjust="spacingAndGlyphs" textLength="95" x="41.75" y="261.1387">PaymentStatus</text></a><!--class PaymentPartyRole--><a target="_top" xlink:actuate="onRequest" xlink:href="../PaymentPartyRole.html" xlink:show="new" xlink:title="Role played by a party in the context of a payment." xlink:type="simple"><rect fill="#EEEEEE" filter="url(#f5en0yvvk3u0r)" height="23.9688" id="PaymentPartyRole" style="stroke: #A80036; stroke-width: 1.5;" width="119" x="112.75" y="940"/><rect fill="#EEEEEE" height="23.9688" style="stroke: #A80036; stroke-width: 1.5;" width="119" x="112.75" y="940"/><text fill="#000000" font-family="sans-serif" font-size="12" lengthAdjust="spacingAndGlyphs" textLength="113" x="115.75" y="956.1387">PaymentPartyRole</text></a><!--class Tax--><a target="_top" xlink:actuate="onRequest" xlink:href="../Tax.html" xlink:show="new" xlink:title="Amount of money due to the government or tax authority, according to various pre-defined parameters such as thresholds or income." xlink:type="simple"><rect fill="#EEEEEE" filter="url(#f5en0yvvk3u0r)" height="23.9688" id="Tax" style="stroke: #A80036; stroke-width: 1.5;" width="27" x="296.75" y="838"/><rect fill="#EEEEEE" height="23.9688" style="stroke: #A80036; stroke-width: 1.5;" width="27" x="296.75" y="838"/><text fill="#000000" font-family="sans-serif" font-size="12" lengthAdjust="spacingAndGlyphs" textLength="21" x="299.75" y="854.1387">Tax</text></a><!--class PaymentExecution--><a target="_top" xlink:actuate="onRequest" xlink:href="../PaymentExecution.html" xlink:show="new" xlink:title="Process required for executing an end to end payment. It consists of a payment initiation which may be followed by a series of instructions." xlink:type="simple"><rect fill="#EEEEEE" filter="url(#f5en0yvvk3u0r)" height="23.9688" id="PaymentExecution" style="stroke: #A80036; stroke-width: 1.5;" width="121" x="112.75" y="736"/><rect fill="#EEEEEE" height="23.9688" style="stroke: #A80036; stroke-width: 1.5;" width="121" x="112.75" y="736"/><text fill="#000000" font-family="sans-serif" font-size="12" lengthAdjust="spacingAndGlyphs" textLength="115" x="115.75" y="752.1387">PaymentExecution</text></a><!--class CurrencyExchange--><a target="_top" xlink:actuate="onRequest" xlink:href="../CurrencyExchange.html" xlink:show="new" xlink:title="Information needed to process a currency exchange or conversion." xlink:type="simple"><rect fill="#EEEEEE" filter="url(#f5en0yvvk3u0r)" height="23.9688" id="CurrencyExchange" style="stroke: #A80036; stroke-width: 1.5;" width="122" x="243" y="634"/><rect fill="#EEEEEE" height="23.9688" style="stroke: #A80036; stroke-width: 1.5;" width="122" x="243" y="634"/><text fill="#000000" font-family="sans-serif" font-size="12" lengthAdjust="spacingAndGlyphs" textLength="116" x="246" y="650.1387">CurrencyExchange</text></a><!--class PaymentIdentification--><a target="_top" xlink:actuate="onRequest" xlink:href="../PaymentIdentification.html" xlink:show="new" xlink:title="Specifies the different identifications associated with a payment transaction." xlink:type="simple"><rect fill="#EEEEEE" filter="url(#f5en0yvvk3u0r)" height="23.9688" id="PaymentIdentification" style="stroke: #A80036; stroke-width: 1.5;" width="141" x="228.75" y="532"/><rect fill="#EEEEEE" height="23.9688" style="stroke: #A80036; stroke-width: 1.5;" width="141" x="228.75" y="532"/><text fill="#000000" font-family="sans-serif" font-size="12" lengthAdjust="spacingAndGlyphs" textLength="135" x="231.75" y="548.1387">PaymentIdentification</text></a><!--class PaymentInvestigationCase--><a target="_top" xlink:actuate="onRequest" xlink:href="../PaymentInvestigationCase.html" xlink:show="new" xlink:title="Set of activities performed to handle an exception to a normal payment transaction flow, such as: - a payment has not been received. - a payment has been received but is incorrect. - a payment must be corrected or cancelled (requested by the party which ordered the payment)." xlink:type="simple"><rect fill="#EEEEEE" filter="url(#f5en0yvvk3u0r)" height="23.9688" id="PaymentInvestigationCase" style="stroke: #A80036; stroke-width: 1.5;" width="171" x="75.75" y="430"/><rect fill="#EEEEEE" height="23.9688" style="stroke: #A80036; stroke-width: 1.5;" width="171" x="75.75" y="430"/><text fill="#000000" font-family="sans-serif" font-size="12" lengthAdjust="spacingAndGlyphs" textLength="165" x="78.75" y="446.1387">PaymentInvestigationCase</text></a><!--class SettlementTimeRequest--><a target="_top" xlink:actuate="onRequest" xlink:href="../SettlementTimeRequest.html" xlink:show="new" xlink:title="Provides information on the requested settlement time(s) of the payment instruction." xlink:type="simple"><rect fill="#EEEEEE" filter="url(#f5en0yvvk3u0r)" height="23.9688" id="SettlementTimeRequest" style="stroke: #A80036; stroke-width: 1.5;" width="156" x="220" y="1578"/><rect fill="#EEEEEE" height="23.9688" style="stroke: #A80036; stroke-width: 1.5;" width="156" x="220" y="1578"/><text fill="#000000" font-family="sans-serif" font-size="12" lengthAdjust="spacingAndGlyphs" textLength="150" x="223" y="1594.1387">SettlementTimeRequest</text></a><!--class CommercialTradeSettlement--><a target="_top" xlink:actuate="onRequest" xlink:href="../CommercialTradeSettlement.html" xlink:show="new" xlink:title="Settlement of a commercial trade, that is, the instruction to deliver goods or services against the payment of an amount of money." xlink:type="simple"><rect fill="#EEEEEE" filter="url(#f5en0yvvk3u0r)" height="23.9688" id="CommercialTradeSettlement" style="stroke: #A80036; stroke-width: 1.5;" width="183" x="206.75" y="1492"/><rect fill="#EEEEEE" height="23.9688" style="stroke: #A80036; stroke-width: 1.5;" width="183" x="206.75" y="1492"/><text fill="#000000" font-family="sans-serif" font-size="12" lengthAdjust="spacingAndGlyphs" textLength="177" x="209.75" y="1508.1387">CommercialTradeSettlement</text></a><!--class DebitAuthorisation--><a target="_top" xlink:actuate="onRequest" xlink:href="../DebitAuthorisation.html" xlink:show="new" xlink:title="Permission given by an account owner to debit its account as the result of a cancelled payment. The authoriser is the party whose account was credited as the result of a payment instruction." xlink:type="simple"><rect fill="#EEEEEE" filter="url(#f5en0yvvk3u0r)" height="23.9688" id="DebitAuthorisation" style="stroke: #A80036; stroke-width: 1.5;" width="123" x="236.75" y="1406"/><rect fill="#EEEEEE" height="23.9688" style="stroke: #A80036; stroke-width: 1.5;" width="123" x="236.75" y="1406"/><text fill="#000000" font-family="sans-serif" font-size="12" lengthAdjust="spacingAndGlyphs" textLength="117" x="239.75" y="1422.1387">DebitAuthorisation</text></a><!--class PaymentInvestigationCaseResolution--><a target="_top" xlink:actuate="onRequest" xlink:href="../PaymentInvestigationCaseResolution.html" xlink:show="new" xlink:title="Specifies the status of an investigation case and the actions taken as a result of this status." xlink:type="simple"><rect fill="#EEEEEE" filter="url(#f5en0yvvk3u0r)" height="23.9688" id="PaymentInvestigationCaseResolution" style="stroke: #A80036; stroke-width: 1.5;" width="237" x="277.75" y="1304"/><rect fill="#EEEEEE" height="23.9688" style="stroke: #A80036; stroke-width: 1.5;" width="237" x="277.75" y="1304"/><text fill="#000000" font-family="sans-serif" font-size="12" lengthAdjust="spacingAndGlyphs" textLength="231" x="280.75" y="1320.1387">PaymentInvestigationCaseResolution</text></a><!--class SecuritiesSettlement--><a target="_top" xlink:actuate="onRequest" xlink:href="../SecuritiesSettlement.html" xlink:show="new" xlink:title="Settlement of the securities in a securities transaction, that is, the instruction to deliver or receive securities, involving the payment of an amount of money or not." xlink:type="simple"><rect fill="#EEEEEE" filter="url(#f5en0yvvk3u0r)" height="23.9688" id="SecuritiesSettlement" style="stroke: #A80036; stroke-width: 1.5;" width="137" x="327.75" y="1218"/><rect fill="#EEEEEE" height="23.9688" style="stroke: #A80036; stroke-width: 1.5;" width="137" x="327.75" y="1218"/><text fill="#000000" font-family="sans-serif" font-size="12" lengthAdjust="spacingAndGlyphs" textLength="131" x="330.75" y="1234.1387">SecuritiesSettlement</text></a><!--class Invoice--><a target="_top" xlink:actuate="onRequest" xlink:href="../Invoice.html" xlink:show="new" xlink:title="General information about an invoice, such as number, issue date date and monetary amounts." xlink:type="simple"><rect fill="#EEEEEE" filter="url(#f5en0yvvk3u0r)" height="23.9688" id="Invoice" style="stroke: #A80036; stroke-width: 1.5;" width="49" x="355.75" y="1130"/><rect fill="#EEEEEE" height="23.9688" style="stroke: #A80036; stroke-width: 1.5;" width="49" x="355.75" y="1130"/><text fill="#000000" font-family="sans-serif" font-size="12" lengthAdjust="spacingAndGlyphs" textLength="43" x="358.75" y="1146.1387">Invoice</text></a><!--class CashAccount--><a target="_top" xlink:actuate="onRequest" xlink:href="../CashAccount.html" xlink:show="new" xlink:title="Account to or from which a cash entry is made." xlink:type="simple"><rect fill="#EEEEEE" filter="url(#f5en0yvvk3u0r)" height="23.9688" id="CashAccount" style="stroke: #A80036; stroke-width: 1.5;" width="88" x="375.5" y="1042"/><rect fill="#EEEEEE" height="23.9688" style="stroke: #A80036; stroke-width: 1.5;" width="88" x="375.5" y="1042"/><text fill="#000000" font-family="sans-serif" font-size="12" lengthAdjust="spacingAndGlyphs" textLength="82" x="378.5" y="1058.1387">CashAccount</text></a><!--class Adjustment--><a target="_top" xlink:actuate="onRequest" xlink:href="../Adjustment.html" xlink:show="new" xlink:title="Modification on the value of goods and / or services. For example: rebate, discount." xlink:type="simple"><rect fill="#EEEEEE" filter="url(#f5en0yvvk3u0r)" height="23.9688" id="Adjustment" style="stroke: #A80036; stroke-width: 1.5;" width="77" x="266.75" y="940"/><rect fill="#EEEEEE" height="23.9688" style="stroke: #A80036; stroke-width: 1.5;" width="77" x="266.75" y="940"/><text fill="#000000" font-family="sans-serif" font-size="12" lengthAdjust="spacingAndGlyphs" textLength="71" x="269.75" y="956.1387">Adjustment</text></a><!--class RegisteredContract--><a target="_top" xlink:actuate="onRequest" xlink:href="../RegisteredContract.html" xlink:show="new" xlink:title="Contract registered for regulatory purpose by a registration agent for the journaling of payments made against the contract." xlink:type="simple"><rect fill="#EEEEEE" filter="url(#f5en0yvvk3u0r)" height="23.9688" id="RegisteredContract" style="stroke: #A80036; stroke-width: 1.5;" width="128" x="400" y="838"/><rect fill="#EEEEEE" height="23.9688" style="stroke: #A80036; stroke-width: 1.5;" width="128" x="400" y="838"/><text fill="#000000" font-family="sans-serif" font-size="12" lengthAdjust="spacingAndGlyphs" textLength="122" x="403" y="854.1387">RegisteredContract</text></a><!--link ObligationFulfilment to Payment--><path d="M1370.03,98.89 C1349,117.24 1322.13,140.69 1295.6,163.84 " fill="none" id="ObligationFulfilment-Payment" style="stroke: #A80036; stroke-width: 1.0;"/><polygon fill="none" points="1365.52,93.53,1385.19,85.65,1374.73,104.08,1365.52,93.53" style="stroke: #A80036; stroke-width: 1.0;"/><!--link CreditInstrument to PaymentObligation--><!--link PaymentStatus to CreditInstrument--><!--link PaymentPartyRole to PaymentStatus--><!--link Tax to PaymentPartyRole--><!--link PaymentExecution to Tax--><!--link CurrencyExchange to PaymentExecution--><!--link PaymentExecution to CurrencyExchange--><path d="M166.264,735.837 C159.504,723.027 151.478,701.99 162,688 C171.589,675.25 205.366,665.213 237.57,658.261 " fill="none" id="PaymentExecution-CurrencyExchange" style="stroke: #A80036; stroke-width: 1.0;"/><polygon fill="#A80036" points="242.722,657.172,233.0893,655.1198,237.8301,658.2061,234.7438,662.9469,242.722,657.172" style="stroke: #A80036; stroke-width: 1.0;"/><text fill="#000000" font-family="sans-serif" font-size="13" lengthAdjust="spacingAndGlyphs" textLength="119" x="163" y="701.0669">CurrencyExchange</text><text fill="#000000" font-family="sans-serif" font-size="13" lengthAdjust="spacingAndGlyphs" textLength="7" x="227.9386" y="653.5229">*</text><!--link PaymentIdentification to CurrencyExchange--><!--link PaymentInvestigationCase to PaymentIdentification--><!--link SettlementTimeRequest to PaymentInvestigationCase--><!--link CommercialTradeSettlement to SettlementTimeRequest--><!--link DebitAuthorisation to CommercialTradeSettlement--><!--link PaymentInvestigationCaseResolution to DebitAuthorisation--><!--link DebitAuthorisation to PaymentInvestigationCaseResolution--><path d="M308.911,1405.867 C326.603,1387.813 361.562,1352.141 381.385,1331.914 " fill="none" id="DebitAuthorisation-PaymentInvestigationCaseResolution" style="stroke: #A80036; stroke-width: 1.0;"/><polygon fill="#A80036" points="385.138,1328.084,375.9818,1331.7122,381.6384,1331.6551,381.6955,1337.3116,385.138,1328.084" style="stroke: #A80036; stroke-width: 1.0;"/><text fill="#000000" font-family="sans-serif" font-size="13" lengthAdjust="spacingAndGlyphs" textLength="227" x="357" y="1371.0669">RelatedInvestigationCaseResolution</text><text fill="#000000" font-family="sans-serif" font-size="13" lengthAdjust="spacingAndGlyphs" textLength="24" x="350.1918" y="1348.2631">0..1</text><!--link SecuritiesSettlement to PaymentInvestigationCaseResolution--><!--link Invoice to SecuritiesSettlement--><!--link CashAccount to Invoice--><!--link Adjustment to CashAccount--><!--link RegisteredContract to Adjustment--><!--link ObligationFulfilment to Obligation--><path d="M1405.93,85.62 C1404.36,100.6 1404.91,120.25 1415,134 C1436.48,163.28 1461.69,142.56 1491,164 C1520.07,185.26 1544.41,220.37 1556.92,240.52 " fill="none" id="ObligationFulfilment-Obligation" style="stroke: #A80036; stroke-width: 1.0;"/><polygon fill="#A80036" points="1559.56,244.82,1558.2735,235.0555,1556.9499,240.5554,1551.45,239.2317,1559.56,244.82" style="stroke: #A80036; stroke-width: 1.0;"/><text fill="#000000" font-family="sans-serif" font-size="13" lengthAdjust="spacingAndGlyphs" textLength="102" x="1416" y="129.0669">ObligationOffset</text><text fill="#000000" font-family="sans-serif" font-size="13" lengthAdjust="spacingAndGlyphs" textLength="7" x="1547.7134" y="233.8063">*</text><!--link ObligationFulfilment to Obligation--><path d="M1474.52,82.24 C1492.62,90.08 1510.92,101 1524,116 C1555.43,152.04 1563.34,210.88 1565.33,239.42 " fill="none" id="ObligationFulfilment-Obligation" style="stroke: #A80036; stroke-width: 1.0;"/><polygon fill="#A80036" points="1565.66,244.71,1569.1122,235.486,1565.3597,239.719,1561.1267,235.9665,1565.66,244.71" style="stroke: #A80036; stroke-width: 1.0;"/><text fill="#000000" font-family="sans-serif" font-size="13" lengthAdjust="spacingAndGlyphs" textLength="122" x="1537" y="129.0669">ResultingObligation</text><text fill="#000000" font-family="sans-serif" font-size="13" lengthAdjust="spacingAndGlyphs" textLength="7" x="1566.6239" y="233.9174">*</text><!--link Payment to PaymentObligation--><path d="M1041.3,316.53 C867.909,384.79 593.021,493 498.884,530.06 " fill="none" id="Payment-PaymentObligation" style="stroke: #A80036; stroke-width: 1.0;"/><polygon fill="#A80036" points="494.006,531.98,503.846,532.3985,498.6572,530.1453,500.9104,524.9565,494.006,531.98" style="stroke: #A80036; stroke-width: 1.0;"/><text fill="#000000" font-family="sans-serif" font-size="13" lengthAdjust="spacingAndGlyphs" textLength="121" x="746" y="446.0669">PaymentObligation</text><text fill="#000000" font-family="sans-serif" font-size="13" lengthAdjust="spacingAndGlyphs" textLength="7" x="494.0002" y="521.0213">*</text><!--link Payment to CreditInstrument--><path d="M1041.37,285.78 C910.549,309.97 714.842,345.52 544,374 C520.935,377.84 514.282,374.91 492,382 C474.954,387.43 472.492,393.07 456,400 C430.515,410.71 401.159,420.84 377.981,428.36 " fill="none" id="Payment-CreditInstrument" style="stroke: #A80036; stroke-width: 1.0;"/><polygon fill="#A80036" points="373.132,429.92,382.9253,430.9643,377.8906,428.3852,380.4697,423.3505,373.132,429.92" style="stroke: #A80036; stroke-width: 1.0;"/><text fill="#000000" font-family="sans-serif" font-size="13" lengthAdjust="spacingAndGlyphs" textLength="86" x="493" y="395.0669">CreditMethod</text><text fill="#000000" font-family="sans-serif" font-size="13" lengthAdjust="spacingAndGlyphs" textLength="23" x="357.1696" y="418.9407">1..*</text><!--link Payment to PaymentStatus--><path d="M1041.09,257 C793.652,257 308.792,257 144.761,257 " fill="none" id="Payment-PaymentStatus" style="stroke: #A80036; stroke-width: 1.0;"/><polygon fill="#A80036" points="139.531,257,148.531,261,144.531,257,148.531,253,139.531,257" style="stroke: #A80036; stroke-width: 1.0;"/><text fill="#000000" font-family="sans-serif" font-size="13" lengthAdjust="spacingAndGlyphs" textLength="99" x="540" y="249.0669">PaymentStatus</text><text fill="#000000" font-family="sans-serif" font-size="13" lengthAdjust="spacingAndGlyphs" textLength="7" x="147.7662" y="251.7779">*</text><!--link Payment to PaymentPartyRole--><path d="M1204.05,350.29 C1210.67,423.41 1209.59,525.9 1168,604 C1157.72,623.3 1145.71,619.89 1129,634 C1098,660.173 1062,655.429 1062,696 C1062,696 1062,696 1062,851 C1062,941.873 339.235,929.25 249,940 C245.04,940.472 240.969,940.981 236.866,941.513 " fill="none" id="Payment-PaymentPartyRole" style="stroke: #A80036; stroke-width: 1.0;"/><polygon fill="#A80036" points="231.656,942.198,241.1012,944.9886,236.6132,941.5451,240.0567,937.0571,231.656,942.198" style="stroke: #A80036; stroke-width: 1.0;"/><text fill="#000000" font-family="sans-serif" font-size="13" lengthAdjust="spacingAndGlyphs" textLength="60" x="1130" y="650.0669">PartyRole</text><text fill="#000000" font-family="sans-serif" font-size="13" lengthAdjust="spacingAndGlyphs" textLength="23" x="235.7281" y="934.602">1..*</text><!--link Payment to Tax--><path d="M1148.91,350.07 C1112.89,426.93 1060.82,528.25 1025,556 C982.902,588.61 959.319,568.57 909,586 C673.186,667.669 400.896,802.893 328.467,839.575 " fill="none" id="Payment-Tax" style="stroke: #A80036; stroke-width: 1.0;"/><polygon fill="#A80036" points="323.601,842.043,333.4369,841.538,328.0599,839.7807,329.8172,834.4037,323.601,842.043" style="stroke: #A80036; stroke-width: 1.0;"/><text fill="#000000" font-family="sans-serif" font-size="13" lengthAdjust="spacingAndGlyphs" textLength="97" x="910" y="599.0669">TaxOnPayment</text><text fill="#000000" font-family="sans-serif" font-size="13" lengthAdjust="spacingAndGlyphs" textLength="7" x="331.8159" y="830.1271">*</text><!--link Payment to PaymentExecution--><path d="M1055.68,350.35 C1043.81,360.49 1032.38,371.11 1022,382 C977.772,428.4 993.16,463.38 942,502 C720.204,669.42 380.531,724.479 238.736,740.79 " fill="none" id="Payment-PaymentExecution" style="stroke: #A80036; stroke-width: 1.0;"/><polygon fill="#A80036" points="233.365,741.4,242.7589,744.3588,238.3331,740.8358,241.8561,736.4099,233.365,741.4" style="stroke: #A80036; stroke-width: 1.0;"/><text fill="#000000" font-family="sans-serif" font-size="13" lengthAdjust="spacingAndGlyphs" textLength="119" x="896" y="548.0669">PaymentExecution</text><text fill="#000000" font-family="sans-serif" font-size="13" lengthAdjust="spacingAndGlyphs" textLength="23" x="241.6455" y="735.7304">1..*</text><!--link Payment to CurrencyExchange--><path d="M1041.27,326.55 C1010.42,343.11 978.86,361.89 951,382 C913.791,408.85 916.199,430.14 877,454 C784.564,510.26 468.74,599.95 349.803,632.6 " fill="none" id="Payment-CurrencyExchange" style="stroke: #A80036; stroke-width: 1.0;"/><polygon fill="#A80036" points="344.972,633.92,354.7088,635.4017,349.7946,632.5998,352.5965,627.6856,344.972,633.92" style="stroke: #A80036; stroke-width: 1.0;"/><text fill="#000000" font-family="sans-serif" font-size="13" lengthAdjust="spacingAndGlyphs" textLength="119" x="813" y="497.0669">CurrencyExchange</text><text fill="#000000" font-family="sans-serif" font-size="13" lengthAdjust="spacingAndGlyphs" textLength="7" x="349.5092" y="622.9407">*</text><!--link Payment to PaymentIdentification--><path d="M1041.44,292.36 C852.51,336.41 544.603,409.57 494,430 C426.29,457.34 353.672,504.87 319.284,528.62 " fill="none" id="Payment-PaymentIdentification" style="stroke: #A80036; stroke-width: 1.0;"/><polygon fill="#A80036" points="314.888,531.68,324.5606,529.8252,318.9929,528.8252,319.9929,523.2574,314.888,531.68" style="stroke: #A80036; stroke-width: 1.0;"/><text fill="#000000" font-family="sans-serif" font-size="13" lengthAdjust="spacingAndGlyphs" textLength="193" x="495" y="446.0669">PaymentRelatedIdentifications</text><text fill="#000000" font-family="sans-serif" font-size="13" lengthAdjust="spacingAndGlyphs" textLength="7" x="310.5775" y="520.8774">*</text><!--link Payment to PaymentInvestigationCase--><path d="M1041.42,291.09 C911.058,318.59 715.976,356.01 544,374 C486.509,380.01 339.967,367.54 284,382 C267.064,386.38 264.709,392.3 249,400 C229.492,409.56 207.322,419.88 190.115,427.78 " fill="none" id="Payment-PaymentInvestigationCase" style="stroke: #A80036; stroke-width: 1.0;"/><polygon fill="#A80036" points="185.4,429.94,195.2482,429.8251,189.9451,427.8561,191.914,422.553,185.4,429.94" style="stroke: #A80036; stroke-width: 1.0;"/><text fill="#000000" font-family="sans-serif" font-size="13" lengthAdjust="spacingAndGlyphs" textLength="161" x="285" y="395.0669">RelatedInvestigationCase</text><text fill="#000000" font-family="sans-serif" font-size="13" lengthAdjust="spacingAndGlyphs" textLength="24" x="164.2328" y="418.9676">0..1</text><!--link Payment to SettlementTimeRequest--><path d="M1338.61,321.83 C1393.08,342.33 1455.87,362.64 1515,374 C1611.48,392.53 1952,342.75 1952,441 C1952,441 1952,441 1952,1505 C1952,1584.4931 717.334,1589.328 381.471,1589.1726 " fill="none" id="Payment-SettlementTimeRequest" style="stroke: #A80036; stroke-width: 1.0;"/><polygon fill="#A80036" points="376.109,1589.1696,385.109,1593.1696,381.109,1589.1696,385.109,1585.1696,376.109,1589.1696" style="stroke: #A80036; stroke-width: 1.0;"/><text fill="#000000" font-family="sans-serif" font-size="13" lengthAdjust="spacingAndGlyphs" textLength="155" x="1953" y="1007.0669">SettlementTimeRequest</text><text fill="#000000" font-family="sans-serif" font-size="13" lengthAdjust="spacingAndGlyphs" textLength="24" x="384.1343" y="1584.4128">0..1</text><!--link Payment to CommercialTradeSettlement--><path d="M1338.76,321.1 C1393.24,341.52 1456,361.98 1515,374 C1573.9,386 1591.5,368.2 1650,382 C1714.92,397.31 1788,374.3 1788,441 C1788,441 1788,441 1788,1419 C1788,1489.022 725.209,1500.684 394.81,1502.618 " fill="none" id="Payment-CommercialTradeSettlement" style="stroke: #A80036; stroke-width: 1.0;"/><polygon fill="#A80036" points="389.522,1502.648,398.5447,1506.5965,394.5219,1502.6194,398.499,1498.5966,389.522,1502.648" style="stroke: #A80036; stroke-width: 1.0;"/><text fill="#000000" font-family="sans-serif" font-size="13" lengthAdjust="spacingAndGlyphs" textLength="108" x="1789" y="956.0669">TradeSettlement</text><text fill="#000000" font-family="sans-serif" font-size="13" lengthAdjust="spacingAndGlyphs" textLength="7" x="397.6665" y="1497.8753">*</text><!--link Payment to DebitAuthorisation--><path d="M1338.86,315.3 C1393.76,335.32 1456.77,357.02 1515,374 C1530.32,378.47 1534.67,377.56 1550,382 C1625.61,403.92 1717,362.28 1717,441 C1717,441 1717,441 1717,800 C1717,829.239 1716.26,841.928 1695,862 C1660.33,894.731 1620.62,853.861 1592,892 C1587.2,898.399 1591.71,902.005 1592,910 C1592.67,928.259 1595,932.729 1595,951 C1595,951 1595,951 1595,1317 C1595,1379.348 629.674,1408.547 364.623,1415.389 " fill="none" id="Payment-DebitAuthorisation" style="stroke: #A80036; stroke-width: 1.0;"/><polygon fill="#A80036" points="359.25,1415.527,368.3499,1419.2943,364.2483,1415.3984,368.1442,1411.2969,359.25,1415.527" style="stroke: #A80036; stroke-width: 1.0;"/><text fill="#000000" font-family="sans-serif" font-size="13" lengthAdjust="spacingAndGlyphs" textLength="167" x="1593" y="905.0669">RelatedDebitAuthorisation</text><text fill="#000000" font-family="sans-serif" font-size="13" lengthAdjust="spacingAndGlyphs" textLength="24" x="367.6906" y="1410.3346">0..1</text><!--link Payment to PaymentInvestigationCaseResolution--><path d="M1338.72,303.22 C1439.71,338.53 1555,390.01 1555,441 C1555,441 1555,441 1555,749 C1555,776.986 1552.41,787.84 1533,808 C1508.96,832.973 1485.71,813.683 1461,838 C1439.58,859.082 1434,869.945 1434,900 C1434,900 1434,900 1434,1231 C1434,1276.404 794.714,1302.278 519.542,1311.312 " fill="none" id="Payment-PaymentInvestigationCaseResolution" style="stroke: #A80036; stroke-width: 1.0;"/><polygon fill="#A80036" points="514.314,1311.483,523.4395,1315.1877,519.3113,1311.3201,523.1789,1307.192,514.314,1311.483" style="stroke: #A80036; stroke-width: 1.0;"/><text fill="#000000" font-family="sans-serif" font-size="13" lengthAdjust="spacingAndGlyphs" textLength="227" x="1462" y="854.0669">RelatedInvestigationCaseResolution</text><text fill="#000000" font-family="sans-serif" font-size="13" lengthAdjust="spacingAndGlyphs" textLength="24" x="522.6462" y="1306.7212">0..1</text><!--link Payment to Payment--><path d="M1338.63,234.91 C1359.23,238.55 1373,245.91 1373,257 C1373,267.13 1361.5,274.15 1343.79,278.06 " fill="none" id="Payment-Payment" style="stroke: #A80036; stroke-width: 1.0;"/><polygon fill="#A80036" points="1338.63,279.09,1348.236,281.2634,1343.5345,278.1177,1346.6803,273.4162,1338.63,279.09" style="stroke: #A80036; stroke-width: 1.0;"/><text fill="#000000" font-family="sans-serif" font-size="13" lengthAdjust="spacingAndGlyphs" textLength="105" x="1379" y="261.0669">OriginalPayment</text><text fill="#000000" font-family="sans-serif" font-size="13" lengthAdjust="spacingAndGlyphs" textLength="8" x="1347.425" y="275.9572">1</text><!--link Payment to SecuritiesSettlement--><path d="M1338.73,294.08 C1409.54,321.03 1479,366.47 1479,441 C1479,441 1479,441 1479,698 C1479,727.239 1478.52,740.208 1457,760 C1418.44,795.465 1374.99,748.506 1343,790 C1338.12,796.336 1342.71,800.005 1343,808 C1343.67,826.259 1346,830.729 1346,849 C1346,849 1346,849 1346,1143 C1346,1186.953 692.48,1217.157 469.508,1226.183 " fill="none" id="Payment-SecuritiesSettlement" style="stroke: #A80036; stroke-width: 1.0;"/><polygon fill="#A80036" points="464.322,1226.392,473.4758,1230.0262,469.3179,1226.1906,473.1535,1222.0327,464.322,1226.392" style="stroke: #A80036; stroke-width: 1.0;"/><text fill="#000000" font-family="sans-serif" font-size="13" lengthAdjust="spacingAndGlyphs" textLength="183" x="1344" y="803.0669">RelatedSecuritiesSettlement</text><text fill="#000000" font-family="sans-serif" font-size="13" lengthAdjust="spacingAndGlyphs" textLength="8" x="472.6553" y="1221.0684">1</text><!--link Payment to Invoice--><path d="M1338.51,330.5 C1374.59,358.72 1403,395.42 1403,441 C1403,441 1403,441 1403,596 C1403,651.903 1372.65,659.246 1342,706 C1332.79,720.051 1326.5,720.964 1319,736 C1307.65,758.772 1275,871.95 1275,900 C1275,900 1275,900 1275,1055 C1275,1143.994 564.789,1142.679 409.685,1141.331 " fill="none" id="Payment-Invoice" style="stroke: #A80036; stroke-width: 1.0;"/><polygon fill="#A80036" points="404.403,1141.283,413.3661,1145.3651,409.4028,1141.3287,413.4392,1137.3654,404.403,1141.283" style="stroke: #A80036; stroke-width: 1.0;"/><text fill="#000000" font-family="sans-serif" font-size="13" lengthAdjust="spacingAndGlyphs" textLength="131" x="1320" y="752.0669">InvoiceReconciliation</text><text fill="#000000" font-family="sans-serif" font-size="13" lengthAdjust="spacingAndGlyphs" textLength="7" x="412.8717" y="1134.5523">*</text><!--link Payment to CashAccount--><path d="M1296.9,350.04 C1317.07,376.65 1332,407.62 1332,441 C1332,441 1332,441 1332,596 C1332,702.285 1204,691.715 1204,798 C1204,798 1204,798 1204,953 C1204,1027.575 639.308,1047.584 467.807,1051.941 " fill="none" id="Payment-CashAccount" style="stroke: #A80036; stroke-width: 1.0;"/><polygon fill="#A80036" points="462.605,1052.072,471.7027,1055.8445,467.6034,1051.9463,471.5016,1047.847,462.605,1052.072" style="stroke: #A80036; stroke-width: 1.0;"/><text fill="#000000" font-family="sans-serif" font-size="13" lengthAdjust="spacingAndGlyphs" textLength="52" x="1280" y="701.0669">Account</text><text fill="#000000" font-family="sans-serif" font-size="13" lengthAdjust="spacingAndGlyphs" textLength="8" x="471.5844" y="1046.1667">1</text><!--link Payment to Adjustment--><path d="M1211.5,350.1 C1213.35,360.8 1214.92,371.61 1216,382 C1226.18,480.14 1235.42,507.26 1216,604 C1208.75,640.134 1118.23,888.923 1088,910 C1024.41,954.331 468.236,933.41 391,940 C377.23,941.175 362.276,942.922 348.757,944.68 " fill="none" id="Payment-Adjustment" style="stroke: #A80036; stroke-width: 1.0;"/><polygon fill="#A80036" points="343.456,945.379,352.902,948.1669,348.413,944.7247,351.8552,940.2357,343.456,945.379" style="stroke: #A80036; stroke-width: 1.0;"/><text fill="#000000" font-family="sans-serif" font-size="13" lengthAdjust="spacingAndGlyphs" textLength="81" x="1209" y="650.0669">Adjustments</text><text fill="#000000" font-family="sans-serif" font-size="13" lengthAdjust="spacingAndGlyphs" textLength="8" x="351.7653" y="938.4851">1</text><!--link Payment to RegisteredContract--><path d="M1169.46,350.33 C1151.99,413.23 1121.94,495.71 1074,556 C1059.27,574.53 1045.57,568.17 1030,586 C957.426,669.078 1010.14,745.849 919,808 C887.927,829.19 653.11,841.488 533.531,846.437 " fill="none" id="Payment-RegisteredContract" style="stroke: #A80036; stroke-width: 1.0;"/><polygon fill="#A80036" points="528.276,846.653,537.433,850.2793,533.2718,846.4473,537.1038,842.2861,528.276,846.653" style="stroke: #A80036; stroke-width: 1.0;"/><text fill="#000000" font-family="sans-serif" font-size="13" lengthAdjust="spacingAndGlyphs" textLength="131" x="1031" y="599.0669">ContractRegistration</text><text fill="#000000" font-family="sans-serif" font-size="13" lengthAdjust="spacingAndGlyphs" textLength="8" x="536.1704" y="841.3596">1</text><!--link Obligation to Obligation--><path d="M1577.21,244.76 C1601.34,224.69 1635,228.77 1635,257 C1635,283.69 1604.92,288.79 1581.24,272.32 " fill="none" id="Obligation-Obligation" style="stroke: #A80036; stroke-width: 1.0;"/><polygon fill="#A80036" points="1577.21,269.24,1581.941,277.8782,1581.1858,272.2719,1586.7921,271.5168,1577.21,269.24" style="stroke: #A80036; stroke-width: 1.0;"/><text fill="#000000" font-family="sans-serif" font-size="13" lengthAdjust="spacingAndGlyphs" textLength="106" x="1641" y="261.0669">ParentObligation</text><text fill="#000000" font-family="sans-serif" font-size="13" lengthAdjust="spacingAndGlyphs" textLength="8" x="1570.5568" y="289.1118">1</text><!--link PaymentStatus to PaymentInvestigationCase--><path d="M83.9281,269.01 C73.0771,294.34 50.654,357.82 77,400 C85.0332,412.86 98.3926,421.79 112.12,427.96 " fill="none" id="PaymentStatus-PaymentInvestigationCase" style="stroke: #A80036; stroke-width: 1.0;"/><polygon fill="#A80036" points="116.782,429.94,110.0683,422.734,112.1816,427.9813,106.9344,430.0946,116.782,429.94" style="stroke: #A80036; stroke-width: 1.0;"/><text fill="#000000" font-family="sans-serif" font-size="13" lengthAdjust="spacingAndGlyphs" textLength="161" x="78" y="395.0669">RelatedInvestigationCase</text><text fill="#000000" font-family="sans-serif" font-size="13" lengthAdjust="spacingAndGlyphs" textLength="24" x="72.0279" y="418.9676">0..1</text><!--link PaymentPartyRole to CashAccount--><path d="M184.923,964.217 C200.844,977.479 229.208,999.344 257,1012 C293.215,1028.492 337.128,1039.081 370.094,1045.359 " fill="none" id="PaymentPartyRole-CashAccount" style="stroke: #A80036; stroke-width: 1.0;"/><polygon fill="#A80036" points="375.288,1046.33,367.1762,1040.7445,370.3731,1045.4113,365.7063,1048.6083,375.288,1046.33" style="stroke: #A80036; stroke-width: 1.0;"/><text fill="#000000" font-family="sans-serif" font-size="13" lengthAdjust="spacingAndGlyphs" textLength="84" x="258" y="1007.0669">CashAccount</text><text fill="#000000" font-family="sans-serif" font-size="13" lengthAdjust="spacingAndGlyphs" textLength="7" x="360.4379" y="1040.1345">*</text><!--link Tax to CashAccount--><path d="M323.274,855.166 C339.225,860.872 365.631,872.673 380,892 C397.173,915.098 411.333,1000.497 416.694,1036.656 " fill="none" id="Tax-CashAccount" style="stroke: #A80036; stroke-width: 1.0;"/><polygon fill="#A80036" points="417.42,1041.621,420.0741,1032.1365,416.6957,1036.6737,412.1584,1033.2954,417.42,1041.621" style="stroke: #A80036; stroke-width: 1.0;"/><text fill="#000000" font-family="sans-serif" font-size="13" lengthAdjust="spacingAndGlyphs" textLength="74" x="405" y="956.0669">TaxAccount</text><text fill="#000000" font-family="sans-serif" font-size="13" lengthAdjust="spacingAndGlyphs" textLength="7" x="407.3226" y="1031.0589">*</text><!--link Tax to Adjustment--><path d="M306.102,862.325 C303.512,870.468 300.348,881.771 299,892 C297.11,906.34 299.101,922.709 301.283,934.562 " fill="none" id="Tax-Adjustment" style="stroke: #A80036; stroke-width: 1.0;"/><polygon fill="#A80036" points="302.286,939.666,304.475,930.0635,301.3216,934.7599,296.6252,931.6065,302.286,939.666" style="stroke: #A80036; stroke-width: 1.0;"/><text fill="#000000" font-family="sans-serif" font-size="13" lengthAdjust="spacingAndGlyphs" textLength="74" x="300" y="905.0669">Adjustment</text><text fill="#000000" font-family="sans-serif" font-size="13" lengthAdjust="spacingAndGlyphs" textLength="8" x="290.6479" y="928.8588">1</text><!--link Tax to CurrencyExchange--><path d="M319.676,837.676 C325.666,829.892 332.804,819.008 336,808 C351.173,755.74 325.907,691.865 312.087,662.779 " fill="none" id="Tax-CurrencyExchange" style="stroke: #A80036; stroke-width: 1.0;"/><polygon fill="#A80036" points="309.813,658.089,310.1407,667.9324,311.9946,662.588,317.3391,664.4418,309.813,658.089" style="stroke: #A80036; stroke-width: 1.0;"/><text fill="#000000" font-family="sans-serif" font-size="13" lengthAdjust="spacingAndGlyphs" textLength="119" x="342" y="752.0669">CurrencyExchange</text><text fill="#000000" font-family="sans-serif" font-size="13" lengthAdjust="spacingAndGlyphs" textLength="7" x="302.3546" y="678.2702">*</text><!--link PaymentExecution to PaymentInvestigationCase--><path d="M164.938,735.695 C159.64,727.746 152.976,716.665 149,706 C132.89,662.792 134.24,649.918 130,604 C125.047,550.37 144.353,488.06 154.762,459.2 " fill="none" id="PaymentExecution-PaymentInvestigationCase" style="stroke: #A80036; stroke-width: 1.0;"/><polygon fill="#A80036" points="156.594,454.21,149.7305,461.2734,154.8663,458.902,157.2377,464.0378,156.594,454.21" style="stroke: #A80036; stroke-width: 1.0;"/><text fill="#000000" font-family="sans-serif" font-size="13" lengthAdjust="spacingAndGlyphs" textLength="161" x="131" y="599.0669">RelatedInvestigationCase</text><text fill="#000000" font-family="sans-serif" font-size="13" lengthAdjust="spacingAndGlyphs" textLength="24" x="124.642" y="474.07">0..1</text><!--link PaymentExecution to PaymentInvestigationCaseResolution--><path d="M166.631,760.142 C150.654,788.813 109.145,867.948 95,940 C92.9452,950.467 94.3968,953.35 95,964 C98.3387,1022.95 110,1036.956 110,1096 C110,1096 110,1096 110,1231 C110,1269.295 205.59,1291.387 286.244,1303.211 " fill="none" id="PaymentExecution-PaymentInvestigationCaseResolution" style="stroke: #A80036; stroke-width: 1.0;"/><polygon fill="#A80036" points="291.533,1303.975,283.1968,1298.7303,286.5843,1303.2607,282.0539,1306.6482,291.533,1303.975" style="stroke: #A80036; stroke-width: 1.0;"/><text fill="#000000" font-family="sans-serif" font-size="13" lengthAdjust="spacingAndGlyphs" textLength="227" x="110" y="1058.0669">RelatedInvestigationCaseResolution</text><text fill="#000000" font-family="sans-serif" font-size="13" lengthAdjust="spacingAndGlyphs" textLength="24" x="245.5647" y="1296.4005">0..1</text><!--link CurrencyExchange to Invoice--><path d="M351.959,658.05 C391.601,669.989 445.385,693.324 471,736 C506.284,794.785 350.922,800.887 382,862 C408.676,914.457 462.324,887.543 489,940 C502.116,965.791 520.634,991.584 479,1066 C463.208,1094.227 431.933,1115.124 408.741,1127.591 " fill="none" id="CurrencyExchange-Invoice" style="stroke: #A80036; stroke-width: 1.0;"/><polygon fill="#A80036" points="404.218,1129.972,414.0453,1129.3213,408.6429,1127.6439,410.3203,1122.2414,404.218,1129.972" style="stroke: #A80036; stroke-width: 1.0;"/><text fill="#000000" font-family="sans-serif" font-size="13" lengthAdjust="spacingAndGlyphs" textLength="92" x="461" y="905.0669">RelatedInvoice</text><text fill="#000000" font-family="sans-serif" font-size="13" lengthAdjust="spacingAndGlyphs" textLength="8" x="401.7383" y="1119.0106">1</text><!--link CurrencyExchange to Adjustment--><path d="M304.469,658.146 C304.654,670.217 304.012,689.903 299,706 C284.106,753.837 242.004,758.712 251,808 C259.837,856.416 284.21,909.731 296.972,935.438 " fill="none" id="CurrencyExchange-Adjustment" style="stroke: #A80036; stroke-width: 1.0;"/><polygon fill="#A80036" points="299.213,939.91,298.7545,930.0718,296.9718,935.4404,291.6032,933.6578,299.213,939.91" style="stroke: #A80036; stroke-width: 1.0;"/><text fill="#000000" font-family="sans-serif" font-size="13" lengthAdjust="spacingAndGlyphs" textLength="74" x="252" y="803.0669">Adjustment</text><text fill="#000000" font-family="sans-serif" font-size="13" lengthAdjust="spacingAndGlyphs" textLength="8" x="298.5128" y="928.9273">1</text><!--link CommercialTradeSettlement to Invoice--><path d="M265.41,1491.997 C235.234,1479.502 195,1455.919 195,1419 C195,1229 195,1229 195,1229 C195,1161.371 297.919,1146.783 350.229,1143.736 " fill="none" id="CommercialTradeSettlement-Invoice" style="stroke: #A80036; stroke-width: 1.0;"/><polygon fill="#A80036" points="355.433,1143.462,346.2341,1139.9433,350.44,1143.7263,346.657,1147.9321,355.433,1143.462" style="stroke: #A80036; stroke-width: 1.0;"/><text fill="#000000" font-family="sans-serif" font-size="13" lengthAdjust="spacingAndGlyphs" textLength="44" x="196" y="1320.0669">Invoice</text><text fill="#000000" font-family="sans-serif" font-size="13" lengthAdjust="spacingAndGlyphs" textLength="7" x="340.6534" y="1137.9203">*</text><!--link Invoice to Invoice--><path d="M404.549,1134.596 C421.858,1132.27 439,1134.738 439,1142 C439,1148.524 425.163,1151.179 409.8,1149.964 " fill="none" id="Invoice-Invoice" style="stroke: #A80036; stroke-width: 1.0;"/><polygon fill="#A80036" points="404.549,1149.404,413.0729,1154.338,409.5207,1149.9355,413.9232,1146.3833,404.549,1149.404" style="stroke: #A80036; stroke-width: 1.0;"/><text fill="#000000" font-family="sans-serif" font-size="13" lengthAdjust="spacingAndGlyphs" textLength="92" x="445" y="1146.0669">OriginalInvoice</text><text fill="#000000" font-family="sans-serif" font-size="13" lengthAdjust="spacingAndGlyphs" textLength="8" x="412.8618" y="1165.873">1</text></g></svg>