<?xml version="1.0" encoding="UTF-8" standalone="no"?><svg xmlns="http://www.w3.org/2000/svg" xmlns:xlink="http://www.w3.org/1999/xlink" contentScriptType="application/ecmascript" contentStyleType="text/css" height="500px" preserveAspectRatio="none" style="width:910px;height:500px;" version="1.1" viewBox="0 0 910 500" width="910px" zoomAndPan="magnify"><defs><filter height="300%" id="f1n3zozjy5bhpf" width="300%" x="-1" y="-1"><feGaussianBlur result="blurOut" stdDeviation="2.0"/><feColorMatrix in="blurOut" result="blurOut2" type="matrix" values="0 0 0 0 0 0 0 0 0 0 0 0 0 0 0 0 0 0 .4 0"/><feOffset dx="4.0" dy="4.0" in="blurOut2" result="blurOut3"/><feBlend in="SourceGraphic" in2="blurOut3" mode="normal"/></filter></defs><g><!--cluster ##16714--><!--cluster ##16726--><!--cluster ##16735--><!--class Role--><a target="_top" xlink:actuate="onRequest" xlink:href="../Role.html" xlink:show="new" xlink:title="Role of a party in an activity." xlink:type="simple"><rect fill="#FEFEEE" filter="url(#f1n3zozjy5bhpf)" height="44.7734" id="Role" style="stroke: #A80036; stroke-width: 1.5;" width="175" x="309.75" y="40.5"/><rect fill="#FEFEEE" height="23.9688" style="stroke: #A80036; stroke-width: 1.5;" width="175" x="309.75" y="40.5"/><text fill="#000000" font-family="sans-serif" font-size="12" lengthAdjust="spacingAndGlyphs" textLength="27" x="383.75" y="56.6387">Role</text><line style="stroke: #A80036; stroke-width: 1.5;" x1="310.75" x2="483.75" y1="64.4688" y2="64.4688"/><ellipse cx="320.75" cy="76.3711" fill="#84BE84" rx="3" ry="3" style="stroke: #038048; stroke-width: 1.0;"/><text fill="#000000" font-family="sans-serif" font-size="11" lengthAdjust="spacingAndGlyphs" textLength="53" x="329.75" y="78.6792">PartyRole</text><text fill="#000000" font-family="sans-serif" font-size="11" font-style="italic" lengthAdjust="spacingAndGlyphs" textLength="92" x="386.75" y="78.6792">(PartyRoleCode)</text></a><!--class PaymentPartyRole--><a target="_top" xlink:actuate="onRequest" xlink:href="../PaymentPartyRole.html" xlink:show="new" xlink:title="Role played by a party in the context of a payment." xlink:type="simple"><rect fill="#FEFECE" filter="url(#f1n3zozjy5bhpf)" height="23.9688" id="PaymentPartyRole" style="stroke: #A80036; stroke-width: 1.5;" width="119" x="290.75" y="166"/><rect fill="#FEFECE" height="23.9688" style="stroke: #A80036; stroke-width: 1.5;" width="119" x="290.75" y="166"/><text fill="#000000" font-family="sans-serif" font-size="12" lengthAdjust="spacingAndGlyphs" textLength="113" x="293.75" y="182.1387">PaymentPartyRole</text></a><!--class DebtorRole--><a target="_top" xlink:actuate="onRequest" xlink:href="../DebtorRole.html" xlink:show="new" xlink:title="Party that owes an amount of money to the (ultimate) creditor. For example, as a result of receipt of goods, assets, services, gifts, or charity payments." xlink:type="simple"><rect fill="#FEFEEE" filter="url(#f1n3zozjy5bhpf)" height="23.9688" id="DebtorRole" style="stroke: #A80036; stroke-width: 1.5;" width="76" x="290" y="270"/><rect fill="#FEFEEE" height="23.9688" style="stroke: #A80036; stroke-width: 1.5;" width="76" x="290" y="270"/><text fill="#000000" font-family="sans-serif" font-size="12" lengthAdjust="spacingAndGlyphs" textLength="70" x="293" y="286.1387">DebtorRole</text></a><!--class CreditorRole--><a target="_top" xlink:actuate="onRequest" xlink:href="../CreditorRole.html" xlink:show="new" xlink:title="Party to which an amount of money is due." xlink:type="simple"><rect fill="#FEFEEE" filter="url(#f1n3zozjy5bhpf)" height="23.9688" id="CreditorRole" style="stroke: #A80036; stroke-width: 1.5;" width="83" x="401.75" y="270"/><rect fill="#FEFEEE" height="23.9688" style="stroke: #A80036; stroke-width: 1.5;" width="83" x="401.75" y="270"/><text fill="#000000" font-family="sans-serif" font-size="12" lengthAdjust="spacingAndGlyphs" textLength="77" x="404.75" y="286.1387">CreditorRole</text></a><!--class RolePlayer--><a target="_top" xlink:actuate="onRequest" xlink:href="../RolePlayer.html" xlink:show="new" xlink:title="Type of entity that plays a specific role in a specific context." xlink:type="simple"><rect fill="#EEEEEE" filter="url(#f1n3zozjy5bhpf)" height="23.9688" id="RolePlayer" style="stroke: #A80036; stroke-width: 1.5;" width="71" x="780.75" y="466"/><rect fill="#EEEEEE" height="23.9688" style="stroke: #A80036; stroke-width: 1.5;" width="71" x="780.75" y="466"/><text fill="#000000" font-family="sans-serif" font-size="12" lengthAdjust="spacingAndGlyphs" textLength="65" x="783.75" y="482.1387">RolePlayer</text></a><!--class ContactPersonRole--><a target="_top" xlink:actuate="onRequest" xlink:href="../ContactPersonRole.html" xlink:show="new" xlink:title="Person to be contacted in a given organisation. In the corporate action domain (including meeting notifications) , it is the contact person at the party organising the meeting, at the issuer or at an intermediary." xlink:type="simple"><rect fill="#EEEEEE" filter="url(#f1n3zozjy5bhpf)" height="23.9688" id="ContactPersonRole" style="stroke: #A80036; stroke-width: 1.5;" width="126" x="773" y="376"/><rect fill="#EEEEEE" height="23.9688" style="stroke: #A80036; stroke-width: 1.5;" width="126" x="773" y="376"/><text fill="#000000" font-family="sans-serif" font-size="12" lengthAdjust="spacingAndGlyphs" textLength="120" x="776" y="392.1387">ContactPersonRole</text></a><!--class CounterpartyRisk--><a target="_top" xlink:actuate="onRequest" xlink:href="../CounterpartyRisk.html" xlink:show="new" xlink:title="Calculation of the exposure amount that one party has vis-a-vis one counterparty or a central system, based on its credit risk." xlink:type="simple"><rect fill="#EEEEEE" filter="url(#f1n3zozjy5bhpf)" height="23.9688" id="CounterpartyRisk" style="stroke: #A80036; stroke-width: 1.5;" width="113" x="779.75" y="270"/><rect fill="#EEEEEE" height="23.9688" style="stroke: #A80036; stroke-width: 1.5;" width="113" x="779.75" y="270"/><text fill="#000000" font-family="sans-serif" font-size="12" lengthAdjust="spacingAndGlyphs" textLength="107" x="782.75" y="286.1387">CounterpartyRisk</text></a><!--class Entry--><a target="_top" xlink:actuate="onRequest" xlink:href="../Entry.html" xlink:show="new" xlink:title="Posting to an account that results in an increase or decrease to a balance." xlink:type="simple"><rect fill="#EEEEEE" filter="url(#f1n3zozjy5bhpf)" height="23.9688" id="Entry" style="stroke: #A80036; stroke-width: 1.5;" width="38" x="861" y="166"/><rect fill="#EEEEEE" height="23.9688" style="stroke: #A80036; stroke-width: 1.5;" width="38" x="861" y="166"/><text fill="#000000" font-family="sans-serif" font-size="12" lengthAdjust="spacingAndGlyphs" textLength="32" x="864" y="182.1387">Entry</text></a><!--class CashAccount--><a target="_top" xlink:actuate="onRequest" xlink:href="../CashAccount.html" xlink:show="new" xlink:title="Account to or from which a cash entry is made." xlink:type="simple"><rect fill="#EEEEEE" filter="url(#f1n3zozjy5bhpf)" height="23.9688" id="CashAccount" style="stroke: #A80036; stroke-width: 1.5;" width="88" x="146.5" y="270"/><rect fill="#EEEEEE" height="23.9688" style="stroke: #A80036; stroke-width: 1.5;" width="88" x="146.5" y="270"/><text fill="#000000" font-family="sans-serif" font-size="12" lengthAdjust="spacingAndGlyphs" textLength="82" x="149.5" y="286.1387">CashAccount</text></a><!--class Payment--><a target="_top" xlink:actuate="onRequest" xlink:href="../Payment.html" xlink:show="new" xlink:title="Payment information and processes required to transfer cash end to end from the debtor to the creditor." xlink:type="simple"><rect fill="#EEEEEE" filter="url(#f1n3zozjy5bhpf)" height="23.9688" id="Payment" style="stroke: #A80036; stroke-width: 1.5;" width="60" x="38.5" y="376"/><rect fill="#EEEEEE" height="23.9688" style="stroke: #A80036; stroke-width: 1.5;" width="60" x="38.5" y="376"/><text fill="#000000" font-family="sans-serif" font-size="12" lengthAdjust="spacingAndGlyphs" textLength="54" x="41.5" y="392.1387">Payment</text></a><!--link Role to PaymentPartyRole--><path d="M380.274,104.213 C371.161,126.124 360.562,151.607 354.631,165.865 " fill="none" id="Role-PaymentPartyRole" style="stroke: #A80036; stroke-width: 1.0;"/><polygon fill="none" points="373.905,101.299,388.049,85.52,386.831,106.675,373.905,101.299" style="stroke: #A80036; stroke-width: 1.0;"/><!--link PaymentPartyRole to DebtorRole--><path d="M343.327,209.94 C338.939,230.283 333.459,255.69 330.382,269.954 " fill="none" id="PaymentPartyRole-DebtorRole" style="stroke: #A80036; stroke-width: 1.0;"/><polygon fill="none" points="336.502,208.38,347.562,190.306,350.187,211.332,336.502,208.38" style="stroke: #A80036; stroke-width: 1.0;"/><!--link PaymentPartyRole to CreditorRole--><path d="M373.844,205.151 C392.976,226.135 418.88,254.546 432.929,269.954 " fill="none" id="PaymentPartyRole-CreditorRole" style="stroke: #A80036; stroke-width: 1.0;"/><polygon fill="none" points="368.61,209.801,360.308,190.306,378.956,200.368,368.61,209.801" style="stroke: #A80036; stroke-width: 1.0;"/><!--link ContactPersonRole to RolePlayer--><!--link CounterpartyRisk to ContactPersonRole--><!--link Entry to CounterpartyRisk--><!--link Payment to CashAccount--><!--link CashAccount to Payment--><path d="M163.978,294.088 C148.163,301.624 128.165,312.639 113,326 C98.0497,339.172 85.043,358.101 76.9103,371.369 " fill="none" id="CashAccount-Payment" style="stroke: #A80036; stroke-width: 1.0;"/><polygon fill="#A80036" points="74.14,375.98,82.203,370.3243,76.7145,371.6937,75.345,366.2051,74.14,375.98" style="stroke: #A80036; stroke-width: 1.0;"/><text fill="#000000" font-family="sans-serif" font-size="13" lengthAdjust="spacingAndGlyphs" textLength="57" x="114" y="339.0669">Payment</text><text fill="#000000" font-family="sans-serif" font-size="13" lengthAdjust="spacingAndGlyphs" textLength="8" x="65.36" y="365.0213">1</text><!--link Role to RolePlayer--><path d="M469.988,85.548 C511.386,102.753 555,131.641 555,177 C555,177 555,177 555,389 C555,434.9392 702.025,461.4913 775.378,471.8799 " fill="none" id="Role-RolePlayer" style="stroke: #A80036; stroke-width: 1.0;"/><polygon fill="#A80036" points="780.529,472.6,772.1686,467.3938,775.577,471.9086,771.0623,475.317,780.529,472.6" style="stroke: #A80036; stroke-width: 1.0;"/><text fill="#000000" font-family="sans-serif" font-size="13" lengthAdjust="spacingAndGlyphs" textLength="39" x="556" y="286.0669">Player</text><text fill="#000000" font-family="sans-serif" font-size="13" lengthAdjust="spacingAndGlyphs" textLength="7" x="765.8674" y="466.3783">*</text><!--link Role to ContactPersonRole--><path d="M484.256,72.588 C517.722,79.708 554.254,92.627 581,116 C625.515,154.901 597.171,191.756 634,238 C684.292,301.148 767.574,350.927 809.766,373.619 " fill="none" id="Role-ContactPersonRole" style="stroke: #A80036; stroke-width: 1.0;"/><polygon fill="#A80036" points="814.211,375.991,808.1534,368.2254,809.7996,373.6374,804.3876,375.2836,814.211,375.991" style="stroke: #A80036; stroke-width: 1.0;"/><text fill="#000000" font-family="sans-serif" font-size="13" lengthAdjust="spacingAndGlyphs" textLength="121" x="635" y="233.0669">ContactPersonRole</text><text fill="#000000" font-family="sans-serif" font-size="13" lengthAdjust="spacingAndGlyphs" textLength="8" x="796.0023" y="365.0361">1</text><!--link Role to CounterpartyRisk--><path d="M484.417,70.023 C535.542,76.359 600.036,89.354 652,116 C695.099,138.1 695.994,157.605 732,190 C762.432,217.379 798.498,248.687 819.168,266.523 " fill="none" id="Role-CounterpartyRisk" style="stroke: #A80036; stroke-width: 1.0;"/><polygon fill="#A80036" points="823.091,269.906,818.8854,261.0002,819.3037,266.6416,813.6623,267.0599,823.091,269.906" style="stroke: #A80036; stroke-width: 1.0;"/><text fill="#000000" font-family="sans-serif" font-size="13" lengthAdjust="spacingAndGlyphs" textLength="109" x="733" y="182.0669">CounterpartyRisk</text><text fill="#000000" font-family="sans-serif" font-size="13" lengthAdjust="spacingAndGlyphs" textLength="24" x="789.0988" y="258.9219">0..1</text><!--link Role to Entry--><path d="M484.571,74.345 C554.19,83.273 653.853,97.625 740,116 C782.393,125.043 795.162,122.751 834,142 C844.818,147.361 855.627,155.414 864.047,162.444 " fill="none" id="Role-Entry" style="stroke: #A80036; stroke-width: 1.0;"/><polygon fill="#A80036" points="867.979,165.797,863.7265,156.9135,864.1746,162.5526,858.5355,163.0006,867.979,165.797" style="stroke: #A80036; stroke-width: 1.0;"/><text fill="#000000" font-family="sans-serif" font-size="13" lengthAdjust="spacingAndGlyphs" textLength="33" x="816" y="129.0669">Entry</text><text fill="#000000" font-family="sans-serif" font-size="13" lengthAdjust="spacingAndGlyphs" textLength="8" x="853.3408" y="155.0332">1</text><!--link PaymentPartyRole to CashAccount--><path d="M307.269,190.079 C286.673,196.694 262.313,206.482 243,220 C225.445,232.287 209.972,251.626 200.345,265.229 " fill="none" id="PaymentPartyRole-CashAccount" style="stroke: #A80036; stroke-width: 1.0;"/><polygon fill="#A80036" points="197.31,269.603,205.7264,264.4879,200.1598,265.4947,199.153,259.9281,197.31,269.603" style="stroke: #A80036; stroke-width: 1.0;"/><text fill="#000000" font-family="sans-serif" font-size="13" lengthAdjust="spacingAndGlyphs" textLength="84" x="244" y="233.0669">CashAccount</text><text fill="#000000" font-family="sans-serif" font-size="13" lengthAdjust="spacingAndGlyphs" textLength="7" x="190.0463" y="259.0351">*</text><!--link PaymentPartyRole to Payment--><path d="M290.731,184.574 C216.36,192.936 95.2221,211.553 68,246 C39.2807,282.342 53.0172,341.994 62.1376,370.642 " fill="none" id="PaymentPartyRole-Payment" style="stroke: #A80036; stroke-width: 1.0;"/><polygon fill="#A80036" points="63.7756,375.617,64.7619,365.8177,62.2127,370.8675,57.1628,368.3183,63.7756,375.617" style="stroke: #A80036; stroke-width: 1.0;"/><text fill="#000000" font-family="sans-serif" font-size="13" lengthAdjust="spacingAndGlyphs" textLength="57" x="69" y="286.0669">Payment</text><text fill="#000000" font-family="sans-serif" font-size="13" lengthAdjust="spacingAndGlyphs" textLength="23" x="34.2853" y="365.0536">1..*</text><!--link Payment to Payment--><path d="M97.625,379.914 C115.333,378.117 132,380.812 132,388 C132,394.458 118.547,397.289 102.9719,396.494 " fill="none" id="Payment-Payment" style="stroke: #A80036; stroke-width: 1.0;"/><polygon fill="#A80036" points="97.625,396.086,106.2941,400.7601,102.6105,396.467,106.9036,392.7834,97.625,396.086" style="stroke: #A80036; stroke-width: 1.0;"/><text fill="#000000" font-family="sans-serif" font-size="13" lengthAdjust="spacingAndGlyphs" textLength="105" x="138" y="392.0669">OriginalPayment</text><text fill="#000000" font-family="sans-serif" font-size="13" lengthAdjust="spacingAndGlyphs" textLength="8" x="106.5273" y="392.0637">1</text></g></svg>