<?xml version="1.0" encoding="UTF-8" standalone="no"?><svg xmlns="http://www.w3.org/2000/svg" xmlns:xlink="http://www.w3.org/1999/xlink" contentScriptType="application/ecmascript" contentStyleType="text/css" height="702px" preserveAspectRatio="none" style="width:2376px;height:702px;" version="1.1" viewBox="0 0 2376 702" width="2376px" zoomAndPan="magnify"><defs><filter height="300%" id="f9zz98wbkii2m" width="300%" x="-1" y="-1"><feGaussianBlur result="blurOut" stdDeviation="2.0"/><feColorMatrix in="blurOut" result="blurOut2" type="matrix" values="0 0 0 0 0 0 0 0 0 0 0 0 0 0 0 0 0 0 .4 0"/><feOffset dx="4.0" dy="4.0" in="blurOut2" result="blurOut3"/><feBlend in="SourceGraphic" in2="blurOut3" mode="normal"/></filter></defs><g><!--cluster ##2078--><!--cluster ##2084--><!--class Product--><a target="_top" xlink:actuate="onRequest" xlink:href="../Product.html" xlink:show="new" xlink:title="Item that is offered for sale. Products can be services or goods." xlink:type="simple"><rect fill="#FEFECE" filter="url(#f9zz98wbkii2m)" height="70.3828" id="Product" style="stroke: #A80036; stroke-width: 1.5;" width="171" x="2093.75" y="40"/><rect fill="#FEFECE" height="23.9688" style="stroke: #A80036; stroke-width: 1.5;" width="171" x="2093.75" y="40"/><text fill="#000000" font-family="sans-serif" font-size="12" lengthAdjust="spacingAndGlyphs" textLength="49" x="2154.75" y="56.1387">Product</text><line style="stroke: #A80036; stroke-width: 1.5;" x1="2094.75" x2="2263.75" y1="63.9688" y2="63.9688"/><ellipse cx="2104.75" cy="75.8711" fill="#84BE84" rx="3" ry="3" style="stroke: #038048; stroke-width: 1.0;"/><text fill="#000000" font-family="sans-serif" font-size="11" lengthAdjust="spacingAndGlyphs" textLength="33" x="2113.75" y="78.1792">Name</text><text fill="#000000" font-family="sans-serif" font-size="11" font-style="italic" lengthAdjust="spacingAndGlyphs" textLength="70" x="2150.75" y="78.1792">(Max35Text)</text><ellipse cx="2104.75" cy="88.6758" fill="#84BE84" rx="3" ry="3" style="stroke: #038048; stroke-width: 1.0;"/><text fill="#000000" font-family="sans-serif" font-size="11" lengthAdjust="spacingAndGlyphs" textLength="64" x="2113.75" y="90.9839">Description</text><text fill="#000000" font-family="sans-serif" font-size="11" font-style="italic" lengthAdjust="spacingAndGlyphs" textLength="77" x="2181.75" y="90.9839">(Max140Text)</text><ellipse cx="2104.75" cy="101.4805" fill="#84BE84" rx="3" ry="3" style="stroke: #038048; stroke-width: 1.0;"/><text fill="#000000" font-family="sans-serif" font-size="11" lengthAdjust="spacingAndGlyphs" textLength="39" x="2113.75" y="103.7886">Quality</text><text fill="#000000" font-family="sans-serif" font-size="11" font-style="italic" lengthAdjust="spacingAndGlyphs" textLength="70" x="2156.75" y="103.7886">(Max70Text)</text></a><!--class Goods--><a target="_top" xlink:actuate="onRequest" xlink:href="../Goods.html" xlink:show="new" xlink:title="Good is a physical product that can be delivered to a purchaser and that involves the transfer of ownership from seller to customer." xlink:type="simple"><rect fill="#FEFEEE" filter="url(#f9zz98wbkii2m)" height="23.9688" id="Goods" style="stroke: #A80036; stroke-width: 1.5;" width="46" x="2219" y="188"/><rect fill="#FEFEEE" height="23.9688" style="stroke: #A80036; stroke-width: 1.5;" width="46" x="2219" y="188"/><text fill="#000000" font-family="sans-serif" font-size="12" lengthAdjust="spacingAndGlyphs" textLength="40" x="2222" y="204.1387">Goods</text></a><!--class CardPayment--><a target="_top" xlink:actuate="onRequest" xlink:href="../CardPayment.html" xlink:show="new" xlink:title="Payment through an electronic money product." xlink:type="simple"><rect fill="#EEEEEE" filter="url(#f9zz98wbkii2m)" height="23.9688" id="CardPayment" style="stroke: #A80036; stroke-width: 1.5;" width="89" x="1374.75" y="394"/><rect fill="#EEEEEE" height="23.9688" style="stroke: #A80036; stroke-width: 1.5;" width="89" x="1374.75" y="394"/><text fill="#000000" font-family="sans-serif" font-size="12" lengthAdjust="spacingAndGlyphs" textLength="83" x="1377.75" y="410.1387">CardPayment</text></a><!--class Price--><a target="_top" xlink:actuate="onRequest" xlink:href="../Price.html" xlink:show="new" xlink:title="Amount of money for which goods, services or assets are offered, sold, or bought." xlink:type="simple"><rect fill="#EEEEEE" filter="url(#f9zz98wbkii2m)" height="23.9688" id="Price" style="stroke: #A80036; stroke-width: 1.5;" width="37" x="1425.75" y="292"/><rect fill="#EEEEEE" height="23.9688" style="stroke: #A80036; stroke-width: 1.5;" width="37" x="1425.75" y="292"/><text fill="#000000" font-family="sans-serif" font-size="12" lengthAdjust="spacingAndGlyphs" textLength="31" x="1428.75" y="308.1387">Price</text></a><!--class ProductCategory--><a target="_top" xlink:actuate="onRequest" xlink:href="../ProductCategory.html" xlink:show="new" xlink:title="Specifies the category of the product." xlink:type="simple"><rect fill="#EEEEEE" filter="url(#f9zz98wbkii2m)" height="23.9688" id="ProductCategory" style="stroke: #A80036; stroke-width: 1.5;" width="111" x="1352.75" y="188"/><rect fill="#EEEEEE" height="23.9688" style="stroke: #A80036; stroke-width: 1.5;" width="111" x="1352.75" y="188"/><text fill="#000000" font-family="sans-serif" font-size="12" lengthAdjust="spacingAndGlyphs" textLength="105" x="1355.75" y="204.1387">ProductCategory</text></a><!--class LineItem--><a target="_top" xlink:actuate="onRequest" xlink:href="../LineItem.html" xlink:show="new" xlink:title="Unit of information  showing the related  provision of products and/or services and monetary summations reported as a discrete line item." xlink:type="simple"><rect fill="#EEEEEE" filter="url(#f9zz98wbkii2m)" height="23.9688" id="LineItem" style="stroke: #A80036; stroke-width: 1.5;" width="58" x="1021.5" y="63"/><rect fill="#EEEEEE" height="23.9688" style="stroke: #A80036; stroke-width: 1.5;" width="58" x="1021.5" y="63"/><text fill="#000000" font-family="sans-serif" font-size="12" lengthAdjust="spacingAndGlyphs" textLength="52" x="1024.5" y="79.1387">LineItem</text></a><!--class ProductIdentification--><a target="_top" xlink:actuate="onRequest" xlink:href="../ProductIdentification.html" xlink:show="new" xlink:title="Information used to identify a product." xlink:type="simple"><rect fill="#EEEEEE" filter="url(#f9zz98wbkii2m)" height="23.9688" id="ProductIdentification" style="stroke: #A80036; stroke-width: 1.5;" width="136" x="1238" y="496"/><rect fill="#EEEEEE" height="23.9688" style="stroke: #A80036; stroke-width: 1.5;" width="136" x="1238" y="496"/><text fill="#000000" font-family="sans-serif" font-size="12" lengthAdjust="spacingAndGlyphs" textLength="130" x="1241" y="512.1387">ProductIdentification</text></a><!--class Country--><a target="_top" xlink:actuate="onRequest" xlink:href="../Country.html" xlink:show="new" xlink:title="Nation with its own government." xlink:type="simple"><rect fill="#EEEEEE" filter="url(#f9zz98wbkii2m)" height="23.9688" id="Country" style="stroke: #A80036; stroke-width: 1.5;" width="54" x="1285" y="394"/><rect fill="#EEEEEE" height="23.9688" style="stroke: #A80036; stroke-width: 1.5;" width="54" x="1285" y="394"/><text fill="#000000" font-family="sans-serif" font-size="12" lengthAdjust="spacingAndGlyphs" textLength="48" x="1288" y="410.1387">Country</text></a><!--class ProductCharacteristics--><a target="_top" xlink:actuate="onRequest" xlink:href="../ProductCharacteristics.html" xlink:show="new" xlink:title="Identifies the characteristic of a product." xlink:type="simple"><rect fill="#EEEEEE" filter="url(#f9zz98wbkii2m)" height="23.9688" id="ProductCharacteristics" style="stroke: #A80036; stroke-width: 1.5;" width="149" x="1131.75" y="292"/><rect fill="#EEEEEE" height="23.9688" style="stroke: #A80036; stroke-width: 1.5;" width="149" x="1131.75" y="292"/><text fill="#000000" font-family="sans-serif" font-size="12" lengthAdjust="spacingAndGlyphs" textLength="143" x="1134.75" y="308.1387">ProductCharacteristics</text></a><!--class ProductQuantity--><a target="_top" xlink:actuate="onRequest" xlink:href="../ProductQuantity.html" xlink:show="new" xlink:title="Specifies the ordered quantity of a product." xlink:type="simple"><rect fill="#EEEEEE" filter="url(#f9zz98wbkii2m)" height="23.9688" id="ProductQuantity" style="stroke: #A80036; stroke-width: 1.5;" width="107" x="1167.75" y="188"/><rect fill="#EEEEEE" height="23.9688" style="stroke: #A80036; stroke-width: 1.5;" width="107" x="1167.75" y="188"/><text fill="#000000" font-family="sans-serif" font-size="12" lengthAdjust="spacingAndGlyphs" textLength="101" x="1170.75" y="204.1387">ProductQuantity</text></a><!--class ProductDelivery--><a target="_top" xlink:actuate="onRequest" xlink:href="../ProductDelivery.html" xlink:show="new" xlink:title="Arrangements for delivery of invoiced products and/or services." xlink:type="simple"><rect fill="#EEEEEE" filter="url(#f9zz98wbkii2m)" height="23.9688" id="ProductDelivery" style="stroke: #A80036; stroke-width: 1.5;" width="103" x="1359.75" y="668"/><rect fill="#EEEEEE" height="23.9688" style="stroke: #A80036; stroke-width: 1.5;" width="103" x="1359.75" y="668"/><text fill="#000000" font-family="sans-serif" font-size="12" lengthAdjust="spacingAndGlyphs" textLength="97" x="1362.75" y="684.1387">ProductDelivery</text></a><!--class PurchaseOrder--><a target="_top" xlink:actuate="onRequest" xlink:href="../PurchaseOrder.html" xlink:show="new" xlink:title="Document issued by a buyer and containing the details of a purchase, including description of goods, transport information, payment terms, etc." xlink:type="simple"><rect fill="#EEEEEE" filter="url(#f9zz98wbkii2m)" height="23.9688" id="PurchaseOrder" style="stroke: #A80036; stroke-width: 1.5;" width="100" x="1363" y="582"/><rect fill="#EEEEEE" height="23.9688" style="stroke: #A80036; stroke-width: 1.5;" width="100" x="1363" y="582"/><text fill="#000000" font-family="sans-serif" font-size="12" lengthAdjust="spacingAndGlyphs" textLength="94" x="1366" y="598.1387">PurchaseOrder</text></a><!--class Tax--><a target="_top" xlink:actuate="onRequest" xlink:href="../Tax.html" xlink:show="new" xlink:title="Amount of money due to the government or tax authority, according to various pre-defined parameters such as thresholds or income." xlink:type="simple"><rect fill="#EEEEEE" filter="url(#f9zz98wbkii2m)" height="23.9688" id="Tax" style="stroke: #A80036; stroke-width: 1.5;" width="27" x="1409.75" y="496"/><rect fill="#EEEEEE" height="23.9688" style="stroke: #A80036; stroke-width: 1.5;" width="27" x="1409.75" y="496"/><text fill="#000000" font-family="sans-serif" font-size="12" lengthAdjust="spacingAndGlyphs" textLength="21" x="1412.75" y="512.1387">Tax</text></a><!--link Product to Goods--><path d="M2205.76,128.244 C2217.12,150.423 2229.32,174.245 2236.27,187.815 " fill="none" id="Product-Goods" style="stroke: #A80036; stroke-width: 1.0;"/><polygon fill="none" points="2199.44,131.254,2196.55,110.262,2211.9,124.872,2199.44,131.254" style="stroke: #A80036; stroke-width: 1.0;"/><!--link Price to CardPayment--><!--link ProductCategory to Price--><!--link LineItem to ProductCategory--><!--link ProductIdentification to LineItem--><!--link Country to ProductIdentification--><!--link ProductCharacteristics to Country--><!--link ProductQuantity to ProductCharacteristics--><!--link ProductDelivery to ProductQuantity--><!--link PurchaseOrder to ProductDelivery--><!--link Tax to PurchaseOrder--><!--link Product to CardPayment--><path d="M2093.56,85.427 C2042.47,93.952 1977.83,110.002 1927,140 C1876.63,169.726 1879.24,195.553 1837,236 C1821.24,251.094 1707.83,354.892 1688,364 C1616.67,396.754 1524.63,404.262 1468.8,405.498 " fill="none" id="Product-CardPayment" style="stroke: #A80036; stroke-width: 1.0;"/><polygon fill="#A80036" points="1463.51,405.599,1472.5773,409.4441,1468.5093,405.5133,1472.4401,401.4453,1463.51,405.599" style="stroke: #A80036; stroke-width: 1.0;"/><text fill="#000000" font-family="sans-serif" font-size="13" lengthAdjust="spacingAndGlyphs" textLength="87" x="1828" y="257.0669">CardPayment</text><text fill="#000000" font-family="sans-serif" font-size="13" lengthAdjust="spacingAndGlyphs" textLength="8" x="1471.8047" y="400.1501">1</text><!--link Product to Price--><path d="M2093.75,84.729 C2015.33,94.051 1896.35,111.476 1796,140 C1775.68,145.777 1772.24,151.951 1752,158 C1685.19,177.964 1661.76,159.763 1598,188 C1540.95,213.267 1485.07,262.981 1459.1,287.946 " fill="none" id="Product-Price" style="stroke: #A80036; stroke-width: 1.0;"/><polygon fill="#A80036" points="1455.19,291.732,1464.4335,288.3323,1458.7773,288.249,1458.8606,282.5927,1455.19,291.732" style="stroke: #A80036; stroke-width: 1.0;"/><text fill="#000000" font-family="sans-serif" font-size="13" lengthAdjust="spacingAndGlyphs" textLength="57" x="1599" y="204.0669">UnitPrice</text><text fill="#000000" font-family="sans-serif" font-size="13" lengthAdjust="spacingAndGlyphs" textLength="7" x="1449.3233" y="280.9467">*</text><!--link Product to Price--><path d="M2093.71,86.409 C2023.71,96.266 1922.55,113.544 1837,140 C1824.36,143.91 1739.47,181.404 1728,188 C1696.56,206.079 1694.44,219.785 1662,236 C1595.09,269.442 1508.21,290.014 1467.28,298.498 " fill="none" id="Product-Price" style="stroke: #A80036; stroke-width: 1.0;"/><polygon fill="#A80036" points="1462.28,299.521,1471.8982,301.64,1467.179,298.5209,1470.2981,293.8017,1462.28,299.521" style="stroke: #A80036; stroke-width: 1.0;"/><text fill="#000000" font-family="sans-serif" font-size="13" lengthAdjust="spacingAndGlyphs" textLength="54" x="1729" y="204.0669">NetPrice</text><text fill="#000000" font-family="sans-serif" font-size="13" lengthAdjust="spacingAndGlyphs" textLength="24" x="1470.7259" y="291.9606">0..1</text><!--link Product to Price--><path d="M2227.08,110.195 C2269.34,144.291 2318.96,197.054 2283,236 C2254.52,266.841 1601.03,296.304 1467.64,302.008 " fill="none" id="Product-Price" style="stroke: #A80036; stroke-width: 1.0;"/><polygon fill="#A80036" points="1462.4,302.232,1471.5632,305.8425,1467.3954,302.0177,1471.2203,297.8499,1462.4,302.232" style="stroke: #A80036; stroke-width: 1.0;"/><text fill="#000000" font-family="sans-serif" font-size="13" lengthAdjust="spacingAndGlyphs" textLength="68" x="2296" y="204.0669">GrossPrice</text><text fill="#000000" font-family="sans-serif" font-size="13" lengthAdjust="spacingAndGlyphs" textLength="24" x="1470.8797" y="315.9341">0..1</text><!--link Product to ProductCategory--><path d="M2093.29,77.075 C1985.05,80.473 1794.08,93.306 1638,140 C1620.86,145.127 1618.89,152.103 1602,158 C1558.46,173.206 1507.35,183.726 1468.53,190.3 " fill="none" id="Product-ProductCategory" style="stroke: #A80036; stroke-width: 1.0;"/><polygon fill="#A80036" points="1463.37,191.161,1472.9013,193.6418,1468.3032,190.3467,1471.5983,185.7486,1463.37,191.161" style="stroke: #A80036; stroke-width: 1.0;"/><text fill="#000000" font-family="sans-serif" font-size="13" lengthAdjust="spacingAndGlyphs" textLength="107" x="1639" y="153.0669">ProductCategory</text><text fill="#000000" font-family="sans-serif" font-size="13" lengthAdjust="spacingAndGlyphs" textLength="7" x="1471.6134" y="184.8011">*</text><!--link Product to LineItem--><path d="M2093.39,75 C1862.98,75 1236.84,75 1083.99,75 " fill="none" id="Product-LineItem" style="stroke: #A80036; stroke-width: 1.0;"/><polygon fill="#A80036" points="1078.76,75,1087.76,79,1083.76,75,1087.76,71,1078.76,75" style="stroke: #A80036; stroke-width: 1.0;"/><text fill="#000000" font-family="sans-serif" font-size="13" lengthAdjust="spacingAndGlyphs" textLength="55" x="1557.75" y="67.0669">LineItem</text><text fill="#000000" font-family="sans-serif" font-size="13" lengthAdjust="spacingAndGlyphs" textLength="24" x="1087.5669" y="69.2255">0..1</text><!--link Product to ProductIdentification--><path d="M2093.58,104.434 C2071.44,113.897 2048.39,125.742 2029,140 C1971.6,182.211 1983.06,220.706 1925,262 C1895.07,283.286 1881.03,275.947 1848,292 C1791.37,319.518 1783.21,337.716 1726,364 C1595.01,424.178 1431.09,472.791 1352.38,494.589 " fill="none" id="Product-ProductIdentification" style="stroke: #A80036; stroke-width: 1.0;"/><polygon fill="#A80036" points="1347.32,495.986,1357.0595,497.4499,1352.1401,494.657,1354.933,489.7377,1347.32,495.986" style="stroke: #A80036; stroke-width: 1.0;"/><text fill="#000000" font-family="sans-serif" font-size="13" lengthAdjust="spacingAndGlyphs" textLength="130" x="1849" y="308.0669">ProductIdentification</text><text fill="#000000" font-family="sans-serif" font-size="13" lengthAdjust="spacingAndGlyphs" textLength="7" x="1351.9769" y="485.0294">*</text><!--link Product to Country--><path d="M2093.45,85.105 C2035.08,93.702 1957.2,109.952 1894,140 C1862.84,154.812 1858.29,164.541 1833,188 C1811.78,207.679 1813.54,220.665 1789,236 C1778.39,242.632 1773.9,240.113 1762,244 C1604.1,295.594 1417.97,364.952 1344.32,392.739 " fill="none" id="Product-Country" style="stroke: #A80036; stroke-width: 1.0;"/><polygon fill="#A80036" points="1339.21,394.667,1349.0433,395.22,1343.8859,392.8961,1346.2098,387.7386,1339.21,394.667" style="stroke: #A80036; stroke-width: 1.0;"/><text fill="#000000" font-family="sans-serif" font-size="13" lengthAdjust="spacingAndGlyphs" textLength="37" x="1763" y="257.0669">Origin</text><text fill="#000000" font-family="sans-serif" font-size="13" lengthAdjust="spacingAndGlyphs" textLength="8" x="1346.8174" y="385.9196">1</text><!--link Product to ProductCharacteristics--><path d="M2093.52,82.225 C1965.8,91.96 1717.73,112.555 1508,140 C1459.75,146.314 1448.28,151.905 1400,158 C1361.5,162.861 1078.24,159.403 1052,188 C1037.58,203.719 1040.3,218.158 1052,236 C1070.74,264.586 1104.61,281.041 1135.82,290.481 " fill="none" id="Product-ProductCharacteristics" style="stroke: #A80036; stroke-width: 1.0;"/><polygon fill="#A80036" points="1140.81,291.937,1133.29,285.577,1136.01,290.537,1131.05,293.257,1140.81,291.937" style="stroke: #A80036; stroke-width: 1.0;"/><text fill="#000000" font-family="sans-serif" font-size="13" lengthAdjust="spacingAndGlyphs" textLength="95" x="1053" y="204.0669">Characteristics</text><text fill="#000000" font-family="sans-serif" font-size="13" lengthAdjust="spacingAndGlyphs" textLength="7" x="1116.6364" y="283.2677">*</text><!--link Product to ProductQuantity--><path d="M2093.52,80.163 C1943.36,88.198 1638.54,107.936 1537,140 C1521.44,144.914 1520.45,152.745 1505,158 C1464.41,171.806 1350.02,185.581 1279.42,193.126 " fill="none" id="Product-ProductQuantity" style="stroke: #A80036; stroke-width: 1.0;"/><polygon fill="#A80036" points="1274.41,193.658,1283.7824,196.6843,1279.382,193.1295,1282.9368,188.7291,1274.41,193.658" style="stroke: #A80036; stroke-width: 1.0;"/><text fill="#000000" font-family="sans-serif" font-size="13" lengthAdjust="spacingAndGlyphs" textLength="54" x="1538" y="153.0669">Quantity</text><text fill="#000000" font-family="sans-serif" font-size="13" lengthAdjust="spacingAndGlyphs" textLength="7" x="1282.7319" y="187.557">*</text><!--link Product to ProductDelivery--><path d="M2182.28,110.001 C2185.8,142.59 2192.25,193.034 2202,236 C2208.91,266.432 2223,271.794 2223,303 C2223,303 2223,303 2223,595 C2223,671.0845 1651.65,678.6305 1467.48,679.0865 " fill="none" id="Product-ProductDelivery" style="stroke: #A80036; stroke-width: 1.0;"/><polygon fill="#A80036" points="1462.41,679.0975,1471.41,683.0975,1467.41,679.0975,1471.41,675.0975,1462.41,679.0975" style="stroke: #A80036; stroke-width: 1.0;"/><text fill="#000000" font-family="sans-serif" font-size="13" lengthAdjust="spacingAndGlyphs" textLength="51" x="2224" y="410.0669">Delivery</text><text fill="#000000" font-family="sans-serif" font-size="13" lengthAdjust="spacingAndGlyphs" textLength="8" x="1470.8564" y="673.7372">1</text><!--link Product to PurchaseOrder--><path d="M2155.22,110.06 C2149.54,119.426 2143.97,129.817 2140,140 C2104.81,230.222 2099,257.159 2099,354 C2099,354 2099,354 2102,509 C2102,572.702 1631.92,588.48 1468.33,592.041 " fill="none" id="Product-PurchaseOrder" style="stroke: #A80036; stroke-width: 1.0;"/><polygon fill="#A80036" points="1463.11,592.153,1472.1882,595.9722,1468.109,592.053,1472.0282,587.9738,1463.11,592.153" style="stroke: #A80036; stroke-width: 1.0;"/><text fill="#000000" font-family="sans-serif" font-size="13" lengthAdjust="spacingAndGlyphs" textLength="95" x="2100" y="359.0669">PurchaseOrder</text><text fill="#000000" font-family="sans-serif" font-size="13" lengthAdjust="spacingAndGlyphs" textLength="7" x="1470.984" y="586.7122">*</text><!--link Product to Tax--><path d="M2093.34,108.852 C2057.49,128.668 2024,158.12 2024,199 C2024,199 2024,199 2024,407 C2024,467.596 1542.46,499.834 1441.45,505.93 " fill="none" id="Product-Tax" style="stroke: #A80036; stroke-width: 1.0;"/><polygon fill="#A80036" points="1436.4,506.232,1445.6238,509.6848,1441.391,505.932,1445.1438,501.6993,1436.4,506.232" style="stroke: #A80036; stroke-width: 1.0;"/><text fill="#000000" font-family="sans-serif" font-size="13" lengthAdjust="spacingAndGlyphs" textLength="22" x="2025" y="308.0669">Tax</text><text fill="#000000" font-family="sans-serif" font-size="13" lengthAdjust="spacingAndGlyphs" textLength="7" x="1444.9331" y="497.0786">*</text><!--link LineItem to ProductQuantity--><path d="M1078.57,79.107 C1114.93,84.656 1176.97,99.762 1210,140 C1219.72,151.839 1221.9,169.536 1222,182.459 " fill="none" id="LineItem-ProductQuantity" style="stroke: #A80036; stroke-width: 1.0;"/><polygon fill="#A80036" points="1221.93,187.674,1226.0479,178.7273,1221.9957,182.6744,1218.0486,178.6222,1221.93,187.674" style="stroke: #A80036; stroke-width: 1.0;"/><text fill="#000000" font-family="sans-serif" font-size="13" lengthAdjust="spacingAndGlyphs" textLength="66" x="1220" y="153.0669">NetWeight</text><text fill="#000000" font-family="sans-serif" font-size="13" lengthAdjust="spacingAndGlyphs" textLength="8" x="1211.499" y="176.8695">1</text><!--link LineItem to ProductQuantity--><path d="M1078.94,79.152 C1138.07,86.249 1269.41,105.611 1296,140 C1310.69,159.002 1284.69,175.403 1259.37,186.056 " fill="none" id="LineItem-ProductQuantity" style="stroke: #A80036; stroke-width: 1.0;"/><polygon fill="#A80036" points="1254.66,187.978,1264.504,188.2878,1259.2907,186.092,1261.4864,180.8787,1254.66,187.978" style="stroke: #A80036; stroke-width: 1.0;"/><text fill="#000000" font-family="sans-serif" font-size="13" lengthAdjust="spacingAndGlyphs" textLength="88" x="1302" y="153.0669">BilledQuantity</text><text fill="#000000" font-family="sans-serif" font-size="13" lengthAdjust="spacingAndGlyphs" textLength="7" x="1256.5978" y="177.0187">*</text><!--link LineItem to ProductQuantity--><path d="M1021.49,76.775 C863.705,81.199 103.4223,104.324 70,140 C64.5306,145.838 64.423,152.264 70,158 C111.457,200.635 1080.73,183.159 1140,188 C1147.24,188.591 1154.82,189.386 1162.32,190.279 " fill="none" id="LineItem-ProductQuantity" style="stroke: #A80036; stroke-width: 1.0;"/><polygon fill="#A80036" points="1167.5,190.912,1159.0595,185.8367,1162.5379,190.2978,1158.0768,193.7762,1167.5,190.912" style="stroke: #A80036; stroke-width: 1.0;"/><text fill="#000000" font-family="sans-serif" font-size="13" lengthAdjust="spacingAndGlyphs" textLength="128" x="71" y="153.0669">ChargeFreeQuantity</text><text fill="#000000" font-family="sans-serif" font-size="13" lengthAdjust="spacingAndGlyphs" textLength="7" x="1152.7648" y="184.9548">*</text><!--link LineItem to ProductQuantity--><path d="M1021.5,76.022 C884.162,76.418 295.023,81.535 241,140 C235.571,145.876 235.438,152.25 241,158 C275.741,193.92 1090.2,183.799 1140,188 C1147.24,188.611 1154.82,189.417 1162.32,190.316 " fill="none" id="LineItem-ProductQuantity" style="stroke: #A80036; stroke-width: 1.0;"/><polygon fill="#A80036" points="1167.49,190.952,1159.0352,185.9007,1162.5261,190.3519,1158.075,193.8429,1167.49,190.952" style="stroke: #A80036; stroke-width: 1.0;"/><text fill="#000000" font-family="sans-serif" font-size="13" lengthAdjust="spacingAndGlyphs" textLength="244" x="242" y="153.0669">MeasureQuantityStartRelatedLineItem</text><text fill="#000000" font-family="sans-serif" font-size="13" lengthAdjust="spacingAndGlyphs" textLength="8" x="1151.6959" y="202.8494">1</text><!--link LineItem to ProductQuantity--><path d="M1021.11,76.053 C901.9,76.746 457.782,84.256 528,158 C551.474,182.653 1106.1,184.873 1140,188 C1147.23,188.667 1154.81,189.507 1162.31,190.425 " fill="none" id="LineItem-ProductQuantity" style="stroke: #A80036; stroke-width: 1.0;"/><polygon fill="#A80036" points="1167.48,191.071,1159.0541,185.9715,1162.5197,190.4426,1158.0486,193.9081,1167.48,191.071" style="stroke: #A80036; stroke-width: 1.0;"/><text fill="#000000" font-family="sans-serif" font-size="13" lengthAdjust="spacingAndGlyphs" textLength="236" x="529" y="153.0669">MeasureQuantityEndRelatedLineItem</text><text fill="#000000" font-family="sans-serif" font-size="13" lengthAdjust="spacingAndGlyphs" textLength="8" x="1151.6158" y="181.6085">1</text><!--link LineItem to ProductQuantity--><path d="M1021.26,76.351 C944.468,78.204 744.446,89.557 807,158 C832.063,185.422 1103.08,183.833 1140,188 C1147.22,188.815 1154.79,189.744 1162.28,190.708 " fill="none" id="LineItem-ProductQuantity" style="stroke: #A80036; stroke-width: 1.0;"/><polygon fill="#A80036" points="1167.45,191.381,1159.039,186.2571,1162.4915,190.7382,1158.0104,194.1907,1167.45,191.381" style="stroke: #A80036; stroke-width: 1.0;"/><text fill="#000000" font-family="sans-serif" font-size="13" lengthAdjust="spacingAndGlyphs" textLength="122" x="808" y="153.0669">GrossPriceQuantity</text><text fill="#000000" font-family="sans-serif" font-size="13" lengthAdjust="spacingAndGlyphs" textLength="7" x="1152.7091" y="203.328">*</text><!--link LineItem to ProductQuantity--><path d="M1025.87,87.032 C995.398,102.437 949.495,131.486 972,158 C975.093,161.644 1089.74,179.382 1162.37,190.298 " fill="none" id="LineItem-ProductQuantity" style="stroke: #A80036; stroke-width: 1.0;"/><polygon fill="#A80036" points="1167.53,191.072,1159.224,185.7795,1162.5855,190.3293,1158.0357,193.6908,1167.53,191.072" style="stroke: #A80036; stroke-width: 1.0;"/><text fill="#000000" font-family="sans-serif" font-size="13" lengthAdjust="spacingAndGlyphs" textLength="108" x="973" y="153.0669">NetPriceQuantity</text><text fill="#000000" font-family="sans-serif" font-size="13" lengthAdjust="spacingAndGlyphs" textLength="7" x="1152.7779" y="202.7435">*</text><!--link LineItem to ProductQuantity--><path d="M1056.72,87.046 C1067.76,104.344 1091.27,137.921 1119,158 C1135.96,170.278 1157.11,179.562 1175.75,186.163 " fill="none" id="LineItem-ProductQuantity" style="stroke: #A80036; stroke-width: 1.0;"/><polygon fill="#A80036" points="1180.93,187.954,1173.7425,181.2205,1176.2072,186.3122,1171.1156,188.7769,1180.93,187.954" style="stroke: #A80036; stroke-width: 1.0;"/><text fill="#000000" font-family="sans-serif" font-size="13" lengthAdjust="spacingAndGlyphs" textLength="80" x="1120" y="153.0669">GrossWeight</text><text fill="#000000" font-family="sans-serif" font-size="13" lengthAdjust="spacingAndGlyphs" textLength="7" x="1168.2731" y="176.9864">*</text><!--link Country to Tax--><path d="M1324.3,418.084 C1344.39,436.18 1384.23,472.073 1406.66,492.283 " fill="none" id="Country-Tax" style="stroke: #A80036; stroke-width: 1.0;"/><polygon fill="#A80036" points="1410.64,495.867,1406.6262,486.8731,1406.9235,492.5222,1401.2745,492.8195,1410.64,495.867" style="stroke: #A80036; stroke-width: 1.0;"/><text fill="#000000" font-family="sans-serif" font-size="13" lengthAdjust="spacingAndGlyphs" textLength="22" x="1379" y="461.0669">Tax</text><text fill="#000000" font-family="sans-serif" font-size="13" lengthAdjust="spacingAndGlyphs" textLength="8" x="1395.5866" y="484.8695">1</text></g></svg>