<?xml version="1.0" encoding="UTF-8" standalone="no"?><svg xmlns="http://www.w3.org/2000/svg" xmlns:xlink="http://www.w3.org/1999/xlink" contentScriptType="application/ecmascript" contentStyleType="text/css" height="498px" preserveAspectRatio="none" style="width:760px;height:498px;" version="1.1" viewBox="0 0 760 498" width="760px" zoomAndPan="magnify"><defs><filter height="300%" id="f1ljdhos78xvjt" width="300%" x="-1" y="-1"><feGaussianBlur result="blurOut" stdDeviation="2.0"/><feColorMatrix in="blurOut" result="blurOut2" type="matrix" values="0 0 0 0 0 0 0 0 0 0 0 0 0 0 0 0 0 0 .4 0"/><feOffset dx="4.0" dy="4.0" in="blurOut2" result="blurOut3"/><feBlend in="SourceGraphic" in2="blurOut3" mode="normal"/></filter></defs><g><!--cluster ##9990--><!--cluster ##9999--><!--cluster ##10008--><!--class Role--><a target="_top" xlink:actuate="onRequest" xlink:href="../Role.html" xlink:show="new" xlink:title="Role of a party in an activity." xlink:type="simple"><rect fill="#FEFEEE" filter="url(#f1ljdhos78xvjt)" height="44.7734" id="Role" style="stroke: #A80036; stroke-width: 1.5;" width="175" x="96.75" y="40.5"/><rect fill="#FEFEEE" height="23.9688" style="stroke: #A80036; stroke-width: 1.5;" width="175" x="96.75" y="40.5"/><text fill="#000000" font-family="sans-serif" font-size="12" lengthAdjust="spacingAndGlyphs" textLength="27" x="170.75" y="56.6387">Role</text><line style="stroke: #A80036; stroke-width: 1.5;" x1="97.75" x2="270.75" y1="64.4688" y2="64.4688"/><ellipse cx="107.75" cy="76.3711" fill="#84BE84" rx="3" ry="3" style="stroke: #038048; stroke-width: 1.0;"/><text fill="#000000" font-family="sans-serif" font-size="11" lengthAdjust="spacingAndGlyphs" textLength="53" x="116.75" y="78.6792">PartyRole</text><text fill="#000000" font-family="sans-serif" font-size="11" font-style="italic" lengthAdjust="spacingAndGlyphs" textLength="92" x="173.75" y="78.6792">(PartyRoleCode)</text></a><!--class TaxPartyRole--><a target="_top" xlink:actuate="onRequest" xlink:href="../TaxPartyRole.html" xlink:show="new" xlink:title="Role played by a party in the context of a tax due." xlink:type="simple"><rect fill="#FEFECE" filter="url(#f1ljdhos78xvjt)" height="44.7734" id="TaxPartyRole" style="stroke: #A80036; stroke-width: 1.5;" width="234" x="38" y="164.5"/><rect fill="#FEFECE" height="23.9688" style="stroke: #A80036; stroke-width: 1.5;" width="234" x="38" y="164.5"/><text fill="#000000" font-family="sans-serif" font-size="12" lengthAdjust="spacingAndGlyphs" textLength="80" x="115" y="180.6387">TaxPartyRole</text><line style="stroke: #A80036; stroke-width: 1.5;" x1="39" x2="271" y1="188.4688" y2="188.4688"/><ellipse cx="49" cy="200.3711" fill="#84BE84" rx="3" ry="3" style="stroke: #038048; stroke-width: 1.0;"/><text fill="#000000" font-family="sans-serif" font-size="11" lengthAdjust="spacingAndGlyphs" textLength="134" x="58" y="202.6792">VATRegistrationNumber</text><text fill="#000000" font-family="sans-serif" font-size="11" font-style="italic" lengthAdjust="spacingAndGlyphs" textLength="70" x="196" y="202.6792">(Max35Text)</text></a><!--class TaxPayer--><a target="_top" xlink:actuate="onRequest" xlink:href="../TaxPayer.html" xlink:show="new" xlink:title="Party that settles tax amounts. May be different from the tax debtor and tax creditor." xlink:type="simple"><rect fill="#FEFEEE" filter="url(#f1ljdhos78xvjt)" height="23.9688" id="TaxPayer" style="stroke: #A80036; stroke-width: 1.5;" width="62" x="124.5" y="290"/><rect fill="#FEFEEE" height="23.9688" style="stroke: #A80036; stroke-width: 1.5;" width="62" x="124.5" y="290"/><text fill="#000000" font-family="sans-serif" font-size="12" lengthAdjust="spacingAndGlyphs" textLength="56" x="127.5" y="306.1387">TaxPayer</text></a><!--class RolePlayer--><a target="_top" xlink:actuate="onRequest" xlink:href="../RolePlayer.html" xlink:show="new" xlink:title="Type of entity that plays a specific role in a specific context." xlink:type="simple"><rect fill="#EEEEEE" filter="url(#f1ljdhos78xvjt)" height="23.9688" id="RolePlayer" style="stroke: #A80036; stroke-width: 1.5;" width="71" x="569.75" y="464"/><rect fill="#EEEEEE" height="23.9688" style="stroke: #A80036; stroke-width: 1.5;" width="71" x="569.75" y="464"/><text fill="#000000" font-family="sans-serif" font-size="12" lengthAdjust="spacingAndGlyphs" textLength="65" x="572.75" y="480.1387">RolePlayer</text></a><!--class ContactPersonRole--><a target="_top" xlink:actuate="onRequest" xlink:href="../ContactPersonRole.html" xlink:show="new" xlink:title="Person to be contacted in a given organisation. In the corporate action domain (including meeting notifications) , it is the contact person at the party organising the meeting, at the issuer or at an intermediary." xlink:type="simple"><rect fill="#EEEEEE" filter="url(#f1ljdhos78xvjt)" height="23.9688" id="ContactPersonRole" style="stroke: #A80036; stroke-width: 1.5;" width="126" x="562" y="378"/><rect fill="#EEEEEE" height="23.9688" style="stroke: #A80036; stroke-width: 1.5;" width="126" x="562" y="378"/><text fill="#000000" font-family="sans-serif" font-size="12" lengthAdjust="spacingAndGlyphs" textLength="120" x="565" y="394.1387">ContactPersonRole</text></a><!--class CounterpartyRisk--><a target="_top" xlink:actuate="onRequest" xlink:href="../CounterpartyRisk.html" xlink:show="new" xlink:title="Calculation of the exposure amount that one party has vis-a-vis one counterparty or a central system, based on its credit risk." xlink:type="simple"><rect fill="#EEEEEE" filter="url(#f1ljdhos78xvjt)" height="23.9688" id="CounterpartyRisk" style="stroke: #A80036; stroke-width: 1.5;" width="113" x="574.75" y="290"/><rect fill="#EEEEEE" height="23.9688" style="stroke: #A80036; stroke-width: 1.5;" width="113" x="574.75" y="290"/><text fill="#000000" font-family="sans-serif" font-size="12" lengthAdjust="spacingAndGlyphs" textLength="107" x="577.75" y="306.1387">CounterpartyRisk</text></a><!--class Entry--><a target="_top" xlink:actuate="onRequest" xlink:href="../Entry.html" xlink:show="new" xlink:title="Posting to an account that results in an increase or decrease to a balance." xlink:type="simple"><rect fill="#EEEEEE" filter="url(#f1ljdhos78xvjt)" height="23.9688" id="Entry" style="stroke: #A80036; stroke-width: 1.5;" width="38" x="562" y="175"/><rect fill="#EEEEEE" height="23.9688" style="stroke: #A80036; stroke-width: 1.5;" width="38" x="562" y="175"/><text fill="#000000" font-family="sans-serif" font-size="12" lengthAdjust="spacingAndGlyphs" textLength="32" x="565" y="191.1387">Entry</text></a><!--class Tax--><a target="_top" xlink:actuate="onRequest" xlink:href="../Tax.html" xlink:show="new" xlink:title="Amount of money due to the government or tax authority, according to various pre-defined parameters such as thresholds or income." xlink:type="simple"><rect fill="#EEEEEE" filter="url(#f1ljdhos78xvjt)" height="23.9688" id="Tax" style="stroke: #A80036; stroke-width: 1.5;" width="27" x="328.75" y="290"/><rect fill="#EEEEEE" height="23.9688" style="stroke: #A80036; stroke-width: 1.5;" width="27" x="328.75" y="290"/><text fill="#000000" font-family="sans-serif" font-size="12" lengthAdjust="spacingAndGlyphs" textLength="21" x="331.75" y="306.1387">Tax</text></a><!--link Role to TaxPartyRole--><path d="M174.254,105 C169.538,124.842 164.066,147.859 160.164,164.275 " fill="none" id="Role-TaxPartyRole" style="stroke: #A80036; stroke-width: 1.0;"/><polygon fill="none" points="167.447,103.369,178.882,85.53,181.067,106.607,167.447,103.369" style="stroke: #A80036; stroke-width: 1.0;"/><!--link TaxPartyRole to TaxPayer--><path d="M155,229.559 C155,251.159 155,275.898 155,289.865 " fill="none" id="TaxPartyRole-TaxPayer" style="stroke: #A80036; stroke-width: 1.0;"/><polygon fill="none" points="148,229.52,155,209.52,162,229.52,148,229.52" style="stroke: #A80036; stroke-width: 1.0;"/><!--link ContactPersonRole to RolePlayer--><!--link CounterpartyRisk to ContactPersonRole--><!--link Entry to CounterpartyRisk--><!--link Role to RolePlayer--><path d="M271.368,72.635 C340.686,84.882 426,114.483 426,186 C426,186 426,186 426,391 C426,451.8572 511.842,468.7099 564.634,473.3199 " fill="none" id="Role-RolePlayer" style="stroke: #A80036; stroke-width: 1.0;"/><polygon fill="#A80036" points="569.635,473.7288,560.9919,469.0068,564.6517,473.3202,560.3382,476.98,569.635,473.7288" style="stroke: #A80036; stroke-width: 1.0;"/><text fill="#000000" font-family="sans-serif" font-size="13" lengthAdjust="spacingAndGlyphs" textLength="39" x="427" y="306.0669">Player</text><text fill="#000000" font-family="sans-serif" font-size="13" lengthAdjust="spacingAndGlyphs" textLength="7" x="554.7402" y="467.9585">*</text><!--link Role to ContactPersonRole--><path d="M271.309,71.569 C338.865,79.101 425.267,92.932 452,116 C502.656,159.712 471.673,198.359 502,258 C521.557,296.461 527.125,306.868 557,338 C570.704,352.281 588.714,365.597 602.757,375.039 " fill="none" id="Role-ContactPersonRole" style="stroke: #A80036; stroke-width: 1.0;"/><polygon fill="#A80036" points="606.978,377.842,601.6906,369.5328,602.8118,375.0774,597.2672,376.1987,606.978,377.842" style="stroke: #A80036; stroke-width: 1.0;"/><text fill="#000000" font-family="sans-serif" font-size="13" lengthAdjust="spacingAndGlyphs" textLength="121" x="503" y="253.0669">ContactPersonRole</text><text fill="#000000" font-family="sans-serif" font-size="13" lengthAdjust="spacingAndGlyphs" textLength="8" x="590.0642" y="366.8359">1</text><!--link Role to CounterpartyRisk--><path d="M271.402,66.157 C376.4,70.249 544.939,82.054 597,116 C628.476,136.524 643.488,236.423 644,240 C646.201,255.382 641.85,272.686 637.6,284.924 " fill="none" id="Role-CounterpartyRisk" style="stroke: #A80036; stroke-width: 1.0;"/><polygon fill="#A80036" points="635.805,289.839,642.6508,282.7584,637.5209,285.1427,635.1366,280.0128,635.805,289.839" style="stroke: #A80036; stroke-width: 1.0;"/><text fill="#000000" font-family="sans-serif" font-size="13" lengthAdjust="spacingAndGlyphs" textLength="109" x="639" y="191.0669">CounterpartyRisk</text><text fill="#000000" font-family="sans-serif" font-size="13" lengthAdjust="spacingAndGlyphs" textLength="24" x="607.902" y="278.8319">0..1</text><!--link Role to Entry--><path d="M271.326,68.817 C360.751,75.162 492.489,88.857 535,116 C554.994,128.766 568.185,153.685 575.124,170.086 " fill="none" id="Role-Entry" style="stroke: #A80036; stroke-width: 1.0;"/><polygon fill="#A80036" points="577.078,174.879,577.3852,165.0349,575.1908,170.2488,569.9769,168.0545,577.078,174.879" style="stroke: #A80036; stroke-width: 1.0;"/><text fill="#000000" font-family="sans-serif" font-size="13" lengthAdjust="spacingAndGlyphs" textLength="33" x="554" y="129.0669">Entry</text><text fill="#000000" font-family="sans-serif" font-size="13" lengthAdjust="spacingAndGlyphs" textLength="8" x="565.0111" y="163.8856">1</text><!--link TaxPartyRole to Tax--><path d="M192.817,209.578 C219.581,224.995 256.219,246.395 288,266 C300.147,273.493 313.618,282.224 324.067,289.091 " fill="none" id="TaxPartyRole-Tax" style="stroke: #A80036; stroke-width: 1.0;"/><polygon fill="#A80036" points="328.347,291.91,323.0306,283.6193,324.1712,289.1599,318.6305,290.3005,328.347,291.91" style="stroke: #A80036; stroke-width: 1.0;"/><text fill="#000000" font-family="sans-serif" font-size="13" lengthAdjust="spacingAndGlyphs" textLength="22" x="275" y="253.0669">Tax</text><text fill="#000000" font-family="sans-serif" font-size="13" lengthAdjust="spacingAndGlyphs" textLength="7" x="313.7909" y="281.3834">*</text></g></svg>