<?xml version="1.0" encoding="UTF-8" standalone="no"?><svg xmlns="http://www.w3.org/2000/svg" xmlns:xlink="http://www.w3.org/1999/xlink" contentScriptType="application/ecmascript" contentStyleType="text/css" height="516px" preserveAspectRatio="none" style="width:1869px;height:516px;" version="1.1" viewBox="0 0 1869 516" width="1869px" zoomAndPan="magnify"><defs><filter height="300%" id="f13so1dyuvcqpz" width="300%" x="-1" y="-1"><feGaussianBlur result="blurOut" stdDeviation="2.0"/><feColorMatrix in="blurOut" result="blurOut2" type="matrix" values="0 0 0 0 0 0 0 0 0 0 0 0 0 0 0 0 0 0 .4 0"/><feOffset dx="4.0" dy="4.0" in="blurOut2" result="blurOut3"/><feBlend in="SourceGraphic" in2="blurOut3" mode="normal"/></filter></defs><g><!--cluster ##27971--><!--cluster ##27998--><!--cluster ##28007--><!--class Role--><a target="_top" xlink:actuate="onRequest" xlink:href="../Role.html" xlink:show="new" xlink:title="Role of a party in an activity." xlink:type="simple"><rect fill="#FEFEEE" filter="url(#f13so1dyuvcqpz)" height="44.7734" id="Role" style="stroke: #A80036; stroke-width: 1.5;" width="175" x="850.75" y="40.5"/><rect fill="#FEFEEE" height="23.9688" style="stroke: #A80036; stroke-width: 1.5;" width="175" x="850.75" y="40.5"/><text fill="#000000" font-family="sans-serif" font-size="12" lengthAdjust="spacingAndGlyphs" textLength="27" x="924.75" y="56.6387">Role</text><line style="stroke: #A80036; stroke-width: 1.5;" x1="851.75" x2="1024.75" y1="64.4688" y2="64.4688"/><ellipse cx="861.75" cy="76.3711" fill="#84BE84" rx="3" ry="3" style="stroke: #038048; stroke-width: 1.0;"/><text fill="#000000" font-family="sans-serif" font-size="11" lengthAdjust="spacingAndGlyphs" textLength="53" x="870.75" y="78.6792">PartyRole</text><text fill="#000000" font-family="sans-serif" font-size="11" font-style="italic" lengthAdjust="spacingAndGlyphs" textLength="92" x="927.75" y="78.6792">(PartyRoleCode)</text></a><!--class TradePartyRole--><a target="_top" xlink:actuate="onRequest" xlink:href="../TradePartyRole.html" xlink:show="new" xlink:title="Trading party in a commercial, securities, treasury trade. This role may also represent parties which play different intermediary roles in a trade." xlink:type="simple"><rect fill="#FEFECE" filter="url(#f13so1dyuvcqpz)" height="57.5781" id="TradePartyRole" style="stroke: #A80036; stroke-width: 1.5;" width="279" x="515.75" y="164"/><rect fill="#FEFECE" height="23.9688" style="stroke: #A80036; stroke-width: 1.5;" width="279" x="515.75" y="164"/><text fill="#000000" font-family="sans-serif" font-size="12" lengthAdjust="spacingAndGlyphs" textLength="95" x="607.75" y="180.1387">TradePartyRole</text><line style="stroke: #A80036; stroke-width: 1.5;" x1="516.75" x2="793.75" y1="187.9688" y2="187.9688"/><ellipse cx="526.75" cy="199.8711" fill="#84BE84" rx="3" ry="3" style="stroke: #038048; stroke-width: 1.0;"/><text fill="#000000" font-family="sans-serif" font-size="11" lengthAdjust="spacingAndGlyphs" textLength="120" x="535.75" y="202.1792">TradingPartyCapacity</text><text fill="#000000" font-family="sans-serif" font-size="11" font-style="italic" lengthAdjust="spacingAndGlyphs" textLength="129" x="659.75" y="202.1792">(TradingCapacityCode)</text><ellipse cx="526.75" cy="212.6758" fill="#84BE84" rx="3" ry="3" style="stroke: #038048; stroke-width: 1.0;"/><text fill="#000000" font-family="sans-serif" font-size="11" lengthAdjust="spacingAndGlyphs" textLength="80" x="535.75" y="214.9839">BuyerOrSeller</text><text fill="#000000" font-family="sans-serif" font-size="11" font-style="italic" lengthAdjust="spacingAndGlyphs" textLength="104" x="619.75" y="214.9839">(OptionPartyCode)</text></a><!--class SecuritiesTradePartyRole--><a target="_top" xlink:actuate="onRequest" xlink:href="../SecuritiesTradePartyRole.html" xlink:show="new" xlink:title="Role played by a party in the context of a securities trade." xlink:type="simple"><rect fill="#FEFEEE" filter="url(#f13so1dyuvcqpz)" height="23.9688" id="SecuritiesTradePartyRole" style="stroke: #A80036; stroke-width: 1.5;" width="163" x="38.75" y="302"/><rect fill="#FEFEEE" height="23.9688" style="stroke: #A80036; stroke-width: 1.5;" width="163" x="38.75" y="302"/><text fill="#000000" font-family="sans-serif" font-size="12" lengthAdjust="spacingAndGlyphs" textLength="157" x="41.75" y="318.1387">SecuritiesTradePartyRole</text></a><!--class BuyerRole--><a target="_top" xlink:actuate="onRequest" xlink:href="../BuyerRole.html" xlink:show="new" xlink:title="Party that buys assets, good or services." xlink:type="simple"><rect fill="#FEFEEE" filter="url(#f13so1dyuvcqpz)" height="23.9688" id="BuyerRole" style="stroke: #A80036; stroke-width: 1.5;" width="68" x="237" y="302"/><rect fill="#FEFEEE" height="23.9688" style="stroke: #A80036; stroke-width: 1.5;" width="68" x="237" y="302"/><text fill="#000000" font-family="sans-serif" font-size="12" lengthAdjust="spacingAndGlyphs" textLength="62" x="240" y="318.1387">BuyerRole</text></a><!--class SellerRole--><a target="_top" xlink:actuate="onRequest" xlink:href="../SellerRole.html" xlink:show="new" xlink:title="Party that sells assets, goods or services." xlink:type="simple"><rect fill="#FEFEEE" filter="url(#f13so1dyuvcqpz)" height="23.9688" id="SellerRole" style="stroke: #A80036; stroke-width: 1.5;" width="68" x="340" y="302"/><rect fill="#FEFEEE" height="23.9688" style="stroke: #A80036; stroke-width: 1.5;" width="68" x="340" y="302"/><text fill="#000000" font-family="sans-serif" font-size="12" lengthAdjust="spacingAndGlyphs" textLength="62" x="343" y="318.1387">SellerRole</text></a><!--class Broker--><a target="_top" xlink:actuate="onRequest" xlink:href="../Broker.html" xlink:show="new" xlink:title="Party that identifies a broker when required (for example, authorised broker, prime broker, etc)." xlink:type="simple"><rect fill="#FEFEEE" filter="url(#f13so1dyuvcqpz)" height="23.9688" id="Broker" style="stroke: #A80036; stroke-width: 1.5;" width="47" x="443.75" y="302"/><rect fill="#FEFEEE" height="23.9688" style="stroke: #A80036; stroke-width: 1.5;" width="47" x="443.75" y="302"/><text fill="#000000" font-family="sans-serif" font-size="12" lengthAdjust="spacingAndGlyphs" textLength="41" x="446.75" y="318.1387">Broker</text></a><!--class TreasuryTradePartyRole--><a target="_top" xlink:actuate="onRequest" xlink:href="../TreasuryTradePartyRole.html" xlink:show="new" xlink:title="Role played by a party in the context of a treasury trade." xlink:type="simple"><rect fill="#FEFEEE" filter="url(#f13so1dyuvcqpz)" height="23.9688" id="TreasuryTradePartyRole" style="stroke: #A80036; stroke-width: 1.5;" width="155" x="525.75" y="302"/><rect fill="#FEFEEE" height="23.9688" style="stroke: #A80036; stroke-width: 1.5;" width="155" x="525.75" y="302"/><text fill="#000000" font-family="sans-serif" font-size="12" lengthAdjust="spacingAndGlyphs" textLength="149" x="528.75" y="318.1387">TreasuryTradePartyRole</text></a><!--class CommercialTradePartyRole--><a target="_top" xlink:actuate="onRequest" xlink:href="../CommercialTradePartyRole.html" xlink:show="new" xlink:title="Role played by a party in the context of a trade." xlink:type="simple"><rect fill="#FEFEEE" filter="url(#f13so1dyuvcqpz)" height="23.9688" id="CommercialTradePartyRole" style="stroke: #A80036; stroke-width: 1.5;" width="173" x="715.75" y="302"/><rect fill="#FEFEEE" height="23.9688" style="stroke: #A80036; stroke-width: 1.5;" width="173" x="715.75" y="302"/><text fill="#000000" font-family="sans-serif" font-size="12" lengthAdjust="spacingAndGlyphs" textLength="167" x="718.75" y="318.1387">CommercialTradePartyRole</text></a><!--class StockExchange--><a target="_top" xlink:actuate="onRequest" xlink:href="../StockExchange.html" xlink:show="new" xlink:title="Party that identifies the stock exchange." xlink:type="simple"><rect fill="#FEFEEE" filter="url(#f13so1dyuvcqpz)" height="23.9688" id="StockExchange" style="stroke: #A80036; stroke-width: 1.5;" width="102" x="924.5" y="302"/><rect fill="#FEFEEE" height="23.9688" style="stroke: #A80036; stroke-width: 1.5;" width="102" x="924.5" y="302"/><text fill="#000000" font-family="sans-serif" font-size="12" lengthAdjust="spacingAndGlyphs" textLength="96" x="927.5" y="318.1387">StockExchange</text></a><!--class RolePlayer--><a target="_top" xlink:actuate="onRequest" xlink:href="../RolePlayer.html" xlink:show="new" xlink:title="Type of entity that plays a specific role in a specific context." xlink:type="simple"><rect fill="#EEEEEE" filter="url(#f13so1dyuvcqpz)" height="23.9688" id="RolePlayer" style="stroke: #A80036; stroke-width: 1.5;" width="71" x="1444.75" y="482"/><rect fill="#EEEEEE" height="23.9688" style="stroke: #A80036; stroke-width: 1.5;" width="71" x="1444.75" y="482"/><text fill="#000000" font-family="sans-serif" font-size="12" lengthAdjust="spacingAndGlyphs" textLength="65" x="1447.75" y="498.1387">RolePlayer</text></a><!--class ContactPersonRole--><a target="_top" xlink:actuate="onRequest" xlink:href="../ContactPersonRole.html" xlink:show="new" xlink:title="Person to be contacted in a given organisation. In the corporate action domain (including meeting notifications) , it is the contact person at the party organising the meeting, at the issuer or at an intermediary." xlink:type="simple"><rect fill="#EEEEEE" filter="url(#f13so1dyuvcqpz)" height="23.9688" id="ContactPersonRole" style="stroke: #A80036; stroke-width: 1.5;" width="126" x="1397" y="392"/><rect fill="#EEEEEE" height="23.9688" style="stroke: #A80036; stroke-width: 1.5;" width="126" x="1397" y="392"/><text fill="#000000" font-family="sans-serif" font-size="12" lengthAdjust="spacingAndGlyphs" textLength="120" x="1400" y="408.1387">ContactPersonRole</text></a><!--class CounterpartyRisk--><a target="_top" xlink:actuate="onRequest" xlink:href="../CounterpartyRisk.html" xlink:show="new" xlink:title="Calculation of the exposure amount that one party has vis-a-vis one counterparty or a central system, based on its credit risk." xlink:type="simple"><rect fill="#EEEEEE" filter="url(#f13so1dyuvcqpz)" height="23.9688" id="CounterpartyRisk" style="stroke: #A80036; stroke-width: 1.5;" width="113" x="1409.75" y="302"/><rect fill="#EEEEEE" height="23.9688" style="stroke: #A80036; stroke-width: 1.5;" width="113" x="1409.75" y="302"/><text fill="#000000" font-family="sans-serif" font-size="12" lengthAdjust="spacingAndGlyphs" textLength="107" x="1412.75" y="318.1387">CounterpartyRisk</text></a><!--class Entry--><a target="_top" xlink:actuate="onRequest" xlink:href="../Entry.html" xlink:show="new" xlink:title="Posting to an account that results in an increase or decrease to a balance." xlink:type="simple"><rect fill="#EEEEEE" filter="url(#f13so1dyuvcqpz)" height="23.9688" id="Entry" style="stroke: #A80036; stroke-width: 1.5;" width="38" x="1397" y="181"/><rect fill="#EEEEEE" height="23.9688" style="stroke: #A80036; stroke-width: 1.5;" width="38" x="1397" y="181"/><text fill="#000000" font-family="sans-serif" font-size="12" lengthAdjust="spacingAndGlyphs" textLength="32" x="1400" y="197.1387">Entry</text></a><!--class Account--><a target="_top" xlink:actuate="onRequest" xlink:href="../Account.html" xlink:show="new" xlink:title="Record of transactions in specific types of assets, maintained by a servicing party on behalf of one or more owning parties. Business relationship between an account servicer and one or more account owners." xlink:type="simple"><rect fill="#EEEEEE" filter="url(#f13so1dyuvcqpz)" height="23.9688" id="Account" style="stroke: #A80036; stroke-width: 1.5;" width="57" x="1082.75" y="392"/><rect fill="#EEEEEE" height="23.9688" style="stroke: #A80036; stroke-width: 1.5;" width="57" x="1082.75" y="392"/><text fill="#000000" font-family="sans-serif" font-size="12" lengthAdjust="spacingAndGlyphs" textLength="51" x="1085.75" y="408.1387">Account</text></a><!--class Trade--><a target="_top" xlink:actuate="onRequest" xlink:href="../Trade.html" xlink:show="new" xlink:title="Result of an order between at least two parties. A trade relates to the delivery of goods and services, cash or securities." xlink:type="simple"><rect fill="#EEEEEE" filter="url(#f13so1dyuvcqpz)" height="23.9688" id="Trade" style="stroke: #A80036; stroke-width: 1.5;" width="42" x="1082.5" y="302"/><rect fill="#EEEEEE" height="23.9688" style="stroke: #A80036; stroke-width: 1.5;" width="42" x="1082.5" y="302"/><text fill="#000000" font-family="sans-serif" font-size="12" lengthAdjust="spacingAndGlyphs" textLength="36" x="1085.5" y="318.1387">Trade</text></a><!--link Role to TradePartyRole--><path d="M871.949,93.874 C825.177,115.029 762.861,143.215 717.018,163.95 " fill="none" id="Role-TradePartyRole" style="stroke: #A80036; stroke-width: 1.0;"/><polygon fill="none" points="869.205,87.433,890.313,85.569,874.975,100.189,869.205,87.433" style="stroke: #A80036; stroke-width: 1.0;"/><!--link TradePartyRole to SecuritiesTradePartyRole--><path d="M495.743,217.96 C412.49,232.17 309.376,252.428 219,278 C194.793,284.849 167.916,294.485 148.282,301.912 " fill="none" id="TradePartyRole-SecuritiesTradePartyRole" style="stroke: #A80036; stroke-width: 1.0;"/><polygon fill="none" points="494.755,211.028,515.639,214.614,497.077,224.834,494.755,211.028" style="stroke: #A80036; stroke-width: 1.0;"/><!--link TradePartyRole to BuyerRole--><path d="M495.964,222.058 C439.551,235.119 376.56,253.354 322,278 C308.299,284.189 294.331,294.076 284.485,301.766 " fill="none" id="TradePartyRole-BuyerRole" style="stroke: #A80036; stroke-width: 1.0;"/><polygon fill="none" points="494.572,215.196,515.619,217.651,497.635,228.857,494.572,215.196" style="stroke: #A80036; stroke-width: 1.0;"/><!--link TradePartyRole to SellerRole--><path d="M544.161,228.601 C505.88,242.124 463.267,258.976 426,278 C412.625,284.828 398.559,294.465 388.434,301.899 " fill="none" id="TradePartyRole-SellerRole" style="stroke: #A80036; stroke-width: 1.0;"/><polygon fill="none" points="541.957,221.956,563.146,222.037,546.531,235.188,541.957,221.956" style="stroke: #A80036; stroke-width: 1.0;"/><!--link TradePartyRole to Broker--><path d="M582.532,231.855 C558.238,245.47 531.393,261.549 508,278 C497.588,285.322 486.668,294.742 478.718,301.965 " fill="none" id="TradePartyRole-Broker" style="stroke: #A80036; stroke-width: 1.0;"/><polygon fill="none" points="579.202,225.699,600.098,222.185,585.954,237.963,579.202,225.699" style="stroke: #A80036; stroke-width: 1.0;"/><!--link TradePartyRole to TreasuryTradePartyRole--><path d="M634.552,240.794 C624.822,263.061 614.004,287.818 607.899,301.79 " fill="none" id="TradePartyRole-TreasuryTradePartyRole" style="stroke: #A80036; stroke-width: 1.0;"/><polygon fill="none" points="628.254,237.725,642.677,222.201,641.083,243.331,628.254,237.725" style="stroke: #A80036; stroke-width: 1.0;"/><!--link TradePartyRole to CommercialTradePartyRole--><path d="M705.392,234.793 C734.64,258.471 769.324,286.548 788.152,301.79 " fill="none" id="TradePartyRole-CommercialTradePartyRole" style="stroke: #A80036; stroke-width: 1.0;"/><polygon fill="none" points="700.977,240.226,689.837,222.201,709.786,229.345,700.977,240.226" style="stroke: #A80036; stroke-width: 1.0;"/><!--link TradePartyRole to StockExchange--><path d="M767.868,228.225 C811.241,242.336 860.902,259.672 905,278 C922.189,285.144 941.028,294.665 954.828,301.974 " fill="none" id="TradePartyRole-StockExchange" style="stroke: #A80036; stroke-width: 1.0;"/><polygon fill="none" points="765.644,234.863,748.745,222.078,769.928,221.534,765.644,234.863" style="stroke: #A80036; stroke-width: 1.0;"/><!--link ContactPersonRole to RolePlayer--><!--link CounterpartyRisk to ContactPersonRole--><!--link Entry to CounterpartyRisk--><!--link Trade to Account--><!--link Role to RolePlayer--><path d="M1025.5,67.652 C1247.83,78.094 1817,112.58 1817,192 C1817,192 1817,192 1817,405 C1817,465.6217 1610.27,485.2654 1520.64,490.9332 " fill="none" id="Role-RolePlayer" style="stroke: #A80036; stroke-width: 1.0;"/><polygon fill="#A80036" points="1515.43,491.2555,1524.6636,494.6819,1520.4201,490.9412,1524.1608,486.6977,1515.43,491.2555" style="stroke: #A80036; stroke-width: 1.0;"/><text fill="#000000" font-family="sans-serif" font-size="13" lengthAdjust="spacingAndGlyphs" textLength="39" x="1818" y="318.0669">Player</text><text fill="#000000" font-family="sans-serif" font-size="13" lengthAdjust="spacingAndGlyphs" textLength="7" x="1523.8913" y="484.8806">*</text><!--link Role to ContactPersonRole--><path d="M1025.48,69.732 C1196.57,81.876 1561.97,112.754 1597,157 C1640.69,212.176 1544.19,343.87 1539,350 C1524.95,366.59 1504.46,380.131 1487.87,389.373 " fill="none" id="Role-ContactPersonRole" style="stroke: #A80036; stroke-width: 1.0;"/><polygon fill="#A80036" points="1483.31,391.865,1493.1276,391.0808,1487.7029,389.477,1489.3067,384.0522,1483.31,391.865" style="stroke: #A80036; stroke-width: 1.0;"/><text fill="#000000" font-family="sans-serif" font-size="13" lengthAdjust="spacingAndGlyphs" textLength="121" x="1595" y="265.0669">ContactPersonRole</text><text fill="#000000" font-family="sans-serif" font-size="13" lengthAdjust="spacingAndGlyphs" textLength="8" x="1480.6041" y="380.8668">1</text><!--link Role to CounterpartyRisk--><path d="M1025.42,67.348 C1156.91,74.357 1396.2,95.437 1452,157 C1487.39,196.043 1477.22,265.369 1470.19,296.757 " fill="none" id="Role-CounterpartyRisk" style="stroke: #A80036; stroke-width: 1.0;"/><polygon fill="#A80036" points="1469.01,301.81,1474.9512,293.9549,1470.1466,296.9409,1467.1606,292.1363,1469.01,301.81" style="stroke: #A80036; stroke-width: 1.0;"/><text fill="#000000" font-family="sans-serif" font-size="13" lengthAdjust="spacingAndGlyphs" textLength="109" x="1478" y="197.0669">CounterpartyRisk</text><text fill="#000000" font-family="sans-serif" font-size="13" lengthAdjust="spacingAndGlyphs" textLength="24" x="1440.618" y="291.0505">0..1</text><!--link Role to Entry--><path d="M1018.55,85.569 C1129.53,115.289 1323.49,167.227 1391.55,185.453 " fill="none" id="Role-Entry" style="stroke: #A80036; stroke-width: 1.0;"/><polygon fill="#A80036" points="1396.61,186.808,1388.9418,180.6275,1391.7783,185.5218,1386.8839,188.3583,1396.61,186.808" style="stroke: #A80036; stroke-width: 1.0;"/><text fill="#000000" font-family="sans-serif" font-size="13" lengthAdjust="spacingAndGlyphs" textLength="33" x="1193" y="129.0669">Entry</text><text fill="#000000" font-family="sans-serif" font-size="13" lengthAdjust="spacingAndGlyphs" textLength="8" x="1381.0552" y="178.9485">1</text><!--link TradePartyRole to Account--><path d="M794.493,197.43 C923.13,204.06 1100.03,223.196 1140,278 C1164.34,311.382 1138.2,361.999 1121.94,387.361 " fill="none" id="TradePartyRole-Account" style="stroke: #A80036; stroke-width: 1.0;"/><polygon fill="#A80036" points="1119.03,391.792,1127.3072,386.4547,1121.7695,387.6093,1120.6149,382.0715,1119.03,391.792" style="stroke: #A80036; stroke-width: 1.0;"/><text fill="#000000" font-family="sans-serif" font-size="13" lengthAdjust="spacingAndGlyphs" textLength="52" x="1151" y="318.0669">Account</text><text fill="#000000" font-family="sans-serif" font-size="13" lengthAdjust="spacingAndGlyphs" textLength="7" x="1112.1165" y="381.0265">*</text><!--link TradePartyRole to Trade--><path d="M794.56,213.628 C869.527,226.803 962.595,247.446 1042,278 C1056.18,283.458 1071,291.883 1082.47,299.1 " fill="none" id="TradePartyRole-Trade" style="stroke: #A80036; stroke-width: 1.0;"/><polygon fill="#A80036" points="1086.86,301.9,1081.441,293.676,1082.6504,299.2021,1077.1243,300.4114,1086.86,301.9" style="stroke: #A80036; stroke-width: 1.0;"/><text fill="#000000" font-family="sans-serif" font-size="13" lengthAdjust="spacingAndGlyphs" textLength="36" x="1013" y="265.0669">Trade</text><text fill="#000000" font-family="sans-serif" font-size="13" lengthAdjust="spacingAndGlyphs" textLength="7" x="1071.5931" y="290.9138">*</text><!--link Entry to Account--><path d="M1405.77,205.204 C1376.34,237.249 1291.36,328.361 1257,350 C1221.63,372.279 1175.55,387.011 1144.71,395.167 " fill="none" id="Entry-Account" style="stroke: #A80036; stroke-width: 1.0;"/><polygon fill="#A80036" points="1139.52,396.516,1149.2365,398.1249,1144.3594,395.259,1147.2254,390.3819,1139.52,396.516" style="stroke: #A80036; stroke-width: 1.0;"/><text fill="#000000" font-family="sans-serif" font-size="13" lengthAdjust="spacingAndGlyphs" textLength="52" x="1337" y="318.0669">Account</text><text fill="#000000" font-family="sans-serif" font-size="13" lengthAdjust="spacingAndGlyphs" textLength="7" x="1147.6611" y="388.508">*</text><!--link Account to Account--><path d="M1139.51,396.332 C1157.18,394.483 1174,397.039 1174,404 C1174,410.254 1160.42,412.952 1144.85,412.095 " fill="none" id="Account-Account" style="stroke: #A80036; stroke-width: 1.0;"/><polygon fill="#A80036" points="1139.51,411.668,1148.1612,416.3751,1144.494,412.068,1148.8011,408.4008,1139.51,411.668" style="stroke: #A80036; stroke-width: 1.0;"/><text fill="#000000" font-family="sans-serif" font-size="13" lengthAdjust="spacingAndGlyphs" textLength="94" x="1180" y="408.0669">ParentAccount</text><text fill="#000000" font-family="sans-serif" font-size="13" lengthAdjust="spacingAndGlyphs" textLength="8" x="1147.7766" y="427.6427">1</text></g></svg>