<?xml version="1.0" encoding="UTF-8" standalone="no"?><svg xmlns="http://www.w3.org/2000/svg" xmlns:xlink="http://www.w3.org/1999/xlink" contentScriptType="application/ecmascript" contentStyleType="text/css" height="478px" preserveAspectRatio="none" style="width:743px;height:478px;" version="1.1" viewBox="0 0 743 478" width="743px" zoomAndPan="magnify"><defs><filter height="300%" id="fkzxmch2o8eir" width="300%" x="-1" y="-1"><feGaussianBlur result="blurOut" stdDeviation="2.0"/><feColorMatrix in="blurOut" result="blurOut2" type="matrix" values="0 0 0 0 0 0 0 0 0 0 0 0 0 0 0 0 0 0 .4 0"/><feOffset dx="4.0" dy="4.0" in="blurOut2" result="blurOut3"/><feBlend in="SourceGraphic" in2="blurOut3" mode="normal"/></filter></defs><g><!--cluster ##12656--><!--cluster ##12668--><!--cluster ##12677--><!--class Role--><a target="_top" xlink:actuate="onRequest" xlink:href="../Role.html" xlink:show="new" xlink:title="Role of a party in an activity." xlink:type="simple"><rect fill="#FEFEEE" filter="url(#fkzxmch2o8eir)" height="44.7734" id="Role" style="stroke: #A80036; stroke-width: 1.5;" width="175" x="39.75" y="40.5"/><rect fill="#FEFEEE" height="23.9688" style="stroke: #A80036; stroke-width: 1.5;" width="175" x="39.75" y="40.5"/><text fill="#000000" font-family="sans-serif" font-size="12" lengthAdjust="spacingAndGlyphs" textLength="27" x="113.75" y="56.6387">Role</text><line style="stroke: #A80036; stroke-width: 1.5;" x1="40.75" x2="213.75" y1="64.4688" y2="64.4688"/><ellipse cx="50.75" cy="76.3711" fill="#84BE84" rx="3" ry="3" style="stroke: #038048; stroke-width: 1.0;"/><text fill="#000000" font-family="sans-serif" font-size="11" lengthAdjust="spacingAndGlyphs" textLength="53" x="59.75" y="78.6792">PartyRole</text><text fill="#000000" font-family="sans-serif" font-size="11" font-style="italic" lengthAdjust="spacingAndGlyphs" textLength="92" x="116.75" y="78.6792">(PartyRoleCode)</text></a><!--class TransportPartyRole--><a target="_top" xlink:actuate="onRequest" xlink:href="../TransportPartyRole.html" xlink:show="new" xlink:title="Role played by a party in the context of transporting goods." xlink:type="simple"><rect fill="#FEFECE" filter="url(#fkzxmch2o8eir)" height="23.9688" id="TransportPartyRole" style="stroke: #A80036; stroke-width: 1.5;" width="126" x="77" y="166"/><rect fill="#FEFECE" height="23.9688" style="stroke: #A80036; stroke-width: 1.5;" width="126" x="77" y="166"/><text fill="#000000" font-family="sans-serif" font-size="12" lengthAdjust="spacingAndGlyphs" textLength="120" x="80" y="182.1387">TransportPartyRole</text></a><!--class Consignor--><a target="_top" xlink:actuate="onRequest" xlink:href="../Consignor.html" xlink:show="new" xlink:title="Party responsible for dispatching the goods." xlink:type="simple"><rect fill="#FEFEEE" filter="url(#fkzxmch2o8eir)" height="23.9688" id="Consignor" style="stroke: #A80036; stroke-width: 1.5;" width="69" x="38.75" y="270"/><rect fill="#FEFEEE" height="23.9688" style="stroke: #A80036; stroke-width: 1.5;" width="69" x="38.75" y="270"/><text fill="#000000" font-family="sans-serif" font-size="12" lengthAdjust="spacingAndGlyphs" textLength="63" x="41.75" y="286.1387">Consignor</text></a><!--class Consignee--><a target="_top" xlink:actuate="onRequest" xlink:href="../Consignee.html" xlink:show="new" xlink:title="Party to whom the goods must be delivered." xlink:type="simple"><rect fill="#FEFEEE" filter="url(#fkzxmch2o8eir)" height="23.9688" id="Consignee" style="stroke: #A80036; stroke-width: 1.5;" width="72" x="143" y="270"/><rect fill="#FEFEEE" height="23.9688" style="stroke: #A80036; stroke-width: 1.5;" width="72" x="143" y="270"/><text fill="#000000" font-family="sans-serif" font-size="12" lengthAdjust="spacingAndGlyphs" textLength="66" x="146" y="286.1387">Consignee</text></a><!--class RolePlayer--><a target="_top" xlink:actuate="onRequest" xlink:href="../RolePlayer.html" xlink:show="new" xlink:title="Type of entity that plays a specific role in a specific context." xlink:type="simple"><rect fill="#EEEEEE" filter="url(#fkzxmch2o8eir)" height="23.9688" id="RolePlayer" style="stroke: #A80036; stroke-width: 1.5;" width="71" x="552.75" y="444"/><rect fill="#EEEEEE" height="23.9688" style="stroke: #A80036; stroke-width: 1.5;" width="71" x="552.75" y="444"/><text fill="#000000" font-family="sans-serif" font-size="12" lengthAdjust="spacingAndGlyphs" textLength="65" x="555.75" y="460.1387">RolePlayer</text></a><!--class ContactPersonRole--><a target="_top" xlink:actuate="onRequest" xlink:href="../ContactPersonRole.html" xlink:show="new" xlink:title="Person to be contacted in a given organisation. In the corporate action domain (including meeting notifications) , it is the contact person at the party organising the meeting, at the issuer or at an intermediary." xlink:type="simple"><rect fill="#EEEEEE" filter="url(#fkzxmch2o8eir)" height="23.9688" id="ContactPersonRole" style="stroke: #A80036; stroke-width: 1.5;" width="126" x="545" y="358"/><rect fill="#EEEEEE" height="23.9688" style="stroke: #A80036; stroke-width: 1.5;" width="126" x="545" y="358"/><text fill="#000000" font-family="sans-serif" font-size="12" lengthAdjust="spacingAndGlyphs" textLength="120" x="548" y="374.1387">ContactPersonRole</text></a><!--class CounterpartyRisk--><a target="_top" xlink:actuate="onRequest" xlink:href="../CounterpartyRisk.html" xlink:show="new" xlink:title="Calculation of the exposure amount that one party has vis-a-vis one counterparty or a central system, based on its credit risk." xlink:type="simple"><rect fill="#EEEEEE" filter="url(#fkzxmch2o8eir)" height="23.9688" id="CounterpartyRisk" style="stroke: #A80036; stroke-width: 1.5;" width="113" x="557.75" y="270"/><rect fill="#EEEEEE" height="23.9688" style="stroke: #A80036; stroke-width: 1.5;" width="113" x="557.75" y="270"/><text fill="#000000" font-family="sans-serif" font-size="12" lengthAdjust="spacingAndGlyphs" textLength="107" x="560.75" y="286.1387">CounterpartyRisk</text></a><!--class Entry--><a target="_top" xlink:actuate="onRequest" xlink:href="../Entry.html" xlink:show="new" xlink:title="Posting to an account that results in an increase or decrease to a balance." xlink:type="simple"><rect fill="#EEEEEE" filter="url(#fkzxmch2o8eir)" height="23.9688" id="Entry" style="stroke: #A80036; stroke-width: 1.5;" width="38" x="545" y="166"/><rect fill="#EEEEEE" height="23.9688" style="stroke: #A80036; stroke-width: 1.5;" width="38" x="545" y="166"/><text fill="#000000" font-family="sans-serif" font-size="12" lengthAdjust="spacingAndGlyphs" textLength="32" x="548" y="182.1387">Entry</text></a><!--class Transport--><a target="_top" xlink:actuate="onRequest" xlink:href="../Transport.html" xlink:show="new" xlink:title="Moving of goods or people from one place to another by vehicle." xlink:type="simple"><rect fill="#EEEEEE" filter="url(#fkzxmch2o8eir)" height="23.9688" id="Transport" style="stroke: #A80036; stroke-width: 1.5;" width="67" x="271.75" y="270"/><rect fill="#EEEEEE" height="23.9688" style="stroke: #A80036; stroke-width: 1.5;" width="67" x="271.75" y="270"/><text fill="#000000" font-family="sans-serif" font-size="12" lengthAdjust="spacingAndGlyphs" textLength="61" x="274.75" y="286.1387">Transport</text></a><!--link Role to TransportPartyRole--><path d="M131.781,105.559 C134.266,127.159 137.112,151.898 138.719,165.865 " fill="none" id="Role-TransportPartyRole" style="stroke: #A80036; stroke-width: 1.0;"/><polygon fill="none" points="124.808,106.189,129.476,85.52,138.716,104.589,124.808,106.189" style="stroke: #A80036; stroke-width: 1.0;"/><!--link TransportPartyRole to Consignor--><path d="M121.581,207.04 C107.938,227.811 90.0761,255.004 80.2558,269.954 " fill="none" id="TransportPartyRole-Consignor" style="stroke: #A80036; stroke-width: 1.0;"/><polygon fill="none" points="115.743,203.179,132.574,190.306,127.444,210.865,115.743,203.179" style="stroke: #A80036; stroke-width: 1.0;"/><!--link TransportPartyRole to Consignee--><path d="M151.581,209.289 C159.4,229.738 169.264,255.538 174.776,269.954 " fill="none" id="TransportPartyRole-Consignee" style="stroke: #A80036; stroke-width: 1.0;"/><polygon fill="none" points="144.927,211.487,144.323,190.306,158.004,206.487,144.927,211.487" style="stroke: #A80036; stroke-width: 1.0;"/><!--link ContactPersonRole to RolePlayer--><!--link CounterpartyRisk to ContactPersonRole--><!--link Entry to CounterpartyRisk--><!--link Role to RolePlayer--><path d="M214.295,81.504 C297.116,100.689 409,134.476 409,177 C409,177 409,177 409,371 C409,431.8572 494.842,448.7099 547.634,453.3199 " fill="none" id="Role-RolePlayer" style="stroke: #A80036; stroke-width: 1.0;"/><polygon fill="#A80036" points="552.635,453.7288,543.9919,449.0068,547.6517,453.3202,543.3382,456.98,552.635,453.7288" style="stroke: #A80036; stroke-width: 1.0;"/><text fill="#000000" font-family="sans-serif" font-size="13" lengthAdjust="spacingAndGlyphs" textLength="39" x="410" y="286.0669">Player</text><text fill="#000000" font-family="sans-serif" font-size="13" lengthAdjust="spacingAndGlyphs" textLength="7" x="537.7402" y="447.9585">*</text><!--link Role to ContactPersonRole--><path d="M214.267,69.356 C293.098,75.836 401.701,89.371 435,116 C480.765,152.598 457.131,186.452 485,238 C505.52,275.956 510.125,286.868 540,318 C553.704,332.281 571.714,345.597 585.757,355.039 " fill="none" id="Role-ContactPersonRole" style="stroke: #A80036; stroke-width: 1.0;"/><polygon fill="#A80036" points="589.978,357.842,584.6906,349.5328,585.8118,355.0774,580.2672,356.1987,589.978,357.842" style="stroke: #A80036; stroke-width: 1.0;"/><text fill="#000000" font-family="sans-serif" font-size="13" lengthAdjust="spacingAndGlyphs" textLength="121" x="486" y="233.0669">ContactPersonRole</text><text fill="#000000" font-family="sans-serif" font-size="13" lengthAdjust="spacingAndGlyphs" textLength="8" x="573.0642" y="346.8359">1</text><!--link Role to CounterpartyRisk--><path d="M214.324,65.74 C328.593,69.406 521.432,80.776 582,116 C613.042,134.053 627.836,219.022 628,220 C630.586,235.376 625.874,252.681 621.233,264.921 " fill="none" id="Role-CounterpartyRisk" style="stroke: #A80036; stroke-width: 1.0;"/><polygon fill="#A80036" points="619.27,269.837,626.322,262.9618,621.124,265.1934,618.8923,259.9954,619.27,269.837" style="stroke: #A80036; stroke-width: 1.0;"/><text fill="#000000" font-family="sans-serif" font-size="13" lengthAdjust="spacingAndGlyphs" textLength="109" x="622" y="182.0669">CounterpartyRisk</text><text fill="#000000" font-family="sans-serif" font-size="13" lengthAdjust="spacingAndGlyphs" textLength="24" x="591.5269" y="258.8292">0..1</text><!--link Role to Entry--><path d="M214.466,67.826 C313.634,73.508 468.028,86.825 518,116 C535.907,126.455 549.097,146.888 556.654,161.214 " fill="none" id="Role-Entry" style="stroke: #A80036; stroke-width: 1.0;"/><polygon fill="#A80036" points="558.999,165.815,558.4764,155.98,556.7287,161.3601,551.3486,159.6125,558.999,165.815" style="stroke: #A80036; stroke-width: 1.0;"/><text fill="#000000" font-family="sans-serif" font-size="13" lengthAdjust="spacingAndGlyphs" textLength="33" x="539" y="129.0669">Entry</text><text fill="#000000" font-family="sans-serif" font-size="13" lengthAdjust="spacingAndGlyphs" textLength="8" x="546.6862" y="155.0572">1</text><!--link TransportPartyRole to Transport--><path d="M157.972,190.11 C188.347,208.887 249.75,246.846 282.778,267.263 " fill="none" id="TransportPartyRole-Transport" style="stroke: #A80036; stroke-width: 1.0;"/><polygon fill="#A80036" points="287.05,269.904,281.4973,261.7697,282.7968,267.2752,277.2913,268.5748,287.05,269.904" style="stroke: #A80036; stroke-width: 1.0;"/><text fill="#000000" font-family="sans-serif" font-size="13" lengthAdjust="spacingAndGlyphs" textLength="61" x="234" y="233.0669">Transport</text><text fill="#000000" font-family="sans-serif" font-size="13" lengthAdjust="spacingAndGlyphs" textLength="24" x="251.325" y="258.9192">0..1</text></g></svg>